G04*
G04 #@! TF.GenerationSoftware,Altium Limited,Altium Designer,26.5.0 (11)*
G04*
G04 Layer_Color=16711935*
G04 Board_Origin=11968504|11968504*
%FSLAX25Y25*%
%MOIN*%
G70*
G04*
G04 #@! TF.SameCoordinates,E0E41B1B-5716-4650-BC9E-1E0D2F5229BA*
G04*
G04*
G04 #@! TF.FilePolarity,Negative*
G04*
G01*
G75*
%ADD26R,0.04540X0.04147*%
%ADD27C,0.13792*%
%ADD28C,0.06394*%
%ADD29C,0.08268*%
%ADD30C,0.06299*%
%ADD31C,0.06902*%
%ADD32C,0.06824*%
%ADD33R,0.06824X0.06824*%
%ADD34R,0.06824X0.06824*%
%ADD35C,0.06600*%
%ADD36C,0.00800*%
%ADD37C,0.13005*%
G04:AMPARAMS|DCode=55|XSize=51.31mil|YSize=27.69mil|CornerRadius=7.25mil|HoleSize=0mil|Usage=FLASHONLY|Rotation=180.000|XOffset=0mil|YOffset=0mil|HoleType=Round|Shape=RoundedRectangle|*
%AMROUNDEDRECTD55*
21,1,0.05131,0.01319,0,0,180.0*
21,1,0.03681,0.02769,0,0,180.0*
1,1,0.01450,-0.01841,0.00659*
1,1,0.01450,0.01841,0.00659*
1,1,0.01450,0.01841,-0.00659*
1,1,0.01450,-0.01841,-0.00659*
%
%ADD55ROUNDEDRECTD55*%
G04:AMPARAMS|DCode=56|XSize=35.95mil|YSize=42.65mil|CornerRadius=8.61mil|HoleSize=0mil|Usage=FLASHONLY|Rotation=180.000|XOffset=0mil|YOffset=0mil|HoleType=Round|Shape=RoundedRectangle|*
%AMROUNDEDRECTD56*
21,1,0.03595,0.02542,0,0,180.0*
21,1,0.01873,0.04265,0,0,180.0*
1,1,0.01722,-0.00936,0.01271*
1,1,0.01722,0.00936,0.01271*
1,1,0.01722,0.00936,-0.01271*
1,1,0.01722,-0.00936,-0.01271*
%
%ADD56ROUNDEDRECTD56*%
%ADD57R,0.04343X0.03556*%
%ADD58R,0.03359X0.04343*%
G04:AMPARAMS|DCode=59|XSize=51.31mil|YSize=27.69mil|CornerRadius=7.25mil|HoleSize=0mil|Usage=FLASHONLY|Rotation=270.000|XOffset=0mil|YOffset=0mil|HoleType=Round|Shape=RoundedRectangle|*
%AMROUNDEDRECTD59*
21,1,0.05131,0.01319,0,0,270.0*
21,1,0.03681,0.02769,0,0,270.0*
1,1,0.01450,-0.00659,-0.01841*
1,1,0.01450,-0.00659,0.01841*
1,1,0.01450,0.00659,0.01841*
1,1,0.01450,0.00659,-0.01841*
%
%ADD59ROUNDEDRECTD59*%
G04:AMPARAMS|DCode=60|XSize=27.69mil|YSize=51.31mil|CornerRadius=7.25mil|HoleSize=0mil|Usage=FLASHONLY|Rotation=0.000|XOffset=0mil|YOffset=0mil|HoleType=Round|Shape=RoundedRectangle|*
%AMROUNDEDRECTD60*
21,1,0.02769,0.03681,0,0,0.0*
21,1,0.01319,0.05131,0,0,0.0*
1,1,0.01450,0.00659,-0.01841*
1,1,0.01450,-0.00659,-0.01841*
1,1,0.01450,-0.00659,0.01841*
1,1,0.01450,0.00659,0.01841*
%
%ADD60ROUNDEDRECTD60*%
D26*
X145669Y310827D02*
D03*
Y305709D02*
D03*
X138189Y280512D02*
D03*
Y275394D02*
D03*
D27*
X352953Y323406D02*
D03*
X402953D02*
D03*
X271063Y315531D02*
D03*
X321063D02*
D03*
X189173Y315531D02*
D03*
X239173D02*
D03*
X179331Y241516D02*
D03*
X229331D02*
D03*
X261221D02*
D03*
X311221D02*
D03*
X343130D02*
D03*
X393130D02*
D03*
X425000D02*
D03*
X475000D02*
D03*
X434843Y323406D02*
D03*
X484843D02*
D03*
D28*
X392008Y336909D02*
D03*
X387992Y326909D02*
D03*
X383976Y336909D02*
D03*
X379961Y326909D02*
D03*
X375945Y336909D02*
D03*
X371929Y326909D02*
D03*
X367913Y336909D02*
D03*
X363898Y326909D02*
D03*
X310118Y329035D02*
D03*
X306102Y319035D02*
D03*
X302087Y329035D02*
D03*
X298071Y319035D02*
D03*
X294055Y329035D02*
D03*
X290039Y319035D02*
D03*
X286024Y329035D02*
D03*
X282008Y319035D02*
D03*
X228228Y329035D02*
D03*
X224213Y319035D02*
D03*
X220197Y329035D02*
D03*
X216181Y319035D02*
D03*
X212165Y329035D02*
D03*
X208150Y319035D02*
D03*
X204134Y329035D02*
D03*
X200118Y319035D02*
D03*
X218386Y255020D02*
D03*
X214370Y245020D02*
D03*
X210354Y255020D02*
D03*
X206339Y245020D02*
D03*
X202323Y255020D02*
D03*
X198307Y245020D02*
D03*
X194291Y255020D02*
D03*
X190276Y245020D02*
D03*
X300276Y255020D02*
D03*
X296260Y245020D02*
D03*
X292244Y255020D02*
D03*
X288228Y245020D02*
D03*
X284213Y255020D02*
D03*
X280197Y245020D02*
D03*
X276181Y255020D02*
D03*
X272165Y245020D02*
D03*
X382185Y255020D02*
D03*
X378169Y245020D02*
D03*
X374154Y255020D02*
D03*
X370138Y245020D02*
D03*
X366122Y255020D02*
D03*
X362106Y245020D02*
D03*
X358091Y255020D02*
D03*
X354075Y245020D02*
D03*
X464055Y255020D02*
D03*
X460039Y245020D02*
D03*
X456024Y255020D02*
D03*
X452008Y245020D02*
D03*
X447992Y255020D02*
D03*
X443976Y245020D02*
D03*
X439961Y255020D02*
D03*
X435945Y245020D02*
D03*
X473898Y336909D02*
D03*
X469882Y326909D02*
D03*
X465866Y336909D02*
D03*
X461850Y326909D02*
D03*
X457835Y336909D02*
D03*
X453819Y326909D02*
D03*
X449803Y336909D02*
D03*
X445787Y326909D02*
D03*
D29*
X345945Y340098D02*
D03*
X409961D02*
D03*
X264055Y332224D02*
D03*
X328071D02*
D03*
X182165Y332224D02*
D03*
X246181D02*
D03*
X172323Y258209D02*
D03*
X236339D02*
D03*
X254213D02*
D03*
X318228D02*
D03*
X336122D02*
D03*
X400138D02*
D03*
X417992D02*
D03*
X482008D02*
D03*
X427835Y340098D02*
D03*
X491850D02*
D03*
D30*
X404705Y346398D02*
D03*
X395689D02*
D03*
X360216D02*
D03*
X351201D02*
D03*
X322815Y338524D02*
D03*
X313799D02*
D03*
X278327D02*
D03*
X269311D02*
D03*
X240925Y338524D02*
D03*
X231909D02*
D03*
X196437D02*
D03*
X187421D02*
D03*
X231083Y264508D02*
D03*
X222067D02*
D03*
X186594D02*
D03*
X177579D02*
D03*
X312972D02*
D03*
X303957D02*
D03*
X268484D02*
D03*
X259469D02*
D03*
X394882D02*
D03*
X385866D02*
D03*
X350394D02*
D03*
X341378D02*
D03*
X476752D02*
D03*
X467736D02*
D03*
X432264D02*
D03*
X423248D02*
D03*
X486594Y346398D02*
D03*
X477579D02*
D03*
X442106D02*
D03*
X433090D02*
D03*
D31*
X93701Y306457D02*
D03*
Y326457D02*
D03*
Y336457D02*
D03*
Y346457D02*
D03*
Y356457D02*
D03*
Y266457D02*
D03*
Y216457D02*
D03*
Y246457D02*
D03*
Y226457D02*
D03*
Y256457D02*
D03*
Y286457D02*
D03*
Y316457D02*
D03*
Y296457D02*
D03*
Y276457D02*
D03*
Y236457D02*
D03*
X103701Y356457D02*
D03*
Y346457D02*
D03*
Y336457D02*
D03*
Y326457D02*
D03*
Y316457D02*
D03*
Y306457D02*
D03*
Y296457D02*
D03*
Y286457D02*
D03*
Y276457D02*
D03*
Y266457D02*
D03*
Y256457D02*
D03*
Y246457D02*
D03*
Y236457D02*
D03*
Y226457D02*
D03*
Y216457D02*
D03*
X288268Y103425D02*
D03*
X298268D02*
D03*
X308268D02*
D03*
X318268D02*
D03*
X328268D02*
D03*
X338268D02*
D03*
X348268D02*
D03*
X358268D02*
D03*
X368268D02*
D03*
X378268D02*
D03*
X388268D02*
D03*
X398268D02*
D03*
X408268D02*
D03*
X418268D02*
D03*
X428268D02*
D03*
X288268Y93425D02*
D03*
X298268D02*
D03*
X308268D02*
D03*
X318268D02*
D03*
X328268D02*
D03*
X338268D02*
D03*
X348268D02*
D03*
X358268D02*
D03*
X368268D02*
D03*
X378268D02*
D03*
X388268D02*
D03*
X398268D02*
D03*
X408268D02*
D03*
X418268D02*
D03*
X428268D02*
D03*
X326063Y172323D02*
D03*
X336063D02*
D03*
X346063D02*
D03*
X356063D02*
D03*
X366063D02*
D03*
X376063D02*
D03*
X386063D02*
D03*
X396063D02*
D03*
X406063D02*
D03*
X416063D02*
D03*
X426063D02*
D03*
X436063D02*
D03*
X446063D02*
D03*
X456063D02*
D03*
X466063D02*
D03*
X38465Y134961D02*
D03*
Y124961D02*
D03*
Y114961D02*
D03*
Y104961D02*
D03*
Y94961D02*
D03*
Y84961D02*
D03*
Y74961D02*
D03*
Y64961D02*
D03*
Y54961D02*
D03*
Y44961D02*
D03*
Y34961D02*
D03*
Y24961D02*
D03*
Y14961D02*
D03*
Y4961D02*
D03*
Y-5039D02*
D03*
X326063Y162323D02*
D03*
X336063D02*
D03*
X346063D02*
D03*
X356063D02*
D03*
X366063D02*
D03*
X376063D02*
D03*
X386063D02*
D03*
X396063D02*
D03*
X406063D02*
D03*
X416063D02*
D03*
X426063D02*
D03*
X436063D02*
D03*
X446063D02*
D03*
X456063D02*
D03*
X466063D02*
D03*
X28465Y-5039D02*
D03*
Y4961D02*
D03*
Y14961D02*
D03*
Y24961D02*
D03*
Y34961D02*
D03*
Y44961D02*
D03*
Y54961D02*
D03*
Y64961D02*
D03*
Y74961D02*
D03*
Y84961D02*
D03*
Y94961D02*
D03*
Y104961D02*
D03*
Y114961D02*
D03*
Y124961D02*
D03*
Y134961D02*
D03*
D32*
X38465Y166417D02*
D03*
Y176417D02*
D03*
Y186417D02*
D03*
Y196417D02*
D03*
Y206417D02*
D03*
Y216417D02*
D03*
Y226417D02*
D03*
Y236417D02*
D03*
Y246417D02*
D03*
Y256417D02*
D03*
Y266417D02*
D03*
Y276417D02*
D03*
Y286417D02*
D03*
Y296417D02*
D03*
Y306417D02*
D03*
Y316417D02*
D03*
Y326417D02*
D03*
Y336417D02*
D03*
Y346417D02*
D03*
Y356417D02*
D03*
X428268Y50394D02*
D03*
X418268D02*
D03*
X408268D02*
D03*
X398268D02*
D03*
X388268D02*
D03*
X378268D02*
D03*
X368268D02*
D03*
X358268D02*
D03*
X348268D02*
D03*
X338268D02*
D03*
X328268D02*
D03*
X318268D02*
D03*
X308268D02*
D03*
X298268D02*
D03*
X288268D02*
D03*
X278268D02*
D03*
X268268D02*
D03*
X258268D02*
D03*
X248268D02*
D03*
X238268D02*
D03*
X294606Y172323D02*
D03*
X284606D02*
D03*
X274606D02*
D03*
X264606D02*
D03*
X254606D02*
D03*
X244606D02*
D03*
X234606D02*
D03*
X224606D02*
D03*
X214606D02*
D03*
X204606D02*
D03*
X194606D02*
D03*
X184606D02*
D03*
X174606D02*
D03*
X164606D02*
D03*
X154606D02*
D03*
X144606D02*
D03*
X134606D02*
D03*
X124606D02*
D03*
X114606D02*
D03*
X104606D02*
D03*
X418268Y40394D02*
D03*
X408268D02*
D03*
X398268D02*
D03*
X388268D02*
D03*
X378268D02*
D03*
X368268D02*
D03*
X358268D02*
D03*
X348268D02*
D03*
X338268D02*
D03*
X328268D02*
D03*
X318268D02*
D03*
X308268D02*
D03*
X298268D02*
D03*
X288268D02*
D03*
X278268D02*
D03*
X268268D02*
D03*
X258268D02*
D03*
X248268D02*
D03*
X238268D02*
D03*
X284606Y162323D02*
D03*
X274606D02*
D03*
X264606D02*
D03*
X254606D02*
D03*
X244606D02*
D03*
X234606D02*
D03*
X224606D02*
D03*
X214606D02*
D03*
X204606D02*
D03*
X194606D02*
D03*
X184606D02*
D03*
X174606D02*
D03*
X164606D02*
D03*
X154606D02*
D03*
X144606D02*
D03*
X134606D02*
D03*
X124606D02*
D03*
X114606D02*
D03*
X104606D02*
D03*
X28465Y356417D02*
D03*
Y346417D02*
D03*
Y336417D02*
D03*
Y326417D02*
D03*
Y316417D02*
D03*
Y306417D02*
D03*
Y296417D02*
D03*
Y286417D02*
D03*
Y276417D02*
D03*
Y266417D02*
D03*
Y256417D02*
D03*
Y246417D02*
D03*
Y236417D02*
D03*
Y226417D02*
D03*
Y216417D02*
D03*
Y206417D02*
D03*
Y196417D02*
D03*
Y186417D02*
D03*
Y176417D02*
D03*
D33*
X428268Y40394D02*
D03*
X294606Y162323D02*
D03*
D34*
X28465Y166417D02*
D03*
D35*
X164173Y332953D02*
D03*
Y322953D02*
D03*
D36*
X316535Y364173D02*
D03*
X116535D02*
D03*
X521654Y25984D02*
D03*
Y273228D02*
D03*
X351969Y1969D02*
D03*
X104724D02*
D03*
D37*
X511811Y354331D02*
D03*
X0D02*
D03*
X511811Y0D02*
D03*
X0D02*
D03*
D55*
X508268Y155905D02*
D03*
Y77165D02*
D03*
Y61417D02*
D03*
X523228Y74016D02*
D03*
X508268Y225197D02*
D03*
X523228D02*
D03*
X508268Y215748D02*
D03*
X523228D02*
D03*
X508268Y206299D02*
D03*
X523228D02*
D03*
X508268Y196850D02*
D03*
X523228D02*
D03*
X508268Y187402D02*
D03*
X523228D02*
D03*
X508268Y177953D02*
D03*
X523228D02*
D03*
X508268Y168504D02*
D03*
X523228D02*
D03*
X508268Y159055D02*
D03*
X523228D02*
D03*
X508268Y149606D02*
D03*
X523228D02*
D03*
X508268Y130709D02*
D03*
X523228D02*
D03*
X508268Y114961D02*
D03*
X523228D02*
D03*
X508268Y99213D02*
D03*
X523228D02*
D03*
X508268Y83465D02*
D03*
X523228D02*
D03*
X508268Y67716D02*
D03*
X523228D02*
D03*
X508268Y51968D02*
D03*
X523228D02*
D03*
X508268Y33071D02*
D03*
X523228D02*
D03*
Y64567D02*
D03*
X508268Y58268D02*
D03*
Y55118D02*
D03*
X523228Y70866D02*
D03*
X508268Y80315D02*
D03*
X523228Y61417D02*
D03*
X508268Y64567D02*
D03*
X523228Y58268D02*
D03*
Y55118D02*
D03*
X508268Y42520D02*
D03*
X523228Y96063D02*
D03*
Y92913D02*
D03*
Y48819D02*
D03*
X508268Y86614D02*
D03*
X523228Y45669D02*
D03*
Y89764D02*
D03*
X508268Y96063D02*
D03*
Y39370D02*
D03*
X523228Y105512D02*
D03*
Y42520D02*
D03*
X508268Y48819D02*
D03*
Y92913D02*
D03*
Y89764D02*
D03*
Y45669D02*
D03*
X523228Y108661D02*
D03*
Y127559D02*
D03*
X508268Y102362D02*
D03*
X523228Y124409D02*
D03*
X508268Y111811D02*
D03*
Y118110D02*
D03*
X523228Y121260D02*
D03*
X508268Y127559D02*
D03*
Y108661D02*
D03*
Y105512D02*
D03*
Y124409D02*
D03*
Y121260D02*
D03*
X523228Y111811D02*
D03*
Y190551D02*
D03*
Y193701D02*
D03*
X508268Y171653D02*
D03*
Y174803D02*
D03*
Y152756D02*
D03*
Y218898D02*
D03*
X523228Y222047D02*
D03*
Y209449D02*
D03*
X508268Y190551D02*
D03*
Y193701D02*
D03*
X523228Y165354D02*
D03*
X508268Y222047D02*
D03*
X523228Y181102D02*
D03*
Y184252D02*
D03*
X508268Y165354D02*
D03*
Y209449D02*
D03*
X523228Y212598D02*
D03*
Y162205D02*
D03*
Y200000D02*
D03*
X508268Y181102D02*
D03*
Y184252D02*
D03*
Y162205D02*
D03*
X523228Y155905D02*
D03*
Y174803D02*
D03*
X508268Y212598D02*
D03*
X523228Y218898D02*
D03*
X508268Y200000D02*
D03*
Y203150D02*
D03*
X523228D02*
D03*
Y171653D02*
D03*
Y152756D02*
D03*
X508268Y266142D02*
D03*
X523228D02*
D03*
X508268Y256693D02*
D03*
X523228D02*
D03*
X508268Y247244D02*
D03*
X523228D02*
D03*
X508268Y237795D02*
D03*
X523228D02*
D03*
X508268Y228346D02*
D03*
X523228D02*
D03*
X508268Y234646D02*
D03*
X523228Y36220D02*
D03*
X508268D02*
D03*
X523228Y39370D02*
D03*
X508268Y70866D02*
D03*
Y74016D02*
D03*
X523228Y77165D02*
D03*
Y80315D02*
D03*
Y86614D02*
D03*
Y102362D02*
D03*
Y118110D02*
D03*
Y133858D02*
D03*
X508268D02*
D03*
X523228Y137008D02*
D03*
X508268D02*
D03*
X523228Y140157D02*
D03*
X508268D02*
D03*
X523228Y143307D02*
D03*
X508268D02*
D03*
X523228Y146457D02*
D03*
X508268D02*
D03*
X523228Y231496D02*
D03*
X508268D02*
D03*
X523228Y234646D02*
D03*
Y240945D02*
D03*
X508268D02*
D03*
X523228Y244094D02*
D03*
X508268D02*
D03*
X523228Y250394D02*
D03*
X508268D02*
D03*
X523228Y253543D02*
D03*
X508268D02*
D03*
X523228Y259842D02*
D03*
X508268D02*
D03*
X523228Y262992D02*
D03*
X508268D02*
D03*
D56*
X151850Y300000D02*
D03*
X145787D02*
D03*
D57*
X148819Y277165D02*
D03*
Y271654D02*
D03*
D58*
X151181Y294882D02*
D03*
X143701Y285433D02*
D03*
X151181D02*
D03*
X143701Y294882D02*
D03*
X147441Y285433D02*
D03*
D59*
X231496Y-11417D02*
D03*
X111811D02*
D03*
Y3543D02*
D03*
X130709Y-11417D02*
D03*
Y3543D02*
D03*
X140157Y-11417D02*
D03*
Y3543D02*
D03*
X149606Y-11417D02*
D03*
Y3543D02*
D03*
X159055Y-11417D02*
D03*
Y3543D02*
D03*
X168504Y-11417D02*
D03*
Y3543D02*
D03*
X177953Y-11417D02*
D03*
Y3543D02*
D03*
X187402Y-11417D02*
D03*
Y3543D02*
D03*
X196850Y-11417D02*
D03*
Y3543D02*
D03*
X206299Y-11417D02*
D03*
Y3543D02*
D03*
X215748Y-11417D02*
D03*
Y3543D02*
D03*
X225197Y-11417D02*
D03*
Y3543D02*
D03*
X234646Y-11417D02*
D03*
Y3543D02*
D03*
X244094Y-11417D02*
D03*
Y3543D02*
D03*
X253543Y-11417D02*
D03*
Y3543D02*
D03*
X262992Y-11417D02*
D03*
Y3543D02*
D03*
X272441Y-11417D02*
D03*
Y3543D02*
D03*
X281890Y-11417D02*
D03*
Y3543D02*
D03*
X291339Y-11417D02*
D03*
Y3543D02*
D03*
X300787Y-11417D02*
D03*
Y3543D02*
D03*
X310236Y-11417D02*
D03*
Y3543D02*
D03*
X316535Y-11417D02*
D03*
Y3543D02*
D03*
X325984Y-11417D02*
D03*
Y3543D02*
D03*
X335433Y-11417D02*
D03*
Y3543D02*
D03*
X341732D02*
D03*
X344882Y-11417D02*
D03*
Y3543D02*
D03*
X228346Y-11417D02*
D03*
Y3543D02*
D03*
X231496D02*
D03*
X165354D02*
D03*
X193701Y-11417D02*
D03*
X184252D02*
D03*
X181102Y3543D02*
D03*
X190551Y-11417D02*
D03*
X181102D02*
D03*
X190551Y3543D02*
D03*
X174803Y-11417D02*
D03*
X184252Y3543D02*
D03*
X193701D02*
D03*
X162205D02*
D03*
X171653Y-11417D02*
D03*
Y3543D02*
D03*
X200000Y-11417D02*
D03*
X203150Y3543D02*
D03*
X212598D02*
D03*
X222047Y-11417D02*
D03*
X218898Y3543D02*
D03*
Y-11417D02*
D03*
X212598D02*
D03*
X200000Y3543D02*
D03*
X209449Y-11417D02*
D03*
Y3543D02*
D03*
X155905D02*
D03*
X165354Y-11417D02*
D03*
X133858D02*
D03*
X162205D02*
D03*
X133858Y3543D02*
D03*
X143307D02*
D03*
X137008D02*
D03*
X146457Y-11417D02*
D03*
X152756D02*
D03*
X143307D02*
D03*
X152756Y3543D02*
D03*
X137008Y-11417D02*
D03*
X146457Y3543D02*
D03*
X341732Y-11417D02*
D03*
X338583Y3543D02*
D03*
Y-11417D02*
D03*
X332283Y3543D02*
D03*
Y-11417D02*
D03*
X329134Y3543D02*
D03*
Y-11417D02*
D03*
X322835Y3543D02*
D03*
Y-11417D02*
D03*
X319685Y3543D02*
D03*
Y-11417D02*
D03*
X313386Y3543D02*
D03*
Y-11417D02*
D03*
X307087Y3543D02*
D03*
Y-11417D02*
D03*
X303937Y3543D02*
D03*
Y-11417D02*
D03*
X297638Y3543D02*
D03*
Y-11417D02*
D03*
X294488Y3543D02*
D03*
Y-11417D02*
D03*
X288189Y3543D02*
D03*
Y-11417D02*
D03*
X285039Y3543D02*
D03*
Y-11417D02*
D03*
X278740Y3543D02*
D03*
Y-11417D02*
D03*
X275590Y3543D02*
D03*
Y-11417D02*
D03*
X269291Y3543D02*
D03*
Y-11417D02*
D03*
X266142Y3543D02*
D03*
Y-11417D02*
D03*
X259842Y3543D02*
D03*
Y-11417D02*
D03*
X256693Y3543D02*
D03*
Y-11417D02*
D03*
X250394Y3543D02*
D03*
Y-11417D02*
D03*
X247244Y3543D02*
D03*
Y-11417D02*
D03*
X240945Y3543D02*
D03*
Y-11417D02*
D03*
X237795Y3543D02*
D03*
Y-11417D02*
D03*
X222047Y3543D02*
D03*
X203150Y-11417D02*
D03*
X174803Y3543D02*
D03*
X155905Y-11417D02*
D03*
X127559Y3543D02*
D03*
Y-11417D02*
D03*
X124409Y3543D02*
D03*
Y-11417D02*
D03*
X121260Y3543D02*
D03*
Y-11417D02*
D03*
X118110Y3543D02*
D03*
Y-11417D02*
D03*
X114961Y3543D02*
D03*
Y-11417D02*
D03*
D60*
X123622Y365748D02*
D03*
Y350787D02*
D03*
X133071Y365748D02*
D03*
X139370D02*
D03*
X142520D02*
D03*
X148819D02*
D03*
X155118D02*
D03*
X161417D02*
D03*
X177165D02*
D03*
X186614D02*
D03*
X199213D02*
D03*
X214961D02*
D03*
X224410D02*
D03*
X233858D02*
D03*
X243307D02*
D03*
X252756D02*
D03*
X268504D02*
D03*
X284252D02*
D03*
X309449D02*
D03*
X133071Y350787D02*
D03*
X139370D02*
D03*
X142520D02*
D03*
X148819D02*
D03*
X155118D02*
D03*
X161417D02*
D03*
X177165D02*
D03*
X186614D02*
D03*
X199213D02*
D03*
X214961D02*
D03*
X224410D02*
D03*
X233858D02*
D03*
X243307D02*
D03*
X252756D02*
D03*
X255906D02*
D03*
X268504D02*
D03*
X284252D02*
D03*
X300000D02*
D03*
X309449D02*
D03*
X151969Y365748D02*
D03*
Y350787D02*
D03*
X306299D02*
D03*
X303150D02*
D03*
X296850D02*
D03*
X293701D02*
D03*
X290551D02*
D03*
X287402D02*
D03*
X281102D02*
D03*
X277953D02*
D03*
X274803D02*
D03*
X271654D02*
D03*
X265354D02*
D03*
X262205D02*
D03*
X259055D02*
D03*
X249606D02*
D03*
X246457D02*
D03*
X240158D02*
D03*
X237008D02*
D03*
X230709D02*
D03*
X227559D02*
D03*
X221260D02*
D03*
X218110D02*
D03*
X211811D02*
D03*
X208661D02*
D03*
X205512D02*
D03*
X202362D02*
D03*
X196063D02*
D03*
X192913D02*
D03*
X189764D02*
D03*
X183465D02*
D03*
X180315D02*
D03*
X174016D02*
D03*
X170866D02*
D03*
X167717D02*
D03*
X164567D02*
D03*
X158268D02*
D03*
X145669D02*
D03*
X136221D02*
D03*
X129921D02*
D03*
X126772D02*
D03*
X306299Y365748D02*
D03*
X303150D02*
D03*
X300000D02*
D03*
X296850D02*
D03*
X293701D02*
D03*
X290551D02*
D03*
X287402D02*
D03*
X281102D02*
D03*
X277953D02*
D03*
X274803D02*
D03*
X271654D02*
D03*
X265354D02*
D03*
X262205D02*
D03*
X259055D02*
D03*
X255906D02*
D03*
X249606D02*
D03*
X246457D02*
D03*
X240158D02*
D03*
X237008D02*
D03*
X230709D02*
D03*
X227559D02*
D03*
X221260D02*
D03*
X218110D02*
D03*
X211811D02*
D03*
X208661D02*
D03*
X205512D02*
D03*
X202362D02*
D03*
X196063D02*
D03*
X192913D02*
D03*
X189764D02*
D03*
X183465D02*
D03*
X180315D02*
D03*
X174016D02*
D03*
X170866D02*
D03*
X164567D02*
D03*
X158268D02*
D03*
X145669D02*
D03*
X136221D02*
D03*
X129921D02*
D03*
X126772D02*
D03*
X167717D02*
D03*
M02*
