G04*
G04 #@! TF.GenerationSoftware,Altium Limited,Altium Designer,26.5.0 (11)*
G04*
G04 Layer_Color=65535*
G04 Board_Origin=11968504|11968504*
%FSLAX25Y25*%
%MOIN*%
G70*
G04*
G04 #@! TF.SameCoordinates,E0E41B1B-5716-4650-BC9E-1E0D2F5229BA*
G04*
G04*
G04 #@! TF.FilePolarity,Positive*
G04*
G01*
G75*
%ADD10C,0.01968*%
%ADD11C,0.00787*%
%ADD12C,0.00500*%
%ADD13C,0.00984*%
%ADD14C,0.01000*%
%ADD15C,0.00197*%
%ADD16C,0.00591*%
G36*
X124014Y218374D02*
X124998Y220078D01*
X123030D01*
X124014Y218374D01*
D02*
G37*
G36*
X132282Y218374D02*
X133266Y220078D01*
X131297D01*
X132282Y218374D01*
D02*
G37*
G36*
X167717Y208138D02*
X168701Y209842D01*
X166732D01*
X167717Y208138D01*
D02*
G37*
G36*
X153935Y232547D02*
X154920Y234252D01*
X152951D01*
X153935Y232547D01*
D02*
G37*
D10*
X84595Y201457D02*
X83807D01*
X84595D01*
X443661Y83925D02*
X442874D01*
X443661D01*
X481457Y152823D02*
X480669D01*
X481457D01*
X19358Y-20039D02*
X18571D01*
X19358D01*
D11*
X439661Y40394D02*
X438874D01*
X439661D01*
X306000Y162323D02*
X305213D01*
X306000D01*
X28858Y155417D02*
X28071D01*
X28858D01*
X436260Y30925D02*
Y59862D01*
X434010D02*
X436260D01*
X434010Y57894D02*
Y59862D01*
X338268Y57894D02*
X434010D01*
X338268D02*
Y61910D01*
X328268D02*
X338268D01*
X328268Y57894D02*
Y61910D01*
X232526Y57894D02*
X328268D01*
X232526D02*
Y59862D01*
X230276D02*
X232526D01*
X230276Y30925D02*
Y59862D01*
Y30925D02*
X232526D01*
Y32894D01*
X325768D01*
Y30925D02*
Y32894D01*
Y30925D02*
X340768D01*
Y32894D01*
X434010D01*
Y30925D02*
Y32894D01*
Y30925D02*
X436260D01*
X302598Y152854D02*
Y181791D01*
X300348D02*
X302598D01*
X300348Y179823D02*
Y181791D01*
X204606Y179823D02*
X300348D01*
X204606D02*
Y183839D01*
X194606D02*
X204606D01*
X194606Y179823D02*
Y183839D01*
X98864Y179823D02*
X194606D01*
X98864D02*
Y181791D01*
X96614D02*
X98864D01*
X96614Y152854D02*
Y181791D01*
Y152854D02*
X98864D01*
Y154823D01*
X192106D01*
Y152854D02*
Y154823D01*
Y152854D02*
X207106D01*
Y154823D01*
X300348D01*
Y152854D02*
Y154823D01*
Y152854D02*
X302598D01*
X18996Y158425D02*
Y160675D01*
X20965D01*
Y253917D01*
X18996D02*
X20965D01*
X18996D02*
Y268917D01*
X20965D01*
Y362159D01*
X18996D02*
X20965D01*
X18996D02*
Y364409D01*
X47933D01*
Y362159D02*
Y364409D01*
X45965Y362159D02*
X47933D01*
X45965Y266417D02*
Y362159D01*
Y266417D02*
X49980D01*
Y256417D02*
Y266417D01*
X45965Y256417D02*
X49980D01*
X45965Y160675D02*
Y256417D01*
Y160675D02*
X47933D01*
Y158425D02*
Y160675D01*
X18996Y158425D02*
X47933D01*
X153345Y213937D02*
Y216535D01*
X150136Y213937D02*
X153345D01*
Y222834D02*
Y225433D01*
X150136D02*
X153345D01*
X505709Y322441D02*
X509646D01*
X505709Y329528D02*
X509646D01*
X498425Y338189D02*
Y339370D01*
X516535D01*
Y338189D02*
Y339370D01*
Y330709D02*
Y331890D01*
X498425Y330709D02*
X516535D01*
X498425D02*
Y331890D01*
X507480Y330709D02*
Y339370D01*
D12*
X164605Y203279D02*
X164716Y203305D01*
X150823Y227688D02*
X150935Y227714D01*
X129170Y213515D02*
X129282Y213541D01*
X120902Y213515D02*
X121014Y213541D01*
D13*
X144770Y227185D02*
X144043Y227604D01*
Y226765D01*
X144770Y227185D01*
D14*
X410433Y313405D02*
Y335275D01*
Y344922D02*
Y366909D01*
X345473Y313405D02*
Y335275D01*
Y344922D02*
Y366909D01*
X410433D01*
X345473Y313405D02*
X410433D01*
X328543Y305532D02*
Y327400D01*
Y337048D02*
Y359035D01*
X263583Y305532D02*
Y327400D01*
Y337048D02*
Y359035D01*
X328543D01*
X263583Y305532D02*
X328543D01*
X246654Y305532D02*
Y327400D01*
Y337048D02*
Y359035D01*
X181693Y305532D02*
Y327400D01*
Y337048D02*
Y359035D01*
X246654D01*
X181693Y305532D02*
X246654D01*
X236811Y231516D02*
Y253385D01*
Y263033D02*
Y285020D01*
X171850Y231516D02*
Y253385D01*
Y263033D02*
Y285020D01*
X236811D01*
X171850Y231516D02*
X236811D01*
X318701D02*
Y253385D01*
Y263033D02*
Y285020D01*
X253740Y231516D02*
Y253385D01*
Y263033D02*
Y285020D01*
X318701D01*
X253740Y231516D02*
X318701D01*
X400610D02*
Y253385D01*
Y263033D02*
Y285020D01*
X335650Y231516D02*
Y253385D01*
Y263033D02*
Y285020D01*
X400610D01*
X335650Y231516D02*
X400610D01*
X482480D02*
Y253385D01*
Y263033D02*
Y285020D01*
X417520Y231516D02*
Y253385D01*
Y263033D02*
Y285020D01*
X482480D01*
X417520Y231516D02*
X482480D01*
X492323Y313405D02*
Y335275D01*
Y344922D02*
Y366909D01*
X427362Y313405D02*
Y335275D01*
Y344922D02*
Y366909D01*
X492323D01*
X427362Y313405D02*
X492323D01*
X171173Y315953D02*
Y339953D01*
X157173Y315953D02*
X171173D01*
X157173D02*
Y339953D01*
X171173D01*
X148244Y204906D02*
Y202906D01*
Y203906D01*
X154242D01*
X153243Y204906D01*
X154242Y199907D02*
X150243D01*
X148244Y197908D01*
X150243Y195908D01*
X154242D01*
X153243Y193909D02*
X154242Y192909D01*
Y190910D01*
X153243Y189910D01*
X152243D01*
X151243Y190910D01*
X150243Y189910D01*
X149244D01*
X148244Y190910D01*
Y192909D01*
X149244Y193909D01*
X150243D01*
X151243Y192909D01*
X152243Y193909D01*
X153243D01*
X151243Y192909D02*
Y190910D01*
X131527Y299394D02*
X137525D01*
Y296395D01*
X136526Y295395D01*
X134526D01*
X133527Y296395D01*
Y299394D01*
Y297394D02*
X131527Y295395D01*
X136526Y289397D02*
X137525Y290397D01*
Y292396D01*
X136526Y293396D01*
X135526D01*
X134526Y292396D01*
Y290397D01*
X133527Y289397D01*
X132527D01*
X131527Y290397D01*
Y292396D01*
X132527Y293396D01*
X137525Y287398D02*
X133527D01*
X131527Y285398D01*
X133527Y283399D01*
X137525D01*
Y281399D02*
Y279400D01*
Y280400D01*
X131527D01*
Y281399D01*
Y279400D01*
Y276401D02*
X137525D01*
X131527Y272402D01*
X137525D01*
X130528Y270403D02*
Y266404D01*
X131527Y264405D02*
Y262406D01*
Y263405D01*
X137525D01*
X136526Y264405D01*
X131527Y255408D02*
Y259407D01*
X135526Y255408D01*
X136526D01*
X137525Y256408D01*
Y258407D01*
X136526Y259407D01*
X137525Y253409D02*
X133527D01*
X131527Y251409D01*
X133527Y249410D01*
X137525D01*
X160843Y195369D02*
X161842Y196368D01*
X163842D01*
X164841Y195369D01*
Y194369D01*
X163842Y193369D01*
X162842D01*
X163842D01*
X164841Y192369D01*
Y191370D01*
X163842Y190370D01*
X161842D01*
X160843Y191370D01*
X166841Y196368D02*
Y192369D01*
X168840Y190370D01*
X170839Y192369D01*
Y196368D01*
X172839Y195369D02*
X173838Y196368D01*
X175838D01*
X176837Y195369D01*
Y194369D01*
X175838Y193369D01*
X174838D01*
X175838D01*
X176837Y192369D01*
Y191370D01*
X175838Y190370D01*
X173838D01*
X172839Y191370D01*
X127289Y287189D02*
X123290D01*
X121291Y285190D01*
X123290Y283190D01*
X127289D01*
Y281191D02*
Y279191D01*
Y280191D01*
X121291D01*
Y281191D01*
Y279191D01*
Y276192D02*
X127289D01*
X121291Y272194D01*
X127289D01*
X120291Y270194D02*
Y266196D01*
X121291Y264196D02*
Y262197D01*
Y263197D01*
X127289D01*
X126289Y264196D01*
X121291Y255199D02*
Y259198D01*
X125290Y255199D01*
X126289D01*
X127289Y256199D01*
Y258198D01*
X126289Y259198D01*
X127289Y253200D02*
X123290D01*
X121291Y251201D01*
X123290Y249201D01*
X127289D01*
X210418Y300243D02*
X208418D01*
X209418D01*
Y295245D01*
X208418Y294245D01*
X207419D01*
X206419Y295245D01*
X212417Y299243D02*
X213417Y300243D01*
X215416D01*
X216416Y299243D01*
Y298244D01*
X215416Y297244D01*
X216416Y296244D01*
Y295245D01*
X215416Y294245D01*
X213417D01*
X212417Y295245D01*
Y296244D01*
X213417Y297244D01*
X212417Y298244D01*
Y299243D01*
X213417Y297244D02*
X215416D01*
X201756Y226621D02*
X199757D01*
X200757D01*
Y221623D01*
X199757Y220623D01*
X198757D01*
X197757Y221623D01*
X203756Y226621D02*
X207754D01*
Y225621D01*
X203756Y221623D01*
Y220623D01*
X294276Y301424D02*
X292277D01*
X293276D01*
Y296426D01*
X292277Y295426D01*
X291277D01*
X290277Y296426D01*
X300274Y301424D02*
X298275Y300425D01*
X296275Y298425D01*
Y296426D01*
X297275Y295426D01*
X299274D01*
X300274Y296426D01*
Y297426D01*
X299274Y298425D01*
X296275D01*
X285614Y227015D02*
X283615D01*
X284615D01*
Y222016D01*
X283615Y221017D01*
X282615D01*
X281616Y222016D01*
X291613Y227015D02*
X287614D01*
Y224016D01*
X289613Y225015D01*
X290613D01*
X291613Y224016D01*
Y222016D01*
X290613Y221017D01*
X288614D01*
X287614Y222016D01*
X376953Y308905D02*
X374954D01*
X375953D01*
Y303906D01*
X374954Y302906D01*
X373954D01*
X372954Y303906D01*
X381951Y302906D02*
Y308905D01*
X378952Y305906D01*
X382951D01*
X365930Y227802D02*
X363930D01*
X364930D01*
Y222804D01*
X363930Y221804D01*
X362930D01*
X361931Y222804D01*
X367929Y226802D02*
X368929Y227802D01*
X370928D01*
X371927Y226802D01*
Y225803D01*
X370928Y224803D01*
X369928D01*
X370928D01*
X371927Y223803D01*
Y222804D01*
X370928Y221804D01*
X368929D01*
X367929Y222804D01*
X451575Y227802D02*
X449576D01*
X450575D01*
Y222804D01*
X449576Y221804D01*
X448576D01*
X447576Y222804D01*
X453574Y221804D02*
X455574D01*
X454574D01*
Y227802D01*
X453574Y226802D01*
X2999Y272020D02*
X-2999Y268021D01*
X2999D02*
X-2999Y272020D01*
X1999Y266022D02*
X2999Y265022D01*
Y263023D01*
X1999Y262023D01*
X1000D01*
X0Y263023D01*
Y264023D01*
Y263023D01*
X-1000Y262023D01*
X-1999D01*
X-2999Y263023D01*
Y265022D01*
X-1999Y266022D01*
X0Y260024D02*
Y256025D01*
X-2999Y250027D02*
Y254026D01*
X1000Y250027D01*
X1999D01*
X2999Y251027D01*
Y253026D01*
X1999Y254026D01*
X68353Y291493D02*
X62355Y287494D01*
X68353D02*
X62355Y291493D01*
Y282496D02*
X68353D01*
X65354Y285495D01*
Y281496D01*
Y279497D02*
Y275498D01*
X62355Y273499D02*
Y271499D01*
Y272499D01*
X68353D01*
X67354Y273499D01*
X2999Y69052D02*
X-2999Y65053D01*
X2999D02*
X-2999Y69052D01*
X1999Y63054D02*
X2999Y62054D01*
Y60055D01*
X1999Y59055D01*
X1000D01*
X0Y60055D01*
Y61054D01*
Y60055D01*
X-1000Y59055D01*
X-1999D01*
X-2999Y60055D01*
Y62054D01*
X-1999Y63054D01*
X0Y57056D02*
Y53057D01*
X-2999Y51058D02*
Y49058D01*
Y50058D01*
X2999D01*
X1999Y51058D01*
X230215Y72013D02*
X234214Y66015D01*
Y72013D02*
X230215Y66015D01*
X240212D02*
X236213D01*
X240212Y70014D01*
Y71013D01*
X239212Y72013D01*
X237213D01*
X236213Y71013D01*
X242211Y69014D02*
X246210D01*
X252208Y66015D02*
X248209D01*
X252208Y70014D01*
Y71013D01*
X251208Y72013D01*
X249209D01*
X248209Y71013D01*
X189110Y195912D02*
X193108Y189914D01*
Y195912D02*
X189110Y189914D01*
X195108D02*
X197107D01*
X196107D01*
Y195912D01*
X195108Y194913D01*
X200106Y192913D02*
X204105D01*
X210103Y189914D02*
X206104D01*
X210103Y193913D01*
Y194913D01*
X209103Y195912D01*
X207104D01*
X206104Y194913D01*
X250239Y107723D02*
X254238Y101725D01*
Y107723D02*
X250239Y101725D01*
X260236D02*
X256238D01*
X260236Y105724D01*
Y106724D01*
X259237Y107723D01*
X257237D01*
X256238Y106724D01*
X262236Y104724D02*
X266234D01*
X268234Y101725D02*
X270233D01*
X269233D01*
Y107723D01*
X268234Y106724D01*
X392078Y195912D02*
X396077Y189914D01*
Y195912D02*
X392078Y189914D01*
X398076D02*
X400075D01*
X399076D01*
Y195912D01*
X398076Y194913D01*
X403074Y192913D02*
X407073D01*
X409072Y189914D02*
X411072D01*
X410072D01*
Y195912D01*
X409072Y194913D01*
X458449Y308905D02*
X456450D01*
X457449D01*
Y303906D01*
X456450Y302906D01*
X455450D01*
X454450Y303906D01*
X464447Y302906D02*
X460449D01*
X464447Y306905D01*
Y307905D01*
X463448Y308905D01*
X461448D01*
X460449Y307905D01*
D15*
X81701Y203740D02*
X117811D01*
Y369173D01*
X81701D02*
X117811D01*
X81701Y203740D02*
Y369173D01*
X275551Y81425D02*
X440984D01*
X275551D02*
Y117535D01*
X440984D01*
Y81425D02*
Y117535D01*
X313347Y150323D02*
X478780D01*
X313347D02*
Y186433D01*
X478780D01*
Y150323D02*
Y186433D01*
X16465Y-17756D02*
X52575D01*
Y147677D01*
X16465D02*
X52575D01*
X16465Y-17756D02*
Y147677D01*
D16*
X170291Y204543D02*
Y207480D01*
X169079Y203331D02*
X170291Y204543D01*
X166157Y203331D02*
X169079D01*
X165142Y204346D02*
Y207480D01*
Y204346D02*
X166157Y203331D01*
X170291Y210630D02*
Y214779D01*
X165142D02*
X170291D01*
X165142Y210630D02*
Y214779D01*
X168110Y221654D02*
X173622D01*
X168110Y216653D02*
X168866D01*
X168110D02*
Y226654D01*
X168866D01*
X172866D02*
X173622D01*
Y216653D02*
Y226654D01*
X172866Y216653D02*
X173622D01*
X161809Y221653D02*
X167321D01*
X161809Y216653D02*
X162565D01*
X161809D02*
Y226653D01*
X162565D01*
X166565D02*
X167321D01*
Y216653D02*
Y226653D01*
X166565Y216653D02*
X167321D01*
X156510Y228953D02*
Y231890D01*
X155297Y227740D02*
X156510Y228953D01*
X152376Y227740D02*
X155297D01*
X151360Y228756D02*
Y231890D01*
Y228756D02*
X152376Y227740D01*
X156510Y235039D02*
Y239189D01*
X151360D02*
X156510D01*
X151360Y235039D02*
Y239189D01*
X151179Y246063D02*
X156691D01*
X151179Y241063D02*
X151935D01*
X151179D02*
Y251063D01*
X151935D01*
X155935D02*
X156691D01*
Y241063D02*
Y251063D01*
X155935Y241063D02*
X156691D01*
X137400Y226378D02*
X142912D01*
X137400Y221378D02*
X138156D01*
X137400D02*
Y231378D01*
X138156D01*
X142156D02*
X142912D01*
Y221378D02*
Y231378D01*
X142156Y221378D02*
X142912D01*
X129526Y231890D02*
X135038D01*
X129526Y226890D02*
X130282D01*
X129526D02*
Y236890D01*
X130282D01*
X134282D02*
X135038D01*
Y226890D02*
Y236890D01*
X134282Y226890D02*
X135038D01*
X121258Y231890D02*
X126770D01*
X121258Y226890D02*
X122014D01*
X121258D02*
Y236890D01*
X122014D01*
X126014D02*
X126770D01*
Y226890D02*
Y236890D01*
X126014Y226890D02*
X126770D01*
X134856Y214779D02*
Y217716D01*
X133644Y213567D02*
X134856Y214779D01*
X130723Y213567D02*
X133644D01*
X129707Y214582D02*
Y217716D01*
Y214582D02*
X130723Y213567D01*
X134856Y220866D02*
Y225015D01*
X129707D02*
X134856D01*
X129707Y220866D02*
Y225015D01*
X126589Y214779D02*
Y217716D01*
X125376Y213567D02*
X126589Y214779D01*
X122455Y213567D02*
X125376D01*
X121439Y214582D02*
Y217716D01*
Y214582D02*
X122455Y213567D01*
X126589Y220866D02*
Y225015D01*
X121439D02*
X126589D01*
X121439Y220866D02*
Y225015D01*
X157215Y345770D02*
X159052Y343015D01*
Y345770D02*
X157215Y343015D01*
X159970D02*
X160888D01*
X160429D01*
Y345770D01*
X159970Y345311D01*
X137860Y232481D02*
Y235236D01*
X139237D01*
X139697Y234776D01*
Y233858D01*
X139237Y233399D01*
X137860D01*
X138778D02*
X139697Y232481D01*
X142452Y235236D02*
X141533Y234776D01*
X140615Y233858D01*
Y232940D01*
X141074Y232481D01*
X141992D01*
X142452Y232940D01*
Y233399D01*
X141992Y233858D01*
X140615D01*
X151639Y252166D02*
Y254921D01*
X153017D01*
X153476Y254461D01*
Y253543D01*
X153017Y253084D01*
X151639D01*
X152558D02*
X153476Y252166D01*
X156231Y254921D02*
X154394D01*
Y253543D01*
X155313Y254002D01*
X155772D01*
X156231Y253543D01*
Y252625D01*
X155772Y252166D01*
X154853D01*
X154394Y252625D01*
X518177Y333662D02*
Y336417D01*
X519554D01*
X520013Y335958D01*
Y335039D01*
X519554Y334580D01*
X518177D01*
X519095D02*
X520013Y333662D01*
X520932Y336417D02*
X522768D01*
Y335958D01*
X520932Y334121D01*
Y333662D01*
X175263Y220276D02*
Y223031D01*
X176641D01*
X177100Y222572D01*
Y221654D01*
X176641Y221194D01*
X175263D01*
X176181D02*
X177100Y220276D01*
X179396D02*
Y223031D01*
X178018Y221654D01*
X179855D01*
X162271Y227756D02*
Y230511D01*
X163649D01*
X164108Y230052D01*
Y229134D01*
X163649Y228675D01*
X162271D01*
X163189D02*
X164108Y227756D01*
X165026Y230052D02*
X165485Y230511D01*
X166404D01*
X166863Y230052D01*
Y229593D01*
X166404Y229134D01*
X165944D01*
X166404D01*
X166863Y228675D01*
Y228216D01*
X166404Y227756D01*
X165485D01*
X165026Y228216D01*
X129986Y237992D02*
Y240747D01*
X131363D01*
X131823Y240288D01*
Y239370D01*
X131363Y238911D01*
X129986D01*
X130904D02*
X131823Y237992D01*
X134578D02*
X132741D01*
X134578Y239829D01*
Y240288D01*
X134118Y240747D01*
X133200D01*
X132741Y240288D01*
X122177Y237992D02*
Y240747D01*
X123555D01*
X124014Y240288D01*
Y239370D01*
X123555Y238911D01*
X122177D01*
X123096D02*
X124014Y237992D01*
X124932D02*
X125851D01*
X125391D01*
Y240747D01*
X124932Y240288D01*
X147638Y229790D02*
Y231627D01*
X147179Y232086D01*
X146260D01*
X145801Y231627D01*
Y229790D01*
X146260Y229331D01*
X147179D01*
X146720Y230250D02*
X147638Y229331D01*
X147179D02*
X147638Y229790D01*
X148556Y229331D02*
X149475D01*
X149015D01*
Y232086D01*
X148556Y231627D01*
X144948Y239173D02*
Y236418D01*
X146326D01*
X146785Y236877D01*
Y238714D01*
X146326Y239173D01*
X144948D01*
X149081Y236418D02*
Y239173D01*
X147703Y237795D01*
X149540D01*
X165421Y201378D02*
Y198623D01*
X166798D01*
X167257Y199082D01*
Y200918D01*
X166798Y201378D01*
X165421D01*
X168176Y200918D02*
X168635Y201378D01*
X169553D01*
X170012Y200918D01*
Y200459D01*
X169553Y200000D01*
X169094D01*
X169553D01*
X170012Y199541D01*
Y199082D01*
X169553Y198623D01*
X168635D01*
X168176Y199082D01*
X129986Y211220D02*
Y208465D01*
X131363D01*
X131823Y208924D01*
Y210761D01*
X131363Y211220D01*
X129986D01*
X134578Y208465D02*
X132741D01*
X134578Y210301D01*
Y210761D01*
X134118Y211220D01*
X133200D01*
X132741Y210761D01*
X122177Y211220D02*
Y208465D01*
X123555D01*
X124014Y208924D01*
Y210761D01*
X123555Y211220D01*
X122177D01*
X124932Y208465D02*
X125851D01*
X125391D01*
Y211220D01*
X124932Y210761D01*
X519685Y326903D02*
X519226Y327362D01*
X518307D01*
X517848Y326903D01*
Y325066D01*
X518307Y324607D01*
X519226D01*
X519685Y325066D01*
X520603Y324607D02*
X521522D01*
X521063D01*
Y327362D01*
X520603Y326903D01*
M02*
