G04*
G04 #@! TF.GenerationSoftware,Altium Limited,Altium Designer,26.5.0 (11)*
G04*
G04 Layer_Color=32896*
G04 Board_Origin=11968504|11968504*
%FSLAX25Y25*%
%MOIN*%
G70*
G04*
G04 #@! TF.SameCoordinates,284BC963-848F-4FEE-B34B-EF5383F167F7*
G04*
G04*
G04 #@! TF.FilePolarity,Positive*
G04*
G01*
G75*
%ADD13C,0.01000*%
%ADD14C,0.00787*%
G36*
X499537Y136647D02*
X489107D01*
Y142093D01*
X499537D01*
Y136647D01*
D02*
G37*
G36*
X496807Y246883D02*
X489107D01*
Y252329D01*
X496807D01*
Y246883D01*
D02*
G37*
G36*
X496884Y292588D02*
X489106D01*
Y297963D01*
X496884D01*
Y292588D01*
D02*
G37*
G36*
X496917Y266568D02*
X489106D01*
Y272014D01*
X496917D01*
Y266568D01*
D02*
G37*
G36*
X496692Y194915D02*
X489107D01*
Y200361D01*
X496692D01*
Y194915D01*
D02*
G37*
G36*
X496681Y220899D02*
X489108D01*
Y226345D01*
X496681D01*
Y220899D01*
D02*
G37*
G36*
X499427Y168931D02*
X489107D01*
Y174376D01*
X499427D01*
Y168931D01*
D02*
G37*
G36*
Y116962D02*
X489107D01*
Y122408D01*
X499427D01*
Y116962D01*
D02*
G37*
G36*
X15690Y247717D02*
X14866D01*
X13523Y251496D01*
X14336D01*
X15259Y248700D01*
X16220Y251496D01*
X17044D01*
X15690Y247717D01*
D02*
G37*
G36*
X9335Y249475D02*
Y249361D01*
X9329Y249251D01*
Y249148D01*
X9324Y249055D01*
X9318Y248968D01*
X9313Y248891D01*
X9307Y248820D01*
X9296Y248755D01*
X9291Y248700D01*
X9286Y248651D01*
X9280Y248607D01*
X9275Y248574D01*
X9269Y248547D01*
Y248531D01*
X9264Y248520D01*
Y248514D01*
X9236Y248432D01*
X9209Y248356D01*
X9171Y248285D01*
X9138Y248225D01*
X9105Y248170D01*
X9078Y248127D01*
X9056Y248105D01*
X9051Y248094D01*
X8985Y248023D01*
X8914Y247957D01*
X8838Y247903D01*
X8767Y247854D01*
X8707Y247815D01*
X8652Y247788D01*
X8619Y247772D01*
X8614Y247766D01*
X8609D01*
X8554Y247744D01*
X8494Y247728D01*
X8357Y247695D01*
X8221Y247674D01*
X8090Y247662D01*
X8030Y247657D01*
X7970Y247652D01*
X7921D01*
X7871Y247646D01*
X7784D01*
X7626Y247652D01*
X7484Y247662D01*
X7358Y247684D01*
X7254Y247706D01*
X7211Y247712D01*
X7167Y247723D01*
X7134Y247733D01*
X7107Y247744D01*
X7085Y247750D01*
X7069Y247755D01*
X7063Y247761D01*
X7058D01*
X6960Y247804D01*
X6872Y247859D01*
X6796Y247908D01*
X6730Y247957D01*
X6681Y248001D01*
X6643Y248034D01*
X6621Y248056D01*
X6616Y248067D01*
X6556Y248143D01*
X6506Y248225D01*
X6468Y248301D01*
X6436Y248378D01*
X6414Y248443D01*
X6397Y248498D01*
X6392Y248514D01*
Y248531D01*
X6386Y248536D01*
Y248542D01*
X6375Y248602D01*
X6364Y248667D01*
X6354Y248738D01*
X6348Y248809D01*
X6337Y248973D01*
X6326Y249131D01*
Y249202D01*
Y249273D01*
X6321Y249339D01*
Y249393D01*
Y249437D01*
Y249475D01*
Y249497D01*
Y249503D01*
Y251496D01*
X7085D01*
Y249399D01*
Y249317D01*
Y249240D01*
X7091Y249169D01*
Y249104D01*
X7096Y249049D01*
Y248995D01*
X7102Y248946D01*
Y248902D01*
X7113Y248836D01*
X7118Y248787D01*
X7123Y248760D01*
Y248749D01*
X7140Y248678D01*
X7167Y248618D01*
X7200Y248563D01*
X7233Y248514D01*
X7265Y248476D01*
X7293Y248449D01*
X7315Y248432D01*
X7320Y248427D01*
X7385Y248383D01*
X7467Y248351D01*
X7544Y248329D01*
X7626Y248312D01*
X7697Y248301D01*
X7751Y248296D01*
X7806D01*
X7921Y248301D01*
X8019Y248318D01*
X8106Y248340D01*
X8183Y248367D01*
X8237Y248389D01*
X8281Y248411D01*
X8303Y248427D01*
X8314Y248432D01*
X8374Y248487D01*
X8423Y248552D01*
X8467Y248613D01*
X8494Y248673D01*
X8516Y248727D01*
X8532Y248771D01*
X8543Y248798D01*
Y248809D01*
X8548Y248842D01*
X8554Y248875D01*
Y248918D01*
X8559Y248968D01*
X8565Y249071D01*
Y249180D01*
X8570Y249279D01*
Y249322D01*
Y249366D01*
Y249399D01*
Y249421D01*
Y249437D01*
Y249443D01*
Y251496D01*
X9335D01*
Y249475D01*
D02*
G37*
G36*
X13135Y247717D02*
X11497D01*
X11404Y247723D01*
X11240D01*
X11175Y247728D01*
X11071D01*
X11033Y247733D01*
X10978D01*
X10956Y247739D01*
X10934D01*
X10825Y247755D01*
X10727Y247783D01*
X10640Y247810D01*
X10563Y247843D01*
X10503Y247870D01*
X10459Y247897D01*
X10432Y247914D01*
X10421Y247919D01*
X10345Y247979D01*
X10285Y248045D01*
X10225Y248105D01*
X10181Y248170D01*
X10143Y248225D01*
X10115Y248269D01*
X10099Y248296D01*
X10094Y248307D01*
X10056Y248400D01*
X10023Y248487D01*
X10001Y248574D01*
X9990Y248651D01*
X9979Y248716D01*
X9974Y248765D01*
Y248798D01*
Y248804D01*
Y248809D01*
X9979Y248929D01*
X10001Y249039D01*
X10034Y249131D01*
X10066Y249219D01*
X10099Y249284D01*
X10132Y249333D01*
X10154Y249366D01*
X10159Y249377D01*
X10236Y249464D01*
X10317Y249535D01*
X10410Y249595D01*
X10492Y249639D01*
X10569Y249677D01*
X10634Y249705D01*
X10656Y249710D01*
X10672Y249715D01*
X10683Y249721D01*
X10689D01*
X10601Y249770D01*
X10525Y249819D01*
X10459Y249879D01*
X10405Y249928D01*
X10367Y249978D01*
X10334Y250016D01*
X10312Y250043D01*
X10307Y250054D01*
X10257Y250141D01*
X10219Y250223D01*
X10197Y250305D01*
X10176Y250382D01*
X10165Y250447D01*
X10159Y250496D01*
Y250529D01*
Y250535D01*
Y250540D01*
X10165Y250627D01*
X10176Y250715D01*
X10197Y250786D01*
X10219Y250851D01*
X10241Y250906D01*
X10263Y250950D01*
X10274Y250971D01*
X10279Y250982D01*
X10323Y251053D01*
X10372Y251113D01*
X10421Y251168D01*
X10465Y251217D01*
X10509Y251250D01*
X10541Y251277D01*
X10563Y251293D01*
X10569Y251299D01*
X10634Y251343D01*
X10705Y251375D01*
X10771Y251403D01*
X10831Y251425D01*
X10885Y251441D01*
X10924Y251452D01*
X10951Y251457D01*
X10962D01*
X11055Y251468D01*
X11158Y251479D01*
X11268Y251484D01*
X11377Y251490D01*
X11475Y251496D01*
X13135D01*
Y247717D01*
D02*
G37*
G36*
X4355Y251561D02*
X4497Y251545D01*
X4623Y251523D01*
X4732Y251501D01*
X4781Y251484D01*
X4825Y251474D01*
X4857Y251463D01*
X4890Y251452D01*
X4912Y251441D01*
X4928Y251435D01*
X4939Y251430D01*
X4945D01*
X5054Y251375D01*
X5147Y251315D01*
X5229Y251250D01*
X5294Y251190D01*
X5349Y251135D01*
X5382Y251091D01*
X5409Y251059D01*
X5415Y251053D01*
Y251048D01*
X5469Y250955D01*
X5507Y250857D01*
X5535Y250764D01*
X5551Y250682D01*
X5562Y250611D01*
X5573Y250556D01*
Y250535D01*
Y250518D01*
Y250513D01*
Y250507D01*
X5567Y250425D01*
X5556Y250343D01*
X5540Y250272D01*
X5518Y250201D01*
X5464Y250070D01*
X5398Y249956D01*
X5371Y249907D01*
X5338Y249868D01*
X5311Y249830D01*
X5283Y249797D01*
X5262Y249776D01*
X5245Y249759D01*
X5234Y249748D01*
X5229Y249743D01*
X5180Y249705D01*
X5120Y249666D01*
X5060Y249628D01*
X4989Y249595D01*
X4852Y249530D01*
X4710Y249475D01*
X4639Y249453D01*
X4579Y249432D01*
X4519Y249415D01*
X4470Y249399D01*
X4432Y249388D01*
X4399Y249377D01*
X4377Y249372D01*
X4372D01*
X4284Y249350D01*
X4208Y249328D01*
X4137Y249311D01*
X4071Y249295D01*
X4017Y249279D01*
X3968Y249268D01*
X3924Y249251D01*
X3886Y249240D01*
X3853Y249235D01*
X3826Y249224D01*
X3787Y249213D01*
X3765Y249202D01*
X3760D01*
X3689Y249175D01*
X3635Y249148D01*
X3585Y249120D01*
X3547Y249093D01*
X3520Y249071D01*
X3503Y249055D01*
X3492Y249044D01*
X3487Y249039D01*
X3460Y249000D01*
X3438Y248962D01*
X3427Y248924D01*
X3416Y248891D01*
X3411Y248858D01*
X3405Y248831D01*
Y248815D01*
Y248809D01*
X3411Y248733D01*
X3432Y248667D01*
X3465Y248602D01*
X3498Y248547D01*
X3536Y248503D01*
X3563Y248471D01*
X3585Y248449D01*
X3596Y248443D01*
X3673Y248394D01*
X3760Y248356D01*
X3853Y248329D01*
X3940Y248312D01*
X4022Y248301D01*
X4088Y248290D01*
X4148D01*
X4273Y248296D01*
X4383Y248318D01*
X4475Y248345D01*
X4557Y248378D01*
X4623Y248411D01*
X4666Y248438D01*
X4694Y248460D01*
X4705Y248465D01*
X4776Y248542D01*
X4830Y248623D01*
X4879Y248716D01*
X4912Y248809D01*
X4939Y248891D01*
X4961Y248957D01*
X4967Y248978D01*
Y249000D01*
X4972Y249011D01*
Y249017D01*
X5715Y248946D01*
X5698Y248831D01*
X5677Y248722D01*
X5644Y248618D01*
X5616Y248525D01*
X5578Y248438D01*
X5540Y248356D01*
X5502Y248285D01*
X5464Y248219D01*
X5425Y248165D01*
X5387Y248116D01*
X5354Y248072D01*
X5322Y248034D01*
X5300Y248007D01*
X5278Y247990D01*
X5267Y247979D01*
X5262Y247974D01*
X5185Y247914D01*
X5103Y247865D01*
X5016Y247821D01*
X4923Y247783D01*
X4836Y247755D01*
X4743Y247728D01*
X4563Y247690D01*
X4481Y247674D01*
X4404Y247662D01*
X4339Y247657D01*
X4279Y247652D01*
X4230Y247646D01*
X4159D01*
X3984Y247652D01*
X3826Y247668D01*
X3684Y247690D01*
X3624Y247701D01*
X3563Y247717D01*
X3514Y247728D01*
X3471Y247739D01*
X3432Y247750D01*
X3400Y247761D01*
X3372Y247772D01*
X3356Y247777D01*
X3345Y247783D01*
X3340D01*
X3220Y247843D01*
X3121Y247908D01*
X3028Y247974D01*
X2957Y248045D01*
X2903Y248105D01*
X2859Y248159D01*
X2837Y248192D01*
X2826Y248198D01*
Y248203D01*
X2766Y248312D01*
X2717Y248416D01*
X2685Y248520D01*
X2663Y248618D01*
X2652Y248694D01*
X2646Y248733D01*
X2641Y248760D01*
Y248782D01*
Y248798D01*
Y248809D01*
Y248815D01*
X2646Y248946D01*
X2663Y249060D01*
X2690Y249164D01*
X2717Y249251D01*
X2744Y249322D01*
X2772Y249372D01*
X2788Y249404D01*
X2794Y249415D01*
X2854Y249503D01*
X2925Y249579D01*
X2996Y249644D01*
X3061Y249699D01*
X3121Y249743D01*
X3170Y249776D01*
X3203Y249797D01*
X3209Y249803D01*
X3214D01*
X3269Y249830D01*
X3323Y249857D01*
X3454Y249907D01*
X3591Y249950D01*
X3722Y249994D01*
X3782Y250010D01*
X3842Y250027D01*
X3897Y250043D01*
X3940Y250054D01*
X3979Y250065D01*
X4006Y250070D01*
X4028Y250076D01*
X4033D01*
X4131Y250103D01*
X4219Y250125D01*
X4301Y250147D01*
X4377Y250169D01*
X4437Y250190D01*
X4497Y250212D01*
X4546Y250234D01*
X4590Y250251D01*
X4628Y250267D01*
X4656Y250283D01*
X4683Y250294D01*
X4699Y250305D01*
X4727Y250322D01*
X4732Y250327D01*
X4770Y250365D01*
X4797Y250403D01*
X4814Y250442D01*
X4825Y250480D01*
X4836Y250507D01*
X4841Y250535D01*
Y250551D01*
Y250556D01*
X4836Y250611D01*
X4825Y250655D01*
X4803Y250698D01*
X4781Y250731D01*
X4759Y250758D01*
X4737Y250775D01*
X4727Y250786D01*
X4721Y250791D01*
X4645Y250840D01*
X4563Y250873D01*
X4475Y250900D01*
X4393Y250917D01*
X4323Y250928D01*
X4262Y250933D01*
X4208D01*
X4093Y250928D01*
X3995Y250911D01*
X3913Y250889D01*
X3847Y250868D01*
X3793Y250846D01*
X3755Y250824D01*
X3733Y250807D01*
X3727Y250802D01*
X3673Y250747D01*
X3624Y250682D01*
X3585Y250616D01*
X3558Y250545D01*
X3536Y250485D01*
X3525Y250436D01*
X3514Y250398D01*
Y250393D01*
Y250387D01*
X2750Y250414D01*
X2755Y250513D01*
X2772Y250600D01*
X2794Y250687D01*
X2821Y250764D01*
X2848Y250840D01*
X2881Y250911D01*
X2914Y250971D01*
X2946Y251031D01*
X2985Y251080D01*
X3018Y251124D01*
X3050Y251162D01*
X3078Y251195D01*
X3099Y251217D01*
X3116Y251233D01*
X3127Y251244D01*
X3132Y251250D01*
X3203Y251304D01*
X3280Y251354D01*
X3362Y251397D01*
X3449Y251435D01*
X3536Y251463D01*
X3624Y251490D01*
X3798Y251528D01*
X3880Y251539D01*
X3951Y251550D01*
X4022Y251555D01*
X4082Y251561D01*
X4131Y251566D01*
X4197D01*
X4355Y251561D01*
D02*
G37*
G36*
X496774Y272903D02*
X489107D01*
Y278278D01*
X496774D01*
Y272903D01*
D02*
G37*
G36*
X499537Y110662D02*
X489107D01*
Y116108D01*
X499537D01*
Y110662D01*
D02*
G37*
G36*
X496791Y240584D02*
X489107D01*
Y246030D01*
X496791D01*
Y240584D01*
D02*
G37*
G36*
X499537Y188616D02*
X489107D01*
Y194062D01*
X499537D01*
Y188616D01*
D02*
G37*
G36*
X499427Y90977D02*
X489107D01*
Y96423D01*
X499427D01*
Y90977D01*
D02*
G37*
G36*
Y142982D02*
X489107D01*
Y148357D01*
X499427D01*
Y142982D01*
D02*
G37*
G36*
X496802Y214600D02*
X489106D01*
Y220046D01*
X496802D01*
Y214600D01*
D02*
G37*
G36*
X499537Y162667D02*
X489107D01*
Y168042D01*
X499537D01*
Y162667D01*
D02*
G37*
G36*
X226772Y213779D02*
X187551D01*
Y224343D01*
X226772D01*
Y213779D01*
D02*
G37*
%LPC*%
G36*
X497677Y141270D02*
X497087D01*
Y137470D01*
X497814D01*
Y140205D01*
X497819Y140200D01*
X497830Y140189D01*
X497852Y140173D01*
X497885Y140145D01*
X497923Y140112D01*
X497966Y140080D01*
X498021Y140041D01*
X498081Y139998D01*
X498147Y139954D01*
X498218Y139910D01*
X498294Y139861D01*
X498376Y139818D01*
X498551Y139736D01*
X498747Y139659D01*
Y140314D01*
X498742D01*
X498736Y140320D01*
X498720Y140325D01*
X498698Y140331D01*
X498643Y140358D01*
X498567Y140391D01*
X498474Y140435D01*
X498371Y140495D01*
X498256Y140571D01*
X498136Y140658D01*
X498130Y140664D01*
X498119Y140669D01*
X498103Y140686D01*
X498081Y140708D01*
X498021Y140762D01*
X497956Y140833D01*
X497879Y140920D01*
X497803Y141030D01*
X497732Y141144D01*
X497677Y141270D01*
D02*
G37*
G36*
X492900Y141248D02*
X492163D01*
X490601Y138704D01*
Y141248D01*
X489897D01*
Y137470D01*
X490661D01*
X492195Y139960D01*
Y137470D01*
X492900D01*
Y141248D01*
D02*
G37*
G36*
X494488Y141264D02*
X493877D01*
Y138862D01*
X493407D01*
Y138229D01*
X493877D01*
Y137470D01*
X494576D01*
Y138229D01*
X496127D01*
Y138857D01*
X494488Y141264D01*
D02*
G37*
%LPD*%
G36*
X495455Y138862D02*
X494576D01*
Y140162D01*
X495455Y138862D01*
D02*
G37*
%LPC*%
G36*
X494379Y251504D02*
X493768D01*
Y249101D01*
X493298D01*
Y248468D01*
X493768D01*
Y247709D01*
X494467D01*
Y248468D01*
X496017D01*
Y249096D01*
X494379Y251504D01*
D02*
G37*
G36*
X492790Y251487D02*
X491398D01*
X491338Y251482D01*
X491196D01*
X491043Y251471D01*
X490890Y251460D01*
X490825Y251454D01*
X490759Y251449D01*
X490705Y251438D01*
X490661Y251427D01*
X490656D01*
X490645Y251422D01*
X490628Y251416D01*
X490606Y251411D01*
X490546Y251383D01*
X490470Y251351D01*
X490388Y251302D01*
X490295Y251236D01*
X490208Y251154D01*
X490120Y251056D01*
Y251050D01*
X490109Y251045D01*
X490099Y251029D01*
X490088Y251007D01*
X490066Y250974D01*
X490050Y250941D01*
X490028Y250903D01*
X490006Y250859D01*
X489968Y250750D01*
X489929Y250630D01*
X489908Y250483D01*
X489897Y250324D01*
Y250264D01*
X489902Y250237D01*
Y250199D01*
X489913Y250122D01*
X489929Y250029D01*
X489951Y249926D01*
X489984Y249827D01*
X490028Y249735D01*
X490033Y249724D01*
X490050Y249696D01*
X490077Y249653D01*
X490115Y249598D01*
X490159Y249543D01*
X490219Y249478D01*
X490279Y249418D01*
X490350Y249363D01*
X490361Y249358D01*
X490382Y249342D01*
X490421Y249320D01*
X490470Y249292D01*
X490530Y249260D01*
X490595Y249232D01*
X490666Y249205D01*
X490743Y249183D01*
X490754D01*
X490770Y249178D01*
X490792D01*
X490819Y249172D01*
X490858Y249167D01*
X490896Y249161D01*
X490945D01*
X490994Y249156D01*
X491054Y249150D01*
X491120Y249145D01*
X491191Y249139D01*
X491267D01*
X491349Y249134D01*
X492026D01*
Y247709D01*
X492790D01*
Y251487D01*
D02*
G37*
%LPD*%
G36*
X495346Y249101D02*
X494467D01*
Y250401D01*
X495346Y249101D01*
D02*
G37*
G36*
X492026Y249773D02*
X491502D01*
X491464Y249778D01*
X491365D01*
X491267Y249784D01*
X491169Y249795D01*
X491081Y249811D01*
X491043Y249816D01*
X491010Y249827D01*
X491005Y249833D01*
X490983Y249838D01*
X490956Y249855D01*
X490923Y249871D01*
X490885Y249898D01*
X490847Y249931D01*
X490803Y249969D01*
X490770Y250013D01*
X490765Y250019D01*
X490754Y250035D01*
X490743Y250062D01*
X490727Y250100D01*
X490710Y250144D01*
X490694Y250193D01*
X490688Y250248D01*
X490683Y250308D01*
Y250319D01*
Y250341D01*
X490688Y250379D01*
X490699Y250428D01*
X490716Y250483D01*
X490737Y250543D01*
X490765Y250597D01*
X490808Y250652D01*
X490814Y250657D01*
X490830Y250674D01*
X490858Y250696D01*
X490890Y250723D01*
X490934Y250756D01*
X490989Y250783D01*
X491049Y250805D01*
X491114Y250821D01*
X491120D01*
X491142Y250827D01*
X491180Y250832D01*
X491234Y250837D01*
X491305D01*
X491354Y250843D01*
X491403D01*
X491458Y250849D01*
X492026D01*
Y249773D01*
D02*
G37*
%LPC*%
G36*
X494756Y297176D02*
X494701D01*
X494663Y297170D01*
X494614Y297165D01*
X494559Y297159D01*
X494499Y297148D01*
X494434Y297137D01*
X494292Y297099D01*
X494150Y297045D01*
X494073Y297012D01*
X494008Y296974D01*
X493937Y296924D01*
X493877Y296870D01*
X493871Y296864D01*
X493860Y296859D01*
X493850Y296837D01*
X493828Y296815D01*
X493800Y296788D01*
X493773Y296750D01*
X493746Y296712D01*
X493713Y296662D01*
X493658Y296553D01*
X493604Y296428D01*
X493582Y296357D01*
X493571Y296280D01*
X493560Y296198D01*
X493555Y296116D01*
Y296073D01*
X493560Y296024D01*
X493566Y295964D01*
X493577Y295887D01*
X493593Y295805D01*
X493615Y295718D01*
X493648Y295631D01*
X493653Y295620D01*
X493664Y295592D01*
X493686Y295543D01*
X493719Y295483D01*
X493757Y295412D01*
X493806Y295330D01*
X493866Y295243D01*
X493937Y295150D01*
X493942Y295145D01*
X493964Y295117D01*
X493997Y295079D01*
X494046Y295024D01*
X494112Y294959D01*
X494194Y294871D01*
X494292Y294779D01*
X494412Y294664D01*
X494417Y294659D01*
X494428Y294653D01*
X494445Y294637D01*
X494467Y294615D01*
X494527Y294560D01*
X494598Y294495D01*
X494669Y294424D01*
X494740Y294353D01*
X494805Y294293D01*
X494827Y294266D01*
X494849Y294244D01*
X494854Y294238D01*
X494865Y294227D01*
X494882Y294205D01*
X494903Y294178D01*
X494952Y294118D01*
X494996Y294047D01*
X493555D01*
Y293375D01*
X496094D01*
Y293392D01*
X496088Y293414D01*
X496083Y293441D01*
X496077Y293474D01*
X496072Y293512D01*
X496050Y293610D01*
X496017Y293720D01*
X495974Y293840D01*
X495919Y293971D01*
X495848Y294096D01*
Y294102D01*
X495837Y294113D01*
X495826Y294134D01*
X495804Y294156D01*
X495783Y294195D01*
X495750Y294233D01*
X495712Y294282D01*
X495668Y294337D01*
X495619Y294402D01*
X495559Y294467D01*
X495493Y294544D01*
X495417Y294626D01*
X495335Y294708D01*
X495242Y294801D01*
X495144Y294899D01*
X495035Y295003D01*
X495029Y295008D01*
X495013Y295024D01*
X494991Y295046D01*
X494958Y295079D01*
X494914Y295112D01*
X494871Y295156D01*
X494772Y295254D01*
X494674Y295357D01*
X494576Y295461D01*
X494532Y295505D01*
X494488Y295554D01*
X494456Y295592D01*
X494434Y295625D01*
X494428Y295636D01*
X494412Y295663D01*
X494385Y295707D01*
X494357Y295767D01*
X494330Y295832D01*
X494303Y295909D01*
X494286Y295985D01*
X494281Y296067D01*
Y296073D01*
Y296078D01*
Y296106D01*
X494286Y296155D01*
X494297Y296209D01*
X494314Y296269D01*
X494336Y296329D01*
X494368Y296389D01*
X494412Y296444D01*
X494417Y296449D01*
X494434Y296466D01*
X494467Y296488D01*
X494505Y296510D01*
X494559Y296531D01*
X494620Y296553D01*
X494691Y296570D01*
X494772Y296575D01*
X494811D01*
X494854Y296570D01*
X494903Y296559D01*
X494964Y296542D01*
X495023Y296515D01*
X495084Y296482D01*
X495138Y296439D01*
X495144Y296433D01*
X495160Y296411D01*
X495182Y296378D01*
X495204Y296329D01*
X495231Y296269D01*
X495253Y296187D01*
X495275Y296095D01*
X495286Y295985D01*
X496006Y296056D01*
Y296062D01*
X496001Y296084D01*
Y296111D01*
X495990Y296155D01*
X495985Y296204D01*
X495968Y296258D01*
X495952Y296318D01*
X495935Y296389D01*
X495881Y296526D01*
X495815Y296668D01*
X495772Y296739D01*
X495722Y296804D01*
X495668Y296859D01*
X495608Y296914D01*
X495602Y296919D01*
X495591Y296924D01*
X495575Y296935D01*
X495548Y296957D01*
X495515Y296974D01*
X495471Y296995D01*
X495428Y297023D01*
X495373Y297045D01*
X495313Y297072D01*
X495247Y297094D01*
X495105Y297137D01*
X494936Y297165D01*
X494849Y297170D01*
X494756Y297176D01*
D02*
G37*
G36*
X492900Y297154D02*
X492163D01*
X490601Y294609D01*
Y297154D01*
X489897D01*
Y293375D01*
X490661D01*
X492195Y295865D01*
Y293375D01*
X492900D01*
Y297154D01*
D02*
G37*
G36*
Y271172D02*
X492163D01*
X490601Y268628D01*
Y271172D01*
X489897D01*
Y267394D01*
X490661D01*
X492195Y269884D01*
Y267394D01*
X492900D01*
Y271172D01*
D02*
G37*
G36*
X494488Y271189D02*
X493877D01*
Y268786D01*
X493407D01*
Y268153D01*
X493877D01*
Y267394D01*
X494576D01*
Y268153D01*
X496127D01*
Y268781D01*
X494488Y271189D01*
D02*
G37*
%LPD*%
G36*
X495455Y268786D02*
X494576D01*
Y270086D01*
X495455Y268786D01*
D02*
G37*
%LPC*%
G36*
X492790Y199551D02*
X491398D01*
X491338Y199546D01*
X491196D01*
X491043Y199535D01*
X490890Y199524D01*
X490825Y199519D01*
X490759Y199513D01*
X490705Y199502D01*
X490661Y199492D01*
X490656D01*
X490645Y199486D01*
X490628Y199481D01*
X490606Y199475D01*
X490546Y199448D01*
X490470Y199415D01*
X490388Y199366D01*
X490295Y199300D01*
X490208Y199218D01*
X490120Y199120D01*
Y199115D01*
X490109Y199109D01*
X490099Y199093D01*
X490088Y199071D01*
X490066Y199038D01*
X490050Y199005D01*
X490028Y198967D01*
X490006Y198924D01*
X489968Y198814D01*
X489929Y198694D01*
X489908Y198547D01*
X489897Y198389D01*
Y198328D01*
X489902Y198301D01*
Y198263D01*
X489913Y198187D01*
X489929Y198094D01*
X489951Y197990D01*
X489984Y197892D01*
X490028Y197799D01*
X490033Y197788D01*
X490050Y197761D01*
X490077Y197717D01*
X490115Y197662D01*
X490159Y197608D01*
X490219Y197542D01*
X490279Y197482D01*
X490350Y197428D01*
X490361Y197422D01*
X490382Y197406D01*
X490421Y197384D01*
X490470Y197357D01*
X490530Y197324D01*
X490595Y197297D01*
X490666Y197269D01*
X490743Y197247D01*
X490754D01*
X490770Y197242D01*
X490792D01*
X490819Y197237D01*
X490858Y197231D01*
X490896Y197226D01*
X490945D01*
X490994Y197220D01*
X491054Y197215D01*
X491120Y197209D01*
X491191Y197204D01*
X491267D01*
X491349Y197198D01*
X492026D01*
Y195773D01*
X492790D01*
Y199551D01*
D02*
G37*
G36*
X494674Y199573D02*
X494620D01*
X494587Y199568D01*
X494538Y199563D01*
X494488Y199557D01*
X494428Y199551D01*
X494368Y199541D01*
X494232Y199508D01*
X494090Y199459D01*
X494024Y199426D01*
X493953Y199388D01*
X493893Y199344D01*
X493833Y199295D01*
X493828Y199290D01*
X493822Y199284D01*
X493806Y199268D01*
X493784Y199246D01*
X493762Y199218D01*
X493740Y199186D01*
X493680Y199104D01*
X493626Y199000D01*
X493582Y198885D01*
X493544Y198749D01*
X493538Y198672D01*
X493533Y198596D01*
Y198591D01*
Y198585D01*
Y198552D01*
X493538Y198503D01*
X493549Y198438D01*
X493566Y198367D01*
X493593Y198290D01*
X493626Y198208D01*
X493675Y198126D01*
X493680Y198116D01*
X493702Y198094D01*
X493729Y198056D01*
X493773Y198012D01*
X493828Y197957D01*
X493893Y197908D01*
X493970Y197859D01*
X494057Y197815D01*
X494052D01*
X494041Y197810D01*
X494024Y197804D01*
X494002Y197793D01*
X493948Y197761D01*
X493877Y197717D01*
X493800Y197668D01*
X493719Y197602D01*
X493642Y197526D01*
X493577Y197439D01*
X493571Y197428D01*
X493549Y197395D01*
X493522Y197346D01*
X493495Y197280D01*
X493462Y197198D01*
X493440Y197100D01*
X493418Y196996D01*
X493413Y196882D01*
Y196833D01*
X493418Y196794D01*
X493424Y196751D01*
X493429Y196696D01*
X493440Y196641D01*
X493457Y196581D01*
X493495Y196445D01*
X493522Y196374D01*
X493555Y196303D01*
X493593Y196232D01*
X493642Y196161D01*
X493691Y196095D01*
X493751Y196030D01*
X493757Y196024D01*
X493768Y196013D01*
X493784Y195997D01*
X493811Y195981D01*
X493844Y195953D01*
X493888Y195926D01*
X493931Y195899D01*
X493986Y195866D01*
X494046Y195833D01*
X494117Y195806D01*
X494188Y195779D01*
X494265Y195751D01*
X494352Y195735D01*
X494445Y195719D01*
X494538Y195708D01*
X494641Y195702D01*
X494691D01*
X494729Y195708D01*
X494772Y195713D01*
X494822Y195719D01*
X494876Y195724D01*
X494942Y195735D01*
X495078Y195768D01*
X495220Y195817D01*
X495291Y195844D01*
X495362Y195882D01*
X495433Y195921D01*
X495499Y195970D01*
X495504Y195975D01*
X495515Y195986D01*
X495537Y196002D01*
X495564Y196030D01*
X495591Y196063D01*
X495624Y196101D01*
X495662Y196150D01*
X495701Y196199D01*
X495739Y196259D01*
X495777Y196325D01*
X495810Y196396D01*
X495837Y196478D01*
X495864Y196560D01*
X495886Y196652D01*
X495897Y196745D01*
X495903Y196849D01*
Y196903D01*
X495897Y196964D01*
X495886Y197035D01*
X495864Y197122D01*
X495843Y197220D01*
X495804Y197318D01*
X495755Y197417D01*
Y197422D01*
X495750Y197428D01*
X495728Y197460D01*
X495690Y197504D01*
X495635Y197564D01*
X495570Y197630D01*
X495488Y197695D01*
X495389Y197755D01*
X495275Y197815D01*
X495280D01*
X495286Y197821D01*
X495318Y197837D01*
X495367Y197864D01*
X495428Y197897D01*
X495499Y197946D01*
X495564Y198001D01*
X495630Y198066D01*
X495684Y198137D01*
X495690Y198148D01*
X495706Y198176D01*
X495722Y198214D01*
X495744Y198274D01*
X495772Y198339D01*
X495788Y198421D01*
X495804Y198503D01*
X495810Y198596D01*
Y198601D01*
Y198612D01*
Y198634D01*
X495804Y198667D01*
X495799Y198700D01*
X495793Y198743D01*
X495772Y198842D01*
X495739Y198951D01*
X495684Y199071D01*
X495651Y199126D01*
X495613Y199186D01*
X495564Y199240D01*
X495515Y199295D01*
X495509Y199300D01*
X495499Y199306D01*
X495482Y199322D01*
X495460Y199339D01*
X495428Y199360D01*
X495395Y199382D01*
X495351Y199410D01*
X495296Y199437D01*
X495242Y199459D01*
X495182Y199486D01*
X495111Y199508D01*
X495035Y199530D01*
X494952Y199546D01*
X494865Y199563D01*
X494772Y199568D01*
X494674Y199573D01*
D02*
G37*
%LPD*%
G36*
X492026Y197837D02*
X491502D01*
X491464Y197843D01*
X491365D01*
X491267Y197848D01*
X491169Y197859D01*
X491081Y197875D01*
X491043Y197881D01*
X491010Y197892D01*
X491005Y197897D01*
X490983Y197903D01*
X490956Y197919D01*
X490923Y197935D01*
X490885Y197963D01*
X490847Y197995D01*
X490803Y198034D01*
X490770Y198077D01*
X490765Y198083D01*
X490754Y198099D01*
X490743Y198126D01*
X490727Y198165D01*
X490710Y198208D01*
X490694Y198258D01*
X490688Y198312D01*
X490683Y198372D01*
Y198383D01*
Y198405D01*
X490688Y198443D01*
X490699Y198492D01*
X490716Y198547D01*
X490737Y198607D01*
X490765Y198662D01*
X490808Y198716D01*
X490814Y198722D01*
X490830Y198738D01*
X490858Y198760D01*
X490890Y198787D01*
X490934Y198820D01*
X490989Y198847D01*
X491049Y198869D01*
X491114Y198885D01*
X491120D01*
X491142Y198891D01*
X491180Y198896D01*
X491234Y198902D01*
X491305D01*
X491354Y198907D01*
X491403D01*
X491458Y198913D01*
X492026D01*
Y197837D01*
D02*
G37*
G36*
X494740Y198995D02*
X494789Y198984D01*
X494843Y198967D01*
X494898Y198945D01*
X494952Y198918D01*
X495002Y198874D01*
X495007Y198869D01*
X495018Y198853D01*
X495040Y198825D01*
X495062Y198787D01*
X495084Y198738D01*
X495105Y198683D01*
X495116Y198618D01*
X495122Y198541D01*
Y198530D01*
Y198503D01*
X495116Y198465D01*
X495105Y198416D01*
X495094Y198361D01*
X495073Y198307D01*
X495040Y198252D01*
X495002Y198203D01*
X494996Y198197D01*
X494980Y198187D01*
X494952Y198165D01*
X494914Y198143D01*
X494865Y198121D01*
X494811Y198099D01*
X494745Y198088D01*
X494674Y198083D01*
X494641D01*
X494603Y198088D01*
X494554Y198099D01*
X494499Y198110D01*
X494445Y198132D01*
X494390Y198165D01*
X494341Y198203D01*
X494336Y198208D01*
X494319Y198225D01*
X494303Y198252D01*
X494276Y198296D01*
X494254Y198345D01*
X494237Y198399D01*
X494221Y198470D01*
X494215Y198547D01*
Y198558D01*
Y198580D01*
X494221Y198618D01*
X494232Y198662D01*
X494248Y198716D01*
X494270Y198771D01*
X494297Y198825D01*
X494341Y198874D01*
X494347Y198880D01*
X494363Y198896D01*
X494390Y198913D01*
X494428Y198940D01*
X494478Y198962D01*
X494532Y198978D01*
X494598Y198995D01*
X494669Y199000D01*
X494701D01*
X494740Y198995D01*
D02*
G37*
G36*
X494756Y197499D02*
X494811Y197488D01*
X494876Y197466D01*
X494942Y197433D01*
X495007Y197384D01*
X495062Y197324D01*
X495067Y197313D01*
X495084Y197291D01*
X495100Y197253D01*
X495122Y197204D01*
X495149Y197144D01*
X495165Y197078D01*
X495182Y197002D01*
X495187Y196925D01*
Y196920D01*
Y196914D01*
Y196898D01*
Y196876D01*
X495176Y196821D01*
X495165Y196751D01*
X495149Y196674D01*
X495122Y196598D01*
X495084Y196521D01*
X495035Y196450D01*
X495029Y196445D01*
X495007Y196423D01*
X494974Y196401D01*
X494931Y196368D01*
X494876Y196341D01*
X494811Y196314D01*
X494734Y196292D01*
X494652Y196286D01*
X494614D01*
X494576Y196297D01*
X494521Y196308D01*
X494461Y196325D01*
X494401Y196352D01*
X494341Y196390D01*
X494281Y196445D01*
X494276Y196450D01*
X494259Y196478D01*
X494232Y196510D01*
X494205Y196565D01*
X494177Y196630D01*
X494150Y196712D01*
X494134Y196805D01*
X494128Y196914D01*
Y196920D01*
Y196925D01*
Y196958D01*
X494134Y197007D01*
X494144Y197067D01*
X494166Y197138D01*
X494194Y197209D01*
X494232Y197280D01*
X494281Y197346D01*
X494286Y197351D01*
X494308Y197373D01*
X494341Y197400D01*
X494385Y197428D01*
X494439Y197460D01*
X494505Y197482D01*
X494581Y197504D01*
X494663Y197510D01*
X494707D01*
X494756Y197499D01*
D02*
G37*
%LPC*%
G36*
X494510Y225558D02*
X494467D01*
X494439Y225552D01*
X494401D01*
X494357Y225547D01*
X494259Y225525D01*
X494150Y225498D01*
X494030Y225454D01*
X493910Y225394D01*
X493855Y225356D01*
X493800Y225312D01*
X493795D01*
X493790Y225301D01*
X493773Y225285D01*
X493757Y225268D01*
X493729Y225241D01*
X493708Y225214D01*
X493648Y225137D01*
X493588Y225033D01*
X493528Y224913D01*
X493473Y224777D01*
X493435Y224613D01*
X494134Y224537D01*
Y224548D01*
X494139Y224569D01*
X494150Y224608D01*
X494161Y224657D01*
X494177Y224706D01*
X494205Y224761D01*
X494232Y224810D01*
X494270Y224853D01*
X494276Y224859D01*
X494292Y224870D01*
X494314Y224886D01*
X494347Y224908D01*
X494385Y224924D01*
X494434Y224941D01*
X494494Y224952D01*
X494554Y224957D01*
X494565D01*
X494592Y224952D01*
X494636Y224946D01*
X494691Y224930D01*
X494750Y224908D01*
X494816Y224870D01*
X494882Y224820D01*
X494942Y224750D01*
X494947Y224739D01*
X494958Y224728D01*
X494969Y224706D01*
X494980Y224684D01*
X494996Y224651D01*
X495007Y224613D01*
X495023Y224564D01*
X495045Y224509D01*
X495062Y224449D01*
X495078Y224378D01*
X495094Y224302D01*
X495111Y224215D01*
X495122Y224116D01*
X495133Y224007D01*
X495144Y223892D01*
X495138Y223898D01*
X495133Y223909D01*
X495116Y223920D01*
X495094Y223941D01*
X495067Y223969D01*
X495035Y223996D01*
X494958Y224056D01*
X494860Y224111D01*
X494745Y224165D01*
X494680Y224187D01*
X494614Y224198D01*
X494543Y224209D01*
X494467Y224215D01*
X494423D01*
X494390Y224209D01*
X494352Y224204D01*
X494308Y224198D01*
X494254Y224187D01*
X494199Y224171D01*
X494079Y224127D01*
X494013Y224100D01*
X493948Y224067D01*
X493882Y224029D01*
X493817Y223980D01*
X493751Y223925D01*
X493691Y223865D01*
X493686Y223860D01*
X493675Y223849D01*
X493658Y223832D01*
X493642Y223805D01*
X493615Y223767D01*
X493588Y223728D01*
X493560Y223679D01*
X493528Y223625D01*
X493495Y223565D01*
X493467Y223494D01*
X493440Y223423D01*
X493413Y223341D01*
X493397Y223259D01*
X493380Y223166D01*
X493369Y223073D01*
X493364Y222970D01*
Y222915D01*
X493369Y222871D01*
X493375Y222822D01*
X493380Y222768D01*
X493391Y222702D01*
X493407Y222637D01*
X493446Y222484D01*
X493473Y222407D01*
X493511Y222331D01*
X493549Y222254D01*
X493593Y222178D01*
X493648Y222101D01*
X493708Y222036D01*
X493713Y222030D01*
X493724Y222020D01*
X493740Y222003D01*
X493768Y221981D01*
X493800Y221954D01*
X493844Y221927D01*
X493888Y221894D01*
X493942Y221861D01*
X494002Y221829D01*
X494068Y221796D01*
X494139Y221768D01*
X494221Y221741D01*
X494303Y221719D01*
X494390Y221703D01*
X494483Y221692D01*
X494581Y221687D01*
X494609D01*
X494636Y221692D01*
X494674D01*
X494723Y221703D01*
X494783Y221708D01*
X494843Y221725D01*
X494914Y221741D01*
X494985Y221763D01*
X495062Y221796D01*
X495144Y221829D01*
X495220Y221872D01*
X495302Y221921D01*
X495378Y221981D01*
X495455Y222052D01*
X495526Y222129D01*
X495531Y222134D01*
X495542Y222151D01*
X495559Y222178D01*
X495580Y222216D01*
X495613Y222265D01*
X495641Y222325D01*
X495673Y222396D01*
X495706Y222478D01*
X495744Y222576D01*
X495777Y222680D01*
X495804Y222800D01*
X495832Y222937D01*
X495859Y223079D01*
X495875Y223237D01*
X495886Y223406D01*
X495892Y223592D01*
Y223690D01*
X495886Y223761D01*
X495881Y223849D01*
X495870Y223947D01*
X495859Y224056D01*
X495843Y224171D01*
X495826Y224291D01*
X495799Y224416D01*
X495766Y224542D01*
X495728Y224668D01*
X495684Y224782D01*
X495635Y224897D01*
X495575Y225001D01*
X495509Y225094D01*
X495504Y225099D01*
X495493Y225115D01*
X495471Y225137D01*
X495438Y225165D01*
X495400Y225203D01*
X495357Y225241D01*
X495302Y225285D01*
X495242Y225328D01*
X495171Y225366D01*
X495100Y225410D01*
X495013Y225448D01*
X494925Y225487D01*
X494832Y225514D01*
X494729Y225536D01*
X494625Y225552D01*
X494510Y225558D01*
D02*
G37*
G36*
X492790Y225536D02*
X491398D01*
X491338Y225530D01*
X491196D01*
X491043Y225519D01*
X490890Y225508D01*
X490825Y225503D01*
X490759Y225498D01*
X490705Y225487D01*
X490661Y225476D01*
X490656D01*
X490645Y225470D01*
X490628Y225465D01*
X490606Y225459D01*
X490546Y225432D01*
X490470Y225399D01*
X490388Y225350D01*
X490295Y225285D01*
X490208Y225203D01*
X490120Y225104D01*
Y225099D01*
X490109Y225094D01*
X490099Y225077D01*
X490088Y225055D01*
X490066Y225023D01*
X490050Y224990D01*
X490028Y224952D01*
X490006Y224908D01*
X489968Y224799D01*
X489929Y224679D01*
X489908Y224531D01*
X489897Y224373D01*
Y224313D01*
X489902Y224286D01*
Y224247D01*
X489913Y224171D01*
X489929Y224078D01*
X489951Y223974D01*
X489984Y223876D01*
X490028Y223783D01*
X490033Y223772D01*
X490050Y223745D01*
X490077Y223701D01*
X490115Y223647D01*
X490159Y223592D01*
X490219Y223527D01*
X490279Y223466D01*
X490350Y223412D01*
X490361Y223406D01*
X490382Y223390D01*
X490421Y223368D01*
X490470Y223341D01*
X490530Y223308D01*
X490595Y223281D01*
X490666Y223253D01*
X490743Y223232D01*
X490754D01*
X490770Y223226D01*
X490792D01*
X490819Y223221D01*
X490858Y223215D01*
X490896Y223210D01*
X490945D01*
X490994Y223204D01*
X491054Y223199D01*
X491120Y223194D01*
X491191Y223188D01*
X491267D01*
X491349Y223183D01*
X492026D01*
Y221758D01*
X492790D01*
Y225536D01*
D02*
G37*
%LPD*%
G36*
X494658Y223669D02*
X494707Y223658D01*
X494761Y223636D01*
X494822Y223608D01*
X494882Y223565D01*
X494936Y223510D01*
X494942Y223505D01*
X494958Y223477D01*
X494980Y223439D01*
X495007Y223390D01*
X495035Y223319D01*
X495056Y223237D01*
X495073Y223139D01*
X495078Y223024D01*
Y223019D01*
Y223008D01*
Y222991D01*
Y222964D01*
X495067Y222904D01*
X495056Y222822D01*
X495040Y222735D01*
X495013Y222642D01*
X494974Y222555D01*
X494920Y222478D01*
X494914Y222473D01*
X494893Y222451D01*
X494854Y222418D01*
X494811Y222385D01*
X494756Y222347D01*
X494696Y222320D01*
X494625Y222298D01*
X494549Y222287D01*
X494516D01*
X494478Y222298D01*
X494428Y222309D01*
X494379Y222325D01*
X494319Y222353D01*
X494265Y222391D01*
X494210Y222440D01*
X494205Y222445D01*
X494188Y222473D01*
X494166Y222511D01*
X494139Y222566D01*
X494117Y222637D01*
X494095Y222724D01*
X494079Y222833D01*
X494073Y222959D01*
Y222964D01*
Y222975D01*
Y222997D01*
Y223019D01*
X494079Y223084D01*
X494090Y223166D01*
X494112Y223253D01*
X494134Y223346D01*
X494172Y223434D01*
X494221Y223505D01*
X494226Y223510D01*
X494248Y223532D01*
X494276Y223559D01*
X494319Y223592D01*
X494374Y223625D01*
X494434Y223652D01*
X494505Y223674D01*
X494581Y223679D01*
X494614D01*
X494658Y223669D01*
D02*
G37*
G36*
X492026Y223821D02*
X491502D01*
X491464Y223827D01*
X491365D01*
X491267Y223832D01*
X491169Y223843D01*
X491081Y223860D01*
X491043Y223865D01*
X491010Y223876D01*
X491005Y223881D01*
X490983Y223887D01*
X490956Y223903D01*
X490923Y223920D01*
X490885Y223947D01*
X490847Y223980D01*
X490803Y224018D01*
X490770Y224062D01*
X490765Y224067D01*
X490754Y224083D01*
X490743Y224111D01*
X490727Y224149D01*
X490710Y224193D01*
X490694Y224242D01*
X490688Y224296D01*
X490683Y224356D01*
Y224367D01*
Y224389D01*
X490688Y224427D01*
X490699Y224477D01*
X490716Y224531D01*
X490737Y224591D01*
X490765Y224646D01*
X490808Y224700D01*
X490814Y224706D01*
X490830Y224722D01*
X490858Y224744D01*
X490890Y224771D01*
X490934Y224804D01*
X490989Y224832D01*
X491049Y224853D01*
X491114Y224870D01*
X491120D01*
X491142Y224875D01*
X491180Y224881D01*
X491234Y224886D01*
X491305D01*
X491354Y224891D01*
X491403D01*
X491458Y224897D01*
X492026D01*
Y223821D01*
D02*
G37*
%LPC*%
G36*
X497568Y173589D02*
X496978D01*
Y169789D01*
X497704D01*
Y172524D01*
X497710Y172519D01*
X497721Y172508D01*
X497743Y172492D01*
X497775Y172464D01*
X497814Y172432D01*
X497857Y172399D01*
X497912Y172361D01*
X497972Y172317D01*
X498037Y172273D01*
X498108Y172230D01*
X498185Y172180D01*
X498267Y172137D01*
X498442Y172055D01*
X498638Y171978D01*
Y172634D01*
X498633D01*
X498627Y172639D01*
X498611Y172644D01*
X498589Y172650D01*
X498534Y172677D01*
X498458Y172710D01*
X498365Y172754D01*
X498261Y172814D01*
X498147Y172890D01*
X498027Y172978D01*
X498021Y172983D01*
X498010Y172988D01*
X497994Y173005D01*
X497972Y173027D01*
X497912Y173081D01*
X497846Y173152D01*
X497770Y173240D01*
X497693Y173349D01*
X497622Y173463D01*
X497568Y173589D01*
D02*
G37*
G36*
X492790Y173567D02*
X491398D01*
X491338Y173562D01*
X491196D01*
X491043Y173551D01*
X490890Y173540D01*
X490825Y173535D01*
X490759Y173529D01*
X490705Y173518D01*
X490661Y173507D01*
X490656D01*
X490645Y173502D01*
X490628Y173496D01*
X490606Y173491D01*
X490546Y173463D01*
X490470Y173431D01*
X490388Y173382D01*
X490295Y173316D01*
X490208Y173234D01*
X490120Y173136D01*
Y173131D01*
X490109Y173125D01*
X490099Y173109D01*
X490088Y173087D01*
X490066Y173054D01*
X490050Y173021D01*
X490028Y172983D01*
X490006Y172939D01*
X489968Y172830D01*
X489929Y172710D01*
X489908Y172563D01*
X489897Y172404D01*
Y172344D01*
X489902Y172317D01*
Y172279D01*
X489913Y172202D01*
X489929Y172109D01*
X489951Y172006D01*
X489984Y171907D01*
X490028Y171815D01*
X490033Y171804D01*
X490050Y171776D01*
X490077Y171733D01*
X490115Y171678D01*
X490159Y171624D01*
X490219Y171558D01*
X490279Y171498D01*
X490350Y171443D01*
X490361Y171438D01*
X490382Y171422D01*
X490421Y171400D01*
X490470Y171372D01*
X490530Y171340D01*
X490595Y171312D01*
X490666Y171285D01*
X490743Y171263D01*
X490754D01*
X490770Y171258D01*
X490792D01*
X490819Y171252D01*
X490858Y171247D01*
X490896Y171241D01*
X490945D01*
X490994Y171236D01*
X491054Y171230D01*
X491120Y171225D01*
X491191Y171220D01*
X491267D01*
X491349Y171214D01*
X492026D01*
Y169789D01*
X492790D01*
Y173567D01*
D02*
G37*
G36*
X494669Y173589D02*
X494614D01*
X494576Y173584D01*
X494532Y173578D01*
X494478Y173567D01*
X494423Y173556D01*
X494357Y173540D01*
X494286Y173518D01*
X494221Y173491D01*
X494150Y173463D01*
X494079Y173425D01*
X494008Y173376D01*
X493937Y173327D01*
X493871Y173267D01*
X493811Y173196D01*
X493806Y173190D01*
X493795Y173174D01*
X493779Y173147D01*
X493751Y173109D01*
X493724Y173054D01*
X493691Y172988D01*
X493658Y172917D01*
X493626Y172825D01*
X493593Y172726D01*
X493555Y172612D01*
X493528Y172486D01*
X493500Y172344D01*
X493473Y172191D01*
X493457Y172028D01*
X493446Y171847D01*
X493440Y171651D01*
Y171547D01*
X493446Y171476D01*
X493451Y171389D01*
X493462Y171285D01*
X493473Y171176D01*
X493484Y171056D01*
X493506Y170930D01*
X493533Y170799D01*
X493560Y170674D01*
X493599Y170548D01*
X493637Y170422D01*
X493691Y170308D01*
X493746Y170199D01*
X493811Y170106D01*
X493817Y170100D01*
X493828Y170089D01*
X493844Y170067D01*
X493866Y170046D01*
X493899Y170018D01*
X493937Y169985D01*
X493986Y169947D01*
X494035Y169914D01*
X494095Y169876D01*
X494155Y169838D01*
X494226Y169805D01*
X494303Y169778D01*
X494385Y169756D01*
X494478Y169734D01*
X494570Y169723D01*
X494669Y169718D01*
X494691D01*
X494723Y169723D01*
X494761D01*
X494805Y169729D01*
X494860Y169740D01*
X494920Y169751D01*
X494985Y169773D01*
X495056Y169794D01*
X495127Y169822D01*
X495204Y169854D01*
X495275Y169898D01*
X495351Y169942D01*
X495422Y170002D01*
X495493Y170062D01*
X495559Y170138D01*
X495564Y170144D01*
X495575Y170160D01*
X495591Y170187D01*
X495608Y170220D01*
X495635Y170269D01*
X495662Y170329D01*
X495695Y170406D01*
X495722Y170488D01*
X495755Y170586D01*
X495788Y170695D01*
X495815Y170821D01*
X495837Y170957D01*
X495859Y171110D01*
X495875Y171280D01*
X495886Y171460D01*
X495892Y171656D01*
Y171760D01*
X495886Y171831D01*
X495881Y171918D01*
X495870Y172022D01*
X495859Y172131D01*
X495848Y172251D01*
X495826Y172377D01*
X495804Y172503D01*
X495772Y172634D01*
X495739Y172759D01*
X495695Y172879D01*
X495646Y172994D01*
X495591Y173103D01*
X495526Y173196D01*
X495520Y173202D01*
X495509Y173212D01*
X495493Y173234D01*
X495466Y173256D01*
X495438Y173289D01*
X495400Y173322D01*
X495351Y173354D01*
X495302Y173393D01*
X495242Y173431D01*
X495182Y173463D01*
X495111Y173496D01*
X495035Y173529D01*
X494952Y173551D01*
X494860Y173573D01*
X494767Y173584D01*
X494669Y173589D01*
D02*
G37*
%LPD*%
G36*
X492026Y171853D02*
X491502D01*
X491464Y171858D01*
X491365D01*
X491267Y171864D01*
X491169Y171875D01*
X491081Y171891D01*
X491043Y171897D01*
X491010Y171907D01*
X491005Y171913D01*
X490983Y171918D01*
X490956Y171935D01*
X490923Y171951D01*
X490885Y171978D01*
X490847Y172011D01*
X490803Y172049D01*
X490770Y172093D01*
X490765Y172099D01*
X490754Y172115D01*
X490743Y172142D01*
X490727Y172180D01*
X490710Y172224D01*
X490694Y172273D01*
X490688Y172328D01*
X490683Y172388D01*
Y172399D01*
Y172421D01*
X490688Y172459D01*
X490699Y172508D01*
X490716Y172563D01*
X490737Y172623D01*
X490765Y172677D01*
X490808Y172732D01*
X490814Y172737D01*
X490830Y172754D01*
X490858Y172776D01*
X490890Y172803D01*
X490934Y172836D01*
X490989Y172863D01*
X491049Y172885D01*
X491114Y172901D01*
X491120D01*
X491142Y172907D01*
X491180Y172912D01*
X491234Y172917D01*
X491305D01*
X491354Y172923D01*
X491403D01*
X491458Y172929D01*
X492026D01*
Y171853D01*
D02*
G37*
G36*
X494718Y172983D02*
X494745Y172978D01*
X494783Y172967D01*
X494822Y172950D01*
X494865Y172929D01*
X494903Y172901D01*
X494909Y172896D01*
X494920Y172885D01*
X494936Y172863D01*
X494958Y172836D01*
X494985Y172792D01*
X495007Y172743D01*
X495035Y172677D01*
X495056Y172601D01*
Y172595D01*
X495062Y172590D01*
Y172568D01*
X495067Y172546D01*
X495073Y172513D01*
X495078Y172475D01*
X495084Y172432D01*
X495089Y172377D01*
X495100Y172311D01*
X495105Y172246D01*
X495111Y172164D01*
X495116Y172082D01*
X495122Y171984D01*
Y171886D01*
X495127Y171771D01*
Y171651D01*
Y171645D01*
Y171624D01*
Y171585D01*
Y171542D01*
Y171487D01*
X495122Y171427D01*
Y171356D01*
X495116Y171285D01*
X495111Y171132D01*
X495100Y170979D01*
X495094Y170908D01*
X495084Y170843D01*
X495073Y170783D01*
X495062Y170728D01*
X495056Y170717D01*
X495051Y170690D01*
X495035Y170646D01*
X495018Y170597D01*
X494991Y170542D01*
X494964Y170488D01*
X494931Y170439D01*
X494898Y170401D01*
X494893Y170395D01*
X494882Y170390D01*
X494860Y170373D01*
X494832Y170362D01*
X494800Y170346D01*
X494761Y170329D01*
X494718Y170324D01*
X494669Y170319D01*
X494647D01*
X494620Y170324D01*
X494592Y170329D01*
X494554Y170340D01*
X494516Y170351D01*
X494478Y170373D01*
X494439Y170401D01*
X494434Y170406D01*
X494423Y170417D01*
X494401Y170439D01*
X494379Y170472D01*
X494357Y170510D01*
X494330Y170564D01*
X494303Y170624D01*
X494281Y170701D01*
Y170706D01*
X494276Y170712D01*
Y170733D01*
X494270Y170755D01*
X494265Y170788D01*
X494259Y170826D01*
X494248Y170870D01*
X494243Y170925D01*
X494237Y170985D01*
X494226Y171056D01*
X494221Y171132D01*
X494215Y171220D01*
X494210Y171312D01*
Y171416D01*
X494205Y171531D01*
Y171651D01*
Y171656D01*
Y171678D01*
Y171716D01*
Y171760D01*
Y171815D01*
X494210Y171875D01*
Y171946D01*
X494215Y172017D01*
X494221Y172169D01*
X494232Y172317D01*
X494243Y172388D01*
X494254Y172459D01*
X494265Y172519D01*
X494276Y172568D01*
Y172574D01*
X494281Y172579D01*
X494286Y172606D01*
X494303Y172650D01*
X494319Y172705D01*
X494347Y172759D01*
X494374Y172814D01*
X494407Y172863D01*
X494439Y172901D01*
X494445Y172907D01*
X494456Y172917D01*
X494478Y172929D01*
X494505Y172945D01*
X494538Y172961D01*
X494576Y172978D01*
X494620Y172983D01*
X494669Y172988D01*
X494691D01*
X494718Y172983D01*
D02*
G37*
%LPC*%
G36*
X497568Y121585D02*
X496978D01*
Y117785D01*
X497704D01*
Y120520D01*
X497710Y120515D01*
X497721Y120504D01*
X497743Y120487D01*
X497775Y120460D01*
X497814Y120427D01*
X497857Y120395D01*
X497912Y120356D01*
X497972Y120313D01*
X498037Y120269D01*
X498108Y120225D01*
X498185Y120176D01*
X498267Y120133D01*
X498442Y120051D01*
X498638Y119974D01*
Y120629D01*
X498633D01*
X498627Y120635D01*
X498611Y120640D01*
X498589Y120646D01*
X498534Y120673D01*
X498458Y120706D01*
X498365Y120749D01*
X498261Y120810D01*
X498147Y120886D01*
X498027Y120973D01*
X498021Y120979D01*
X498010Y120984D01*
X497994Y121001D01*
X497972Y121022D01*
X497912Y121077D01*
X497846Y121148D01*
X497770Y121236D01*
X497693Y121345D01*
X497622Y121459D01*
X497568Y121585D01*
D02*
G37*
G36*
X494379Y121580D02*
X493768D01*
Y119177D01*
X493298D01*
Y118544D01*
X493768D01*
Y117785D01*
X494467D01*
Y118544D01*
X496017D01*
Y119172D01*
X494379Y121580D01*
D02*
G37*
G36*
X492790Y121563D02*
X491398D01*
X491338Y121558D01*
X491196D01*
X491043Y121547D01*
X490890Y121536D01*
X490825Y121530D01*
X490759Y121525D01*
X490705Y121514D01*
X490661Y121503D01*
X490656D01*
X490645Y121498D01*
X490628Y121492D01*
X490606Y121487D01*
X490546Y121459D01*
X490470Y121427D01*
X490388Y121377D01*
X490295Y121312D01*
X490208Y121230D01*
X490120Y121132D01*
Y121126D01*
X490109Y121121D01*
X490099Y121104D01*
X490088Y121083D01*
X490066Y121050D01*
X490050Y121017D01*
X490028Y120979D01*
X490006Y120935D01*
X489968Y120826D01*
X489929Y120706D01*
X489908Y120558D01*
X489897Y120400D01*
Y120340D01*
X489902Y120313D01*
Y120274D01*
X489913Y120198D01*
X489929Y120105D01*
X489951Y120001D01*
X489984Y119903D01*
X490028Y119810D01*
X490033Y119799D01*
X490050Y119772D01*
X490077Y119729D01*
X490115Y119674D01*
X490159Y119619D01*
X490219Y119554D01*
X490279Y119494D01*
X490350Y119439D01*
X490361Y119434D01*
X490382Y119417D01*
X490421Y119395D01*
X490470Y119368D01*
X490530Y119335D01*
X490595Y119308D01*
X490666Y119281D01*
X490743Y119259D01*
X490754D01*
X490770Y119254D01*
X490792D01*
X490819Y119248D01*
X490858Y119243D01*
X490896Y119237D01*
X490945D01*
X490994Y119232D01*
X491054Y119226D01*
X491120Y119221D01*
X491191Y119215D01*
X491267D01*
X491349Y119210D01*
X492026D01*
Y117785D01*
X492790D01*
Y121563D01*
D02*
G37*
%LPD*%
G36*
X495346Y119177D02*
X494467D01*
Y120476D01*
X495346Y119177D01*
D02*
G37*
G36*
X492026Y119849D02*
X491502D01*
X491464Y119854D01*
X491365D01*
X491267Y119860D01*
X491169Y119870D01*
X491081Y119887D01*
X491043Y119892D01*
X491010Y119903D01*
X491005Y119909D01*
X490983Y119914D01*
X490956Y119931D01*
X490923Y119947D01*
X490885Y119974D01*
X490847Y120007D01*
X490803Y120045D01*
X490770Y120089D01*
X490765Y120094D01*
X490754Y120111D01*
X490743Y120138D01*
X490727Y120176D01*
X490710Y120220D01*
X490694Y120269D01*
X490688Y120324D01*
X490683Y120384D01*
Y120395D01*
Y120416D01*
X490688Y120455D01*
X490699Y120504D01*
X490716Y120558D01*
X490737Y120618D01*
X490765Y120673D01*
X490808Y120728D01*
X490814Y120733D01*
X490830Y120749D01*
X490858Y120771D01*
X490890Y120799D01*
X490934Y120831D01*
X490989Y120859D01*
X491049Y120881D01*
X491114Y120897D01*
X491120D01*
X491142Y120902D01*
X491180Y120908D01*
X491234Y120913D01*
X491305D01*
X491354Y120919D01*
X491403D01*
X491458Y120924D01*
X492026D01*
Y119849D01*
D02*
G37*
%LPC*%
G36*
X12370Y250868D02*
X11612D01*
X11552Y250862D01*
X11410D01*
X11377Y250857D01*
X11317D01*
X11295Y250851D01*
X11289D01*
X11224Y250840D01*
X11164Y250824D01*
X11115Y250802D01*
X11071Y250780D01*
X11044Y250758D01*
X11016Y250736D01*
X11005Y250726D01*
X11000Y250720D01*
X10967Y250676D01*
X10945Y250627D01*
X10924Y250584D01*
X10913Y250540D01*
X10907Y250496D01*
X10902Y250464D01*
Y250442D01*
Y250436D01*
X10907Y250371D01*
X10918Y250311D01*
X10940Y250261D01*
X10956Y250218D01*
X10978Y250180D01*
X11000Y250158D01*
X11011Y250141D01*
X11016Y250136D01*
X11060Y250098D01*
X11109Y250070D01*
X11158Y250049D01*
X11208Y250032D01*
X11257Y250016D01*
X11289Y250010D01*
X11311Y250005D01*
X11344D01*
X11377Y249999D01*
X11546D01*
X11639Y249994D01*
X12370D01*
Y250868D01*
D02*
G37*
G36*
Y249366D02*
X11579D01*
X11502Y249361D01*
X11437Y249355D01*
X11371D01*
X11317Y249350D01*
X11268Y249344D01*
X11229Y249339D01*
X11191Y249333D01*
X11164Y249328D01*
X11120Y249322D01*
X11093Y249311D01*
X11087D01*
X11033Y249290D01*
X10984Y249262D01*
X10940Y249235D01*
X10907Y249202D01*
X10880Y249180D01*
X10864Y249159D01*
X10853Y249142D01*
X10847Y249137D01*
X10820Y249088D01*
X10798Y249039D01*
X10782Y248995D01*
X10771Y248946D01*
X10765Y248907D01*
X10760Y248875D01*
Y248853D01*
Y248847D01*
X10765Y248776D01*
X10776Y248711D01*
X10793Y248656D01*
X10814Y248613D01*
X10836Y248574D01*
X10853Y248547D01*
X10864Y248531D01*
X10869Y248525D01*
X10913Y248487D01*
X10956Y248454D01*
X11005Y248427D01*
X11049Y248405D01*
X11087Y248394D01*
X11120Y248383D01*
X11142Y248378D01*
X11147D01*
X11169Y248372D01*
X11202D01*
X11273Y248367D01*
X11360Y248361D01*
X11448D01*
X11530Y248356D01*
X12370D01*
Y249366D01*
D02*
G37*
G36*
X494647Y277491D02*
X494592D01*
X494554Y277485D01*
X494505Y277480D01*
X494450Y277474D01*
X494390Y277463D01*
X494325Y277452D01*
X494183Y277414D01*
X494041Y277360D01*
X493964Y277327D01*
X493899Y277289D01*
X493828Y277239D01*
X493768Y277185D01*
X493762Y277179D01*
X493751Y277174D01*
X493740Y277152D01*
X493719Y277130D01*
X493691Y277103D01*
X493664Y277065D01*
X493637Y277027D01*
X493604Y276977D01*
X493549Y276868D01*
X493495Y276743D01*
X493473Y276672D01*
X493462Y276595D01*
X493451Y276513D01*
X493446Y276431D01*
Y276388D01*
X493451Y276339D01*
X493457Y276278D01*
X493467Y276202D01*
X493484Y276120D01*
X493506Y276033D01*
X493538Y275945D01*
X493544Y275935D01*
X493555Y275907D01*
X493577Y275858D01*
X493609Y275798D01*
X493648Y275727D01*
X493697Y275645D01*
X493757Y275558D01*
X493828Y275465D01*
X493833Y275460D01*
X493855Y275432D01*
X493888Y275394D01*
X493937Y275339D01*
X494002Y275274D01*
X494084Y275186D01*
X494183Y275094D01*
X494303Y274979D01*
X494308Y274974D01*
X494319Y274968D01*
X494336Y274952D01*
X494357Y274930D01*
X494417Y274875D01*
X494488Y274810D01*
X494559Y274739D01*
X494630Y274668D01*
X494696Y274608D01*
X494718Y274581D01*
X494740Y274559D01*
X494745Y274553D01*
X494756Y274542D01*
X494772Y274520D01*
X494794Y274493D01*
X494843Y274433D01*
X494887Y274362D01*
X493446D01*
Y273691D01*
X495985D01*
Y273707D01*
X495979Y273729D01*
X495974Y273756D01*
X495968Y273789D01*
X495963Y273827D01*
X495941Y273925D01*
X495908Y274035D01*
X495864Y274155D01*
X495810Y274286D01*
X495739Y274411D01*
Y274417D01*
X495728Y274428D01*
X495717Y274449D01*
X495695Y274471D01*
X495673Y274510D01*
X495641Y274548D01*
X495602Y274597D01*
X495559Y274651D01*
X495509Y274717D01*
X495449Y274782D01*
X495384Y274859D01*
X495307Y274941D01*
X495226Y275023D01*
X495133Y275115D01*
X495035Y275214D01*
X494925Y275318D01*
X494920Y275323D01*
X494903Y275339D01*
X494882Y275361D01*
X494849Y275394D01*
X494805Y275427D01*
X494761Y275470D01*
X494663Y275569D01*
X494565Y275672D01*
X494467Y275776D01*
X494423Y275820D01*
X494379Y275869D01*
X494347Y275907D01*
X494325Y275940D01*
X494319Y275951D01*
X494303Y275978D01*
X494276Y276022D01*
X494248Y276082D01*
X494221Y276148D01*
X494194Y276224D01*
X494177Y276300D01*
X494172Y276382D01*
Y276388D01*
Y276393D01*
Y276420D01*
X494177Y276470D01*
X494188Y276524D01*
X494205Y276584D01*
X494226Y276644D01*
X494259Y276704D01*
X494303Y276759D01*
X494308Y276764D01*
X494325Y276781D01*
X494357Y276803D01*
X494396Y276824D01*
X494450Y276846D01*
X494510Y276868D01*
X494581Y276885D01*
X494663Y276890D01*
X494701D01*
X494745Y276885D01*
X494794Y276874D01*
X494854Y276857D01*
X494914Y276830D01*
X494974Y276797D01*
X495029Y276753D01*
X495035Y276748D01*
X495051Y276726D01*
X495073Y276694D01*
X495094Y276644D01*
X495122Y276584D01*
X495144Y276502D01*
X495165Y276410D01*
X495176Y276300D01*
X495897Y276371D01*
Y276377D01*
X495892Y276399D01*
Y276426D01*
X495881Y276470D01*
X495875Y276519D01*
X495859Y276573D01*
X495843Y276633D01*
X495826Y276704D01*
X495772Y276841D01*
X495706Y276983D01*
X495662Y277054D01*
X495613Y277119D01*
X495559Y277174D01*
X495499Y277228D01*
X495493Y277234D01*
X495482Y277239D01*
X495466Y277250D01*
X495438Y277272D01*
X495406Y277289D01*
X495362Y277310D01*
X495318Y277338D01*
X495264Y277360D01*
X495204Y277387D01*
X495138Y277409D01*
X494996Y277452D01*
X494827Y277480D01*
X494740Y277485D01*
X494647Y277491D01*
D02*
G37*
G36*
X492790Y277469D02*
X491398D01*
X491338Y277463D01*
X491196D01*
X491043Y277452D01*
X490890Y277442D01*
X490825Y277436D01*
X490759Y277431D01*
X490705Y277420D01*
X490661Y277409D01*
X490656D01*
X490645Y277403D01*
X490628Y277398D01*
X490606Y277392D01*
X490546Y277365D01*
X490470Y277332D01*
X490388Y277283D01*
X490295Y277218D01*
X490208Y277136D01*
X490120Y277037D01*
Y277032D01*
X490109Y277027D01*
X490099Y277010D01*
X490088Y276988D01*
X490066Y276956D01*
X490050Y276923D01*
X490028Y276885D01*
X490006Y276841D01*
X489968Y276732D01*
X489929Y276612D01*
X489908Y276464D01*
X489897Y276306D01*
Y276246D01*
X489902Y276218D01*
Y276180D01*
X489913Y276104D01*
X489929Y276011D01*
X489951Y275907D01*
X489984Y275809D01*
X490028Y275716D01*
X490033Y275705D01*
X490050Y275678D01*
X490077Y275634D01*
X490115Y275580D01*
X490159Y275525D01*
X490219Y275460D01*
X490279Y275399D01*
X490350Y275345D01*
X490361Y275339D01*
X490382Y275323D01*
X490421Y275301D01*
X490470Y275274D01*
X490530Y275241D01*
X490595Y275214D01*
X490666Y275186D01*
X490743Y275165D01*
X490754D01*
X490770Y275159D01*
X490792D01*
X490819Y275154D01*
X490858Y275148D01*
X490896Y275143D01*
X490945D01*
X490994Y275137D01*
X491054Y275132D01*
X491120Y275127D01*
X491191Y275121D01*
X491267D01*
X491349Y275115D01*
X492026D01*
Y273691D01*
X492790D01*
Y277469D01*
D02*
G37*
%LPD*%
G36*
X492026Y275754D02*
X491502D01*
X491464Y275760D01*
X491365D01*
X491267Y275765D01*
X491169Y275776D01*
X491081Y275793D01*
X491043Y275798D01*
X491010Y275809D01*
X491005Y275814D01*
X490983Y275820D01*
X490956Y275836D01*
X490923Y275853D01*
X490885Y275880D01*
X490847Y275913D01*
X490803Y275951D01*
X490770Y275995D01*
X490765Y276000D01*
X490754Y276016D01*
X490743Y276044D01*
X490727Y276082D01*
X490710Y276126D01*
X490694Y276175D01*
X490688Y276229D01*
X490683Y276289D01*
Y276300D01*
Y276322D01*
X490688Y276360D01*
X490699Y276410D01*
X490716Y276464D01*
X490737Y276524D01*
X490765Y276579D01*
X490808Y276633D01*
X490814Y276639D01*
X490830Y276655D01*
X490858Y276677D01*
X490890Y276704D01*
X490934Y276737D01*
X490989Y276764D01*
X491049Y276786D01*
X491114Y276803D01*
X491120D01*
X491142Y276808D01*
X491180Y276814D01*
X491234Y276819D01*
X491305D01*
X491354Y276824D01*
X491403D01*
X491458Y276830D01*
X492026D01*
Y275754D01*
D02*
G37*
%LPC*%
G36*
X497677Y115321D02*
X497087D01*
Y111521D01*
X497814D01*
Y114256D01*
X497819Y114251D01*
X497830Y114240D01*
X497852Y114224D01*
X497885Y114196D01*
X497923Y114163D01*
X497966Y114131D01*
X498021Y114093D01*
X498081Y114049D01*
X498147Y114005D01*
X498218Y113961D01*
X498294Y113912D01*
X498376Y113869D01*
X498551Y113787D01*
X498747Y113710D01*
Y114365D01*
X498742D01*
X498736Y114371D01*
X498720Y114376D01*
X498698Y114382D01*
X498643Y114409D01*
X498567Y114442D01*
X498474Y114486D01*
X498371Y114546D01*
X498256Y114622D01*
X498136Y114709D01*
X498130Y114715D01*
X498119Y114720D01*
X498103Y114737D01*
X498081Y114759D01*
X498021Y114813D01*
X497956Y114884D01*
X497879Y114971D01*
X497803Y115081D01*
X497732Y115195D01*
X497677Y115321D01*
D02*
G37*
G36*
X494620D02*
X494576D01*
X494549Y115315D01*
X494510D01*
X494467Y115310D01*
X494368Y115288D01*
X494259Y115261D01*
X494139Y115217D01*
X494019Y115157D01*
X493964Y115119D01*
X493910Y115075D01*
X493904D01*
X493899Y115064D01*
X493882Y115048D01*
X493866Y115032D01*
X493839Y115004D01*
X493817Y114977D01*
X493757Y114901D01*
X493697Y114797D01*
X493637Y114677D01*
X493582Y114540D01*
X493544Y114376D01*
X494243Y114300D01*
Y114311D01*
X494248Y114333D01*
X494259Y114371D01*
X494270Y114420D01*
X494286Y114469D01*
X494314Y114524D01*
X494341Y114573D01*
X494379Y114617D01*
X494385Y114622D01*
X494401Y114633D01*
X494423Y114649D01*
X494456Y114671D01*
X494494Y114688D01*
X494543Y114704D01*
X494603Y114715D01*
X494663Y114720D01*
X494674D01*
X494701Y114715D01*
X494745Y114709D01*
X494800Y114693D01*
X494860Y114671D01*
X494925Y114633D01*
X494991Y114584D01*
X495051Y114513D01*
X495056Y114502D01*
X495067Y114491D01*
X495078Y114469D01*
X495089Y114447D01*
X495105Y114415D01*
X495116Y114376D01*
X495133Y114327D01*
X495155Y114273D01*
X495171Y114213D01*
X495187Y114142D01*
X495204Y114065D01*
X495220Y113978D01*
X495231Y113880D01*
X495242Y113770D01*
X495253Y113656D01*
X495247Y113661D01*
X495242Y113672D01*
X495226Y113683D01*
X495204Y113705D01*
X495176Y113732D01*
X495144Y113759D01*
X495067Y113820D01*
X494969Y113874D01*
X494854Y113929D01*
X494789Y113951D01*
X494723Y113961D01*
X494652Y113972D01*
X494576Y113978D01*
X494532D01*
X494499Y113972D01*
X494461Y113967D01*
X494417Y113961D01*
X494363Y113951D01*
X494308Y113934D01*
X494188Y113891D01*
X494123Y113863D01*
X494057Y113830D01*
X493992Y113792D01*
X493926Y113743D01*
X493860Y113688D01*
X493800Y113628D01*
X493795Y113623D01*
X493784Y113612D01*
X493768Y113596D01*
X493751Y113568D01*
X493724Y113530D01*
X493697Y113492D01*
X493669Y113443D01*
X493637Y113388D01*
X493604Y113328D01*
X493577Y113257D01*
X493549Y113186D01*
X493522Y113104D01*
X493506Y113022D01*
X493489Y112929D01*
X493478Y112837D01*
X493473Y112733D01*
Y112678D01*
X493478Y112635D01*
X493484Y112585D01*
X493489Y112531D01*
X493500Y112465D01*
X493517Y112400D01*
X493555Y112247D01*
X493582Y112171D01*
X493620Y112094D01*
X493658Y112018D01*
X493702Y111941D01*
X493757Y111865D01*
X493817Y111799D01*
X493822Y111794D01*
X493833Y111783D01*
X493850Y111767D01*
X493877Y111745D01*
X493910Y111717D01*
X493953Y111690D01*
X493997Y111657D01*
X494052Y111625D01*
X494112Y111592D01*
X494177Y111559D01*
X494248Y111532D01*
X494330Y111504D01*
X494412Y111483D01*
X494499Y111466D01*
X494592Y111455D01*
X494691Y111450D01*
X494718D01*
X494745Y111455D01*
X494783D01*
X494832Y111466D01*
X494893Y111472D01*
X494952Y111488D01*
X495023Y111504D01*
X495094Y111526D01*
X495171Y111559D01*
X495253Y111592D01*
X495329Y111635D01*
X495411Y111685D01*
X495488Y111745D01*
X495564Y111816D01*
X495635Y111892D01*
X495641Y111898D01*
X495651Y111914D01*
X495668Y111941D01*
X495690Y111979D01*
X495722Y112029D01*
X495750Y112089D01*
X495783Y112160D01*
X495815Y112241D01*
X495853Y112340D01*
X495886Y112444D01*
X495914Y112564D01*
X495941Y112700D01*
X495968Y112842D01*
X495985Y113001D01*
X495995Y113170D01*
X496001Y113355D01*
Y113454D01*
X495995Y113525D01*
X495990Y113612D01*
X495979Y113710D01*
X495968Y113820D01*
X495952Y113934D01*
X495935Y114054D01*
X495908Y114180D01*
X495875Y114305D01*
X495837Y114431D01*
X495793Y114546D01*
X495744Y114660D01*
X495684Y114764D01*
X495619Y114857D01*
X495613Y114862D01*
X495602Y114879D01*
X495580Y114901D01*
X495548Y114928D01*
X495509Y114966D01*
X495466Y115004D01*
X495411Y115048D01*
X495351Y115092D01*
X495280Y115130D01*
X495209Y115174D01*
X495122Y115212D01*
X495035Y115250D01*
X494942Y115277D01*
X494838Y115299D01*
X494734Y115315D01*
X494620Y115321D01*
D02*
G37*
G36*
X492900Y115299D02*
X492163D01*
X490601Y112755D01*
Y115299D01*
X489897D01*
Y111521D01*
X490661D01*
X492195Y114011D01*
Y111521D01*
X492900D01*
Y115299D01*
D02*
G37*
%LPD*%
G36*
X494767Y113432D02*
X494816Y113421D01*
X494871Y113399D01*
X494931Y113372D01*
X494991Y113328D01*
X495045Y113274D01*
X495051Y113268D01*
X495067Y113241D01*
X495089Y113203D01*
X495116Y113153D01*
X495144Y113082D01*
X495165Y113001D01*
X495182Y112902D01*
X495187Y112787D01*
Y112782D01*
Y112771D01*
Y112755D01*
Y112727D01*
X495176Y112667D01*
X495165Y112585D01*
X495149Y112498D01*
X495122Y112405D01*
X495084Y112318D01*
X495029Y112241D01*
X495023Y112236D01*
X495002Y112214D01*
X494964Y112181D01*
X494920Y112149D01*
X494865Y112110D01*
X494805Y112083D01*
X494734Y112061D01*
X494658Y112050D01*
X494625D01*
X494587Y112061D01*
X494538Y112072D01*
X494488Y112089D01*
X494428Y112116D01*
X494374Y112154D01*
X494319Y112203D01*
X494314Y112209D01*
X494297Y112236D01*
X494276Y112274D01*
X494248Y112329D01*
X494226Y112400D01*
X494205Y112487D01*
X494188Y112596D01*
X494183Y112722D01*
Y112727D01*
Y112738D01*
Y112760D01*
Y112782D01*
X494188Y112848D01*
X494199Y112929D01*
X494221Y113017D01*
X494243Y113110D01*
X494281Y113197D01*
X494330Y113268D01*
X494336Y113274D01*
X494357Y113295D01*
X494385Y113323D01*
X494428Y113355D01*
X494483Y113388D01*
X494543Y113415D01*
X494614Y113437D01*
X494691Y113443D01*
X494723D01*
X494767Y113432D01*
D02*
G37*
%LPC*%
G36*
X494620Y245243D02*
X494576D01*
X494549Y245237D01*
X494510D01*
X494467Y245232D01*
X494368Y245210D01*
X494259Y245183D01*
X494139Y245139D01*
X494019Y245079D01*
X493964Y245041D01*
X493910Y244997D01*
X493904D01*
X493899Y244986D01*
X493882Y244970D01*
X493866Y244953D01*
X493839Y244926D01*
X493817Y244899D01*
X493757Y244822D01*
X493697Y244719D01*
X493637Y244598D01*
X493582Y244462D01*
X493544Y244298D01*
X494243Y244222D01*
Y244233D01*
X494248Y244254D01*
X494259Y244293D01*
X494270Y244342D01*
X494286Y244391D01*
X494314Y244445D01*
X494341Y244495D01*
X494379Y244538D01*
X494385Y244544D01*
X494401Y244555D01*
X494423Y244571D01*
X494456Y244593D01*
X494494Y244609D01*
X494543Y244626D01*
X494603Y244637D01*
X494663Y244642D01*
X494674D01*
X494701Y244637D01*
X494745Y244631D01*
X494800Y244615D01*
X494860Y244593D01*
X494925Y244555D01*
X494991Y244506D01*
X495051Y244435D01*
X495056Y244424D01*
X495067Y244413D01*
X495078Y244391D01*
X495089Y244369D01*
X495105Y244336D01*
X495116Y244298D01*
X495133Y244249D01*
X495155Y244194D01*
X495171Y244134D01*
X495187Y244063D01*
X495204Y243987D01*
X495220Y243899D01*
X495231Y243801D01*
X495242Y243692D01*
X495253Y243577D01*
X495247Y243583D01*
X495242Y243594D01*
X495226Y243605D01*
X495204Y243626D01*
X495176Y243654D01*
X495144Y243681D01*
X495067Y243741D01*
X494969Y243796D01*
X494854Y243850D01*
X494789Y243872D01*
X494723Y243883D01*
X494652Y243894D01*
X494576Y243899D01*
X494532D01*
X494499Y243894D01*
X494461Y243889D01*
X494417Y243883D01*
X494363Y243872D01*
X494308Y243856D01*
X494188Y243812D01*
X494123Y243785D01*
X494057Y243752D01*
X493992Y243714D01*
X493926Y243665D01*
X493860Y243610D01*
X493800Y243550D01*
X493795Y243545D01*
X493784Y243534D01*
X493768Y243517D01*
X493751Y243490D01*
X493724Y243452D01*
X493697Y243414D01*
X493669Y243364D01*
X493637Y243310D01*
X493604Y243250D01*
X493577Y243179D01*
X493549Y243108D01*
X493522Y243026D01*
X493506Y242944D01*
X493489Y242851D01*
X493478Y242758D01*
X493473Y242655D01*
Y242600D01*
X493478Y242556D01*
X493484Y242507D01*
X493489Y242453D01*
X493500Y242387D01*
X493517Y242322D01*
X493555Y242169D01*
X493582Y242092D01*
X493620Y242016D01*
X493658Y241939D01*
X493702Y241863D01*
X493757Y241787D01*
X493817Y241721D01*
X493822Y241716D01*
X493833Y241705D01*
X493850Y241688D01*
X493877Y241666D01*
X493910Y241639D01*
X493953Y241612D01*
X493997Y241579D01*
X494052Y241546D01*
X494112Y241513D01*
X494177Y241481D01*
X494248Y241453D01*
X494330Y241426D01*
X494412Y241404D01*
X494499Y241388D01*
X494592Y241377D01*
X494691Y241371D01*
X494718D01*
X494745Y241377D01*
X494783D01*
X494832Y241388D01*
X494893Y241393D01*
X494952Y241410D01*
X495023Y241426D01*
X495094Y241448D01*
X495171Y241481D01*
X495253Y241513D01*
X495329Y241557D01*
X495411Y241606D01*
X495488Y241666D01*
X495564Y241737D01*
X495635Y241814D01*
X495641Y241819D01*
X495651Y241836D01*
X495668Y241863D01*
X495690Y241901D01*
X495722Y241950D01*
X495750Y242010D01*
X495783Y242081D01*
X495815Y242163D01*
X495853Y242262D01*
X495886Y242365D01*
X495914Y242485D01*
X495941Y242622D01*
X495968Y242764D01*
X495985Y242922D01*
X495995Y243091D01*
X496001Y243277D01*
Y243375D01*
X495995Y243446D01*
X495990Y243534D01*
X495979Y243632D01*
X495968Y243741D01*
X495952Y243856D01*
X495935Y243976D01*
X495908Y244102D01*
X495875Y244227D01*
X495837Y244353D01*
X495793Y244467D01*
X495744Y244582D01*
X495684Y244686D01*
X495619Y244779D01*
X495613Y244784D01*
X495602Y244800D01*
X495580Y244822D01*
X495548Y244850D01*
X495509Y244888D01*
X495466Y244926D01*
X495411Y244970D01*
X495351Y245013D01*
X495280Y245052D01*
X495209Y245095D01*
X495122Y245133D01*
X495035Y245172D01*
X494942Y245199D01*
X494838Y245221D01*
X494734Y245237D01*
X494620Y245243D01*
D02*
G37*
G36*
X492900Y245221D02*
X492163D01*
X490601Y242676D01*
Y245221D01*
X489897D01*
Y241442D01*
X490661D01*
X492195Y243932D01*
Y241442D01*
X492900D01*
Y245221D01*
D02*
G37*
%LPD*%
G36*
X494767Y243354D02*
X494816Y243343D01*
X494871Y243321D01*
X494931Y243293D01*
X494991Y243250D01*
X495045Y243195D01*
X495051Y243190D01*
X495067Y243162D01*
X495089Y243124D01*
X495116Y243075D01*
X495144Y243004D01*
X495165Y242922D01*
X495182Y242824D01*
X495187Y242709D01*
Y242704D01*
Y242693D01*
Y242676D01*
Y242649D01*
X495176Y242589D01*
X495165Y242507D01*
X495149Y242420D01*
X495122Y242327D01*
X495084Y242240D01*
X495029Y242163D01*
X495023Y242158D01*
X495002Y242136D01*
X494964Y242103D01*
X494920Y242070D01*
X494865Y242032D01*
X494805Y242005D01*
X494734Y241983D01*
X494658Y241972D01*
X494625D01*
X494587Y241983D01*
X494538Y241994D01*
X494488Y242010D01*
X494428Y242038D01*
X494374Y242076D01*
X494319Y242125D01*
X494314Y242130D01*
X494297Y242158D01*
X494276Y242196D01*
X494248Y242251D01*
X494226Y242322D01*
X494205Y242409D01*
X494188Y242518D01*
X494183Y242644D01*
Y242649D01*
Y242660D01*
Y242682D01*
Y242704D01*
X494188Y242769D01*
X494199Y242851D01*
X494221Y242939D01*
X494243Y243031D01*
X494281Y243119D01*
X494330Y243190D01*
X494336Y243195D01*
X494357Y243217D01*
X494385Y243244D01*
X494428Y243277D01*
X494483Y243310D01*
X494543Y243337D01*
X494614Y243359D01*
X494691Y243364D01*
X494723D01*
X494767Y243354D01*
D02*
G37*
%LPC*%
G36*
X497677Y193274D02*
X497087D01*
Y189474D01*
X497814D01*
Y192209D01*
X497819Y192204D01*
X497830Y192193D01*
X497852Y192177D01*
X497885Y192149D01*
X497923Y192117D01*
X497966Y192084D01*
X498021Y192046D01*
X498081Y192002D01*
X498147Y191958D01*
X498218Y191915D01*
X498294Y191866D01*
X498376Y191822D01*
X498551Y191740D01*
X498747Y191664D01*
Y192319D01*
X498742D01*
X498736Y192324D01*
X498720Y192330D01*
X498698Y192335D01*
X498643Y192362D01*
X498567Y192395D01*
X498474Y192439D01*
X498371Y192499D01*
X498256Y192575D01*
X498136Y192663D01*
X498130Y192668D01*
X498119Y192674D01*
X498103Y192690D01*
X498081Y192712D01*
X498021Y192766D01*
X497956Y192837D01*
X497879Y192925D01*
X497803Y193034D01*
X497732Y193149D01*
X497677Y193274D01*
D02*
G37*
G36*
X492900Y193252D02*
X492163D01*
X490601Y190708D01*
Y193252D01*
X489897D01*
Y189474D01*
X490661D01*
X492195Y191964D01*
Y189474D01*
X492900D01*
Y193252D01*
D02*
G37*
G36*
X494778Y193274D02*
X494723D01*
X494685Y193269D01*
X494641Y193263D01*
X494587Y193252D01*
X494532Y193241D01*
X494467Y193225D01*
X494396Y193203D01*
X494330Y193176D01*
X494259Y193149D01*
X494188Y193110D01*
X494117Y193061D01*
X494046Y193012D01*
X493981Y192952D01*
X493921Y192881D01*
X493915Y192876D01*
X493904Y192859D01*
X493888Y192832D01*
X493860Y192794D01*
X493833Y192739D01*
X493800Y192674D01*
X493768Y192603D01*
X493735Y192510D01*
X493702Y192411D01*
X493664Y192297D01*
X493637Y192171D01*
X493609Y192029D01*
X493582Y191876D01*
X493566Y191713D01*
X493555Y191532D01*
X493549Y191336D01*
Y191232D01*
X493555Y191161D01*
X493560Y191074D01*
X493571Y190970D01*
X493582Y190861D01*
X493593Y190741D01*
X493615Y190615D01*
X493642Y190484D01*
X493669Y190358D01*
X493708Y190233D01*
X493746Y190107D01*
X493800Y189993D01*
X493855Y189883D01*
X493921Y189791D01*
X493926Y189785D01*
X493937Y189774D01*
X493953Y189752D01*
X493975Y189731D01*
X494008Y189703D01*
X494046Y189671D01*
X494095Y189632D01*
X494144Y189600D01*
X494205Y189561D01*
X494265Y189523D01*
X494336Y189490D01*
X494412Y189463D01*
X494494Y189441D01*
X494587Y189419D01*
X494680Y189409D01*
X494778Y189403D01*
X494800D01*
X494832Y189409D01*
X494871D01*
X494914Y189414D01*
X494969Y189425D01*
X495029Y189436D01*
X495094Y189458D01*
X495165Y189479D01*
X495236Y189507D01*
X495313Y189540D01*
X495384Y189583D01*
X495460Y189627D01*
X495531Y189687D01*
X495602Y189747D01*
X495668Y189823D01*
X495673Y189829D01*
X495684Y189845D01*
X495701Y189873D01*
X495717Y189905D01*
X495744Y189954D01*
X495772Y190015D01*
X495804Y190091D01*
X495832Y190173D01*
X495864Y190271D01*
X495897Y190380D01*
X495924Y190506D01*
X495946Y190642D01*
X495968Y190795D01*
X495985Y190965D01*
X495995Y191145D01*
X496001Y191341D01*
Y191445D01*
X495995Y191516D01*
X495990Y191603D01*
X495979Y191707D01*
X495968Y191816D01*
X495957Y191937D01*
X495935Y192062D01*
X495914Y192188D01*
X495881Y192319D01*
X495848Y192444D01*
X495804Y192564D01*
X495755Y192679D01*
X495701Y192788D01*
X495635Y192881D01*
X495630Y192886D01*
X495619Y192897D01*
X495602Y192919D01*
X495575Y192941D01*
X495548Y192974D01*
X495509Y193007D01*
X495460Y193039D01*
X495411Y193078D01*
X495351Y193116D01*
X495291Y193149D01*
X495220Y193181D01*
X495144Y193214D01*
X495062Y193236D01*
X494969Y193258D01*
X494876Y193269D01*
X494778Y193274D01*
D02*
G37*
%LPD*%
G36*
X494827Y192668D02*
X494854Y192663D01*
X494893Y192652D01*
X494931Y192635D01*
X494974Y192613D01*
X495013Y192586D01*
X495018Y192581D01*
X495029Y192570D01*
X495045Y192548D01*
X495067Y192521D01*
X495094Y192477D01*
X495116Y192428D01*
X495144Y192362D01*
X495165Y192286D01*
Y192280D01*
X495171Y192275D01*
Y192253D01*
X495176Y192231D01*
X495182Y192199D01*
X495187Y192160D01*
X495193Y192117D01*
X495198Y192062D01*
X495209Y191997D01*
X495215Y191931D01*
X495220Y191849D01*
X495226Y191767D01*
X495231Y191669D01*
Y191571D01*
X495236Y191456D01*
Y191336D01*
Y191330D01*
Y191309D01*
Y191270D01*
Y191227D01*
Y191172D01*
X495231Y191112D01*
Y191041D01*
X495226Y190970D01*
X495220Y190817D01*
X495209Y190664D01*
X495204Y190593D01*
X495193Y190528D01*
X495182Y190468D01*
X495171Y190413D01*
X495165Y190402D01*
X495160Y190375D01*
X495144Y190331D01*
X495127Y190282D01*
X495100Y190227D01*
X495073Y190173D01*
X495040Y190124D01*
X495007Y190085D01*
X495002Y190080D01*
X494991Y190075D01*
X494969Y190058D01*
X494942Y190047D01*
X494909Y190031D01*
X494871Y190015D01*
X494827Y190009D01*
X494778Y190004D01*
X494756D01*
X494729Y190009D01*
X494701Y190015D01*
X494663Y190025D01*
X494625Y190036D01*
X494587Y190058D01*
X494549Y190085D01*
X494543Y190091D01*
X494532Y190102D01*
X494510Y190124D01*
X494488Y190156D01*
X494467Y190195D01*
X494439Y190249D01*
X494412Y190309D01*
X494390Y190386D01*
Y190391D01*
X494385Y190397D01*
Y190419D01*
X494379Y190440D01*
X494374Y190473D01*
X494368Y190511D01*
X494357Y190555D01*
X494352Y190610D01*
X494347Y190670D01*
X494336Y190741D01*
X494330Y190817D01*
X494325Y190904D01*
X494319Y190997D01*
Y191101D01*
X494314Y191216D01*
Y191336D01*
Y191341D01*
Y191363D01*
Y191401D01*
Y191445D01*
Y191500D01*
X494319Y191560D01*
Y191631D01*
X494325Y191702D01*
X494330Y191855D01*
X494341Y192002D01*
X494352Y192073D01*
X494363Y192144D01*
X494374Y192204D01*
X494385Y192253D01*
Y192259D01*
X494390Y192264D01*
X494396Y192291D01*
X494412Y192335D01*
X494428Y192390D01*
X494456Y192444D01*
X494483Y192499D01*
X494516Y192548D01*
X494549Y192586D01*
X494554Y192592D01*
X494565Y192603D01*
X494587Y192613D01*
X494614Y192630D01*
X494647Y192646D01*
X494685Y192663D01*
X494729Y192668D01*
X494778Y192674D01*
X494800D01*
X494827Y192668D01*
D02*
G37*
%LPC*%
G36*
X497568Y95636D02*
X496978D01*
Y91836D01*
X497704D01*
Y94571D01*
X497710Y94566D01*
X497721Y94555D01*
X497743Y94538D01*
X497775Y94511D01*
X497814Y94478D01*
X497857Y94446D01*
X497912Y94407D01*
X497972Y94364D01*
X498037Y94320D01*
X498108Y94276D01*
X498185Y94227D01*
X498267Y94184D01*
X498442Y94102D01*
X498638Y94025D01*
Y94680D01*
X498633D01*
X498627Y94686D01*
X498611Y94691D01*
X498589Y94697D01*
X498534Y94724D01*
X498458Y94757D01*
X498365Y94801D01*
X498261Y94861D01*
X498147Y94937D01*
X498027Y95024D01*
X498021Y95030D01*
X498010Y95035D01*
X497994Y95052D01*
X497972Y95074D01*
X497912Y95128D01*
X497846Y95199D01*
X497770Y95287D01*
X497693Y95396D01*
X497622Y95510D01*
X497568Y95636D01*
D02*
G37*
G36*
X494510D02*
X494467D01*
X494439Y95631D01*
X494401D01*
X494357Y95625D01*
X494259Y95603D01*
X494150Y95576D01*
X494030Y95532D01*
X493910Y95472D01*
X493855Y95434D01*
X493800Y95390D01*
X493795D01*
X493790Y95379D01*
X493773Y95363D01*
X493757Y95347D01*
X493729Y95319D01*
X493708Y95292D01*
X493648Y95215D01*
X493588Y95112D01*
X493528Y94992D01*
X493473Y94855D01*
X493435Y94691D01*
X494134Y94615D01*
Y94626D01*
X494139Y94648D01*
X494150Y94686D01*
X494161Y94735D01*
X494177Y94784D01*
X494205Y94839D01*
X494232Y94888D01*
X494270Y94932D01*
X494276Y94937D01*
X494292Y94948D01*
X494314Y94964D01*
X494347Y94986D01*
X494385Y95003D01*
X494434Y95019D01*
X494494Y95030D01*
X494554Y95035D01*
X494565D01*
X494592Y95030D01*
X494636Y95024D01*
X494691Y95008D01*
X494750Y94986D01*
X494816Y94948D01*
X494882Y94899D01*
X494942Y94828D01*
X494947Y94817D01*
X494958Y94806D01*
X494969Y94784D01*
X494980Y94762D01*
X494996Y94730D01*
X495007Y94691D01*
X495023Y94642D01*
X495045Y94588D01*
X495062Y94528D01*
X495078Y94457D01*
X495094Y94380D01*
X495111Y94293D01*
X495122Y94195D01*
X495133Y94085D01*
X495144Y93971D01*
X495138Y93976D01*
X495133Y93987D01*
X495116Y93998D01*
X495094Y94020D01*
X495067Y94047D01*
X495035Y94074D01*
X494958Y94134D01*
X494860Y94189D01*
X494745Y94244D01*
X494680Y94266D01*
X494614Y94276D01*
X494543Y94287D01*
X494467Y94293D01*
X494423D01*
X494390Y94287D01*
X494352Y94282D01*
X494308Y94276D01*
X494254Y94266D01*
X494199Y94249D01*
X494079Y94205D01*
X494013Y94178D01*
X493948Y94145D01*
X493882Y94107D01*
X493817Y94058D01*
X493751Y94003D01*
X493691Y93943D01*
X493686Y93938D01*
X493675Y93927D01*
X493658Y93911D01*
X493642Y93883D01*
X493615Y93845D01*
X493588Y93807D01*
X493560Y93758D01*
X493528Y93703D01*
X493495Y93643D01*
X493467Y93572D01*
X493440Y93501D01*
X493413Y93419D01*
X493397Y93337D01*
X493380Y93244D01*
X493369Y93152D01*
X493364Y93048D01*
Y92993D01*
X493369Y92950D01*
X493375Y92901D01*
X493380Y92846D01*
X493391Y92780D01*
X493407Y92715D01*
X493446Y92562D01*
X493473Y92485D01*
X493511Y92409D01*
X493549Y92333D01*
X493593Y92256D01*
X493648Y92180D01*
X493708Y92114D01*
X493713Y92109D01*
X493724Y92098D01*
X493740Y92081D01*
X493768Y92060D01*
X493800Y92032D01*
X493844Y92005D01*
X493888Y91972D01*
X493942Y91940D01*
X494002Y91907D01*
X494068Y91874D01*
X494139Y91847D01*
X494221Y91819D01*
X494303Y91798D01*
X494390Y91781D01*
X494483Y91770D01*
X494581Y91765D01*
X494609D01*
X494636Y91770D01*
X494674D01*
X494723Y91781D01*
X494783Y91787D01*
X494843Y91803D01*
X494914Y91819D01*
X494985Y91841D01*
X495062Y91874D01*
X495144Y91907D01*
X495220Y91950D01*
X495302Y92000D01*
X495378Y92060D01*
X495455Y92131D01*
X495526Y92207D01*
X495531Y92212D01*
X495542Y92229D01*
X495559Y92256D01*
X495580Y92294D01*
X495613Y92344D01*
X495641Y92404D01*
X495673Y92475D01*
X495706Y92557D01*
X495744Y92655D01*
X495777Y92759D01*
X495804Y92879D01*
X495832Y93015D01*
X495859Y93157D01*
X495875Y93315D01*
X495886Y93485D01*
X495892Y93670D01*
Y93769D01*
X495886Y93840D01*
X495881Y93927D01*
X495870Y94025D01*
X495859Y94134D01*
X495843Y94249D01*
X495826Y94369D01*
X495799Y94495D01*
X495766Y94620D01*
X495728Y94746D01*
X495684Y94861D01*
X495635Y94975D01*
X495575Y95079D01*
X495509Y95172D01*
X495504Y95177D01*
X495493Y95194D01*
X495471Y95215D01*
X495438Y95243D01*
X495400Y95281D01*
X495357Y95319D01*
X495302Y95363D01*
X495242Y95407D01*
X495171Y95445D01*
X495100Y95489D01*
X495013Y95527D01*
X494925Y95565D01*
X494832Y95592D01*
X494729Y95614D01*
X494625Y95631D01*
X494510Y95636D01*
D02*
G37*
G36*
X492790Y95614D02*
X491398D01*
X491338Y95609D01*
X491196D01*
X491043Y95598D01*
X490890Y95587D01*
X490825Y95581D01*
X490759Y95576D01*
X490705Y95565D01*
X490661Y95554D01*
X490656D01*
X490645Y95549D01*
X490628Y95543D01*
X490606Y95538D01*
X490546Y95510D01*
X490470Y95478D01*
X490388Y95428D01*
X490295Y95363D01*
X490208Y95281D01*
X490120Y95183D01*
Y95177D01*
X490109Y95172D01*
X490099Y95155D01*
X490088Y95134D01*
X490066Y95101D01*
X490050Y95068D01*
X490028Y95030D01*
X490006Y94986D01*
X489968Y94877D01*
X489929Y94757D01*
X489908Y94609D01*
X489897Y94451D01*
Y94391D01*
X489902Y94364D01*
Y94326D01*
X489913Y94249D01*
X489929Y94156D01*
X489951Y94052D01*
X489984Y93954D01*
X490028Y93861D01*
X490033Y93850D01*
X490050Y93823D01*
X490077Y93779D01*
X490115Y93725D01*
X490159Y93670D01*
X490219Y93605D01*
X490279Y93545D01*
X490350Y93490D01*
X490361Y93485D01*
X490382Y93468D01*
X490421Y93446D01*
X490470Y93419D01*
X490530Y93386D01*
X490595Y93359D01*
X490666Y93332D01*
X490743Y93310D01*
X490754D01*
X490770Y93305D01*
X490792D01*
X490819Y93299D01*
X490858Y93294D01*
X490896Y93288D01*
X490945D01*
X490994Y93283D01*
X491054Y93277D01*
X491120Y93272D01*
X491191Y93266D01*
X491267D01*
X491349Y93261D01*
X492026D01*
Y91836D01*
X492790D01*
Y95614D01*
D02*
G37*
%LPD*%
G36*
X494658Y93747D02*
X494707Y93736D01*
X494761Y93714D01*
X494822Y93687D01*
X494882Y93643D01*
X494936Y93588D01*
X494942Y93583D01*
X494958Y93556D01*
X494980Y93517D01*
X495007Y93468D01*
X495035Y93397D01*
X495056Y93315D01*
X495073Y93217D01*
X495078Y93103D01*
Y93097D01*
Y93086D01*
Y93070D01*
Y93042D01*
X495067Y92982D01*
X495056Y92901D01*
X495040Y92813D01*
X495013Y92720D01*
X494974Y92633D01*
X494920Y92557D01*
X494914Y92551D01*
X494893Y92529D01*
X494854Y92496D01*
X494811Y92464D01*
X494756Y92426D01*
X494696Y92398D01*
X494625Y92376D01*
X494549Y92365D01*
X494516D01*
X494478Y92376D01*
X494428Y92387D01*
X494379Y92404D01*
X494319Y92431D01*
X494265Y92469D01*
X494210Y92518D01*
X494205Y92524D01*
X494188Y92551D01*
X494166Y92589D01*
X494139Y92644D01*
X494117Y92715D01*
X494095Y92802D01*
X494079Y92911D01*
X494073Y93037D01*
Y93042D01*
Y93053D01*
Y93075D01*
Y93097D01*
X494079Y93163D01*
X494090Y93244D01*
X494112Y93332D01*
X494134Y93425D01*
X494172Y93512D01*
X494221Y93583D01*
X494226Y93588D01*
X494248Y93610D01*
X494276Y93638D01*
X494319Y93670D01*
X494374Y93703D01*
X494434Y93730D01*
X494505Y93752D01*
X494581Y93758D01*
X494614D01*
X494658Y93747D01*
D02*
G37*
G36*
X492026Y93900D02*
X491502D01*
X491464Y93905D01*
X491365D01*
X491267Y93911D01*
X491169Y93922D01*
X491081Y93938D01*
X491043Y93943D01*
X491010Y93954D01*
X491005Y93960D01*
X490983Y93965D01*
X490956Y93982D01*
X490923Y93998D01*
X490885Y94025D01*
X490847Y94058D01*
X490803Y94096D01*
X490770Y94140D01*
X490765Y94145D01*
X490754Y94162D01*
X490743Y94189D01*
X490727Y94227D01*
X490710Y94271D01*
X490694Y94320D01*
X490688Y94375D01*
X490683Y94435D01*
Y94446D01*
Y94468D01*
X490688Y94506D01*
X490699Y94555D01*
X490716Y94609D01*
X490737Y94670D01*
X490765Y94724D01*
X490808Y94779D01*
X490814Y94784D01*
X490830Y94801D01*
X490858Y94822D01*
X490890Y94850D01*
X490934Y94882D01*
X490989Y94910D01*
X491049Y94932D01*
X491114Y94948D01*
X491120D01*
X491142Y94953D01*
X491180Y94959D01*
X491234Y94964D01*
X491305D01*
X491354Y94970D01*
X491403D01*
X491458Y94975D01*
X492026D01*
Y93900D01*
D02*
G37*
%LPC*%
G36*
X494647Y147569D02*
X494592D01*
X494554Y147564D01*
X494505Y147558D01*
X494450Y147553D01*
X494390Y147542D01*
X494325Y147531D01*
X494183Y147493D01*
X494041Y147438D01*
X493964Y147406D01*
X493899Y147367D01*
X493828Y147318D01*
X493768Y147264D01*
X493762Y147258D01*
X493751Y147253D01*
X493740Y147231D01*
X493719Y147209D01*
X493691Y147182D01*
X493664Y147143D01*
X493637Y147105D01*
X493604Y147056D01*
X493549Y146947D01*
X493495Y146821D01*
X493473Y146750D01*
X493462Y146674D01*
X493451Y146592D01*
X493446Y146510D01*
Y146467D01*
X493451Y146417D01*
X493457Y146357D01*
X493467Y146281D01*
X493484Y146199D01*
X493506Y146112D01*
X493538Y146024D01*
X493544Y146013D01*
X493555Y145986D01*
X493577Y145937D01*
X493609Y145877D01*
X493648Y145806D01*
X493697Y145724D01*
X493757Y145637D01*
X493828Y145544D01*
X493833Y145538D01*
X493855Y145511D01*
X493888Y145473D01*
X493937Y145418D01*
X494002Y145353D01*
X494084Y145265D01*
X494183Y145173D01*
X494303Y145058D01*
X494308Y145052D01*
X494319Y145047D01*
X494336Y145030D01*
X494357Y145009D01*
X494417Y144954D01*
X494488Y144888D01*
X494559Y144818D01*
X494630Y144747D01*
X494696Y144686D01*
X494718Y144659D01*
X494740Y144637D01*
X494745Y144632D01*
X494756Y144621D01*
X494772Y144599D01*
X494794Y144572D01*
X494843Y144512D01*
X494887Y144441D01*
X493446D01*
Y143769D01*
X495985D01*
Y143786D01*
X495979Y143807D01*
X495974Y143835D01*
X495968Y143868D01*
X495963Y143906D01*
X495941Y144004D01*
X495908Y144113D01*
X495864Y144233D01*
X495810Y144364D01*
X495739Y144490D01*
Y144495D01*
X495728Y144506D01*
X495717Y144528D01*
X495695Y144550D01*
X495673Y144588D01*
X495641Y144626D01*
X495602Y144676D01*
X495559Y144730D01*
X495509Y144796D01*
X495449Y144861D01*
X495384Y144938D01*
X495307Y145020D01*
X495226Y145101D01*
X495133Y145194D01*
X495035Y145293D01*
X494925Y145396D01*
X494920Y145402D01*
X494903Y145418D01*
X494882Y145440D01*
X494849Y145473D01*
X494805Y145505D01*
X494761Y145549D01*
X494663Y145648D01*
X494565Y145751D01*
X494467Y145855D01*
X494423Y145899D01*
X494379Y145948D01*
X494347Y145986D01*
X494325Y146019D01*
X494319Y146030D01*
X494303Y146057D01*
X494276Y146101D01*
X494248Y146161D01*
X494221Y146226D01*
X494194Y146303D01*
X494177Y146379D01*
X494172Y146461D01*
Y146467D01*
Y146472D01*
Y146499D01*
X494177Y146548D01*
X494188Y146603D01*
X494205Y146663D01*
X494226Y146723D01*
X494259Y146783D01*
X494303Y146838D01*
X494308Y146843D01*
X494325Y146860D01*
X494357Y146881D01*
X494396Y146903D01*
X494450Y146925D01*
X494510Y146947D01*
X494581Y146963D01*
X494663Y146969D01*
X494701D01*
X494745Y146963D01*
X494794Y146952D01*
X494854Y146936D01*
X494914Y146909D01*
X494974Y146876D01*
X495029Y146832D01*
X495035Y146827D01*
X495051Y146805D01*
X495073Y146772D01*
X495094Y146723D01*
X495122Y146663D01*
X495144Y146581D01*
X495165Y146488D01*
X495176Y146379D01*
X495897Y146450D01*
Y146456D01*
X495892Y146477D01*
Y146505D01*
X495881Y146548D01*
X495875Y146598D01*
X495859Y146652D01*
X495843Y146712D01*
X495826Y146783D01*
X495772Y146920D01*
X495706Y147062D01*
X495662Y147133D01*
X495613Y147198D01*
X495559Y147253D01*
X495499Y147307D01*
X495493Y147313D01*
X495482Y147318D01*
X495466Y147329D01*
X495438Y147351D01*
X495406Y147367D01*
X495362Y147389D01*
X495318Y147416D01*
X495264Y147438D01*
X495204Y147466D01*
X495138Y147487D01*
X494996Y147531D01*
X494827Y147558D01*
X494740Y147564D01*
X494647Y147569D01*
D02*
G37*
G36*
X497568D02*
X496978D01*
Y143769D01*
X497704D01*
Y146505D01*
X497710Y146499D01*
X497721Y146488D01*
X497743Y146472D01*
X497775Y146445D01*
X497814Y146412D01*
X497857Y146379D01*
X497912Y146341D01*
X497972Y146297D01*
X498037Y146254D01*
X498108Y146210D01*
X498185Y146161D01*
X498267Y146117D01*
X498442Y146035D01*
X498638Y145959D01*
Y146614D01*
X498633D01*
X498627Y146619D01*
X498611Y146625D01*
X498589Y146630D01*
X498534Y146658D01*
X498458Y146690D01*
X498365Y146734D01*
X498261Y146794D01*
X498147Y146871D01*
X498027Y146958D01*
X498021Y146963D01*
X498010Y146969D01*
X497994Y146985D01*
X497972Y147007D01*
X497912Y147062D01*
X497846Y147133D01*
X497770Y147220D01*
X497693Y147329D01*
X497622Y147444D01*
X497568Y147569D01*
D02*
G37*
G36*
X492790Y147548D02*
X491398D01*
X491338Y147542D01*
X491196D01*
X491043Y147531D01*
X490890Y147520D01*
X490825Y147515D01*
X490759Y147509D01*
X490705Y147498D01*
X490661Y147487D01*
X490656D01*
X490645Y147482D01*
X490628Y147477D01*
X490606Y147471D01*
X490546Y147444D01*
X490470Y147411D01*
X490388Y147362D01*
X490295Y147296D01*
X490208Y147214D01*
X490120Y147116D01*
Y147111D01*
X490109Y147105D01*
X490099Y147089D01*
X490088Y147067D01*
X490066Y147034D01*
X490050Y147002D01*
X490028Y146963D01*
X490006Y146920D01*
X489968Y146810D01*
X489929Y146690D01*
X489908Y146543D01*
X489897Y146385D01*
Y146325D01*
X489902Y146297D01*
Y146259D01*
X489913Y146183D01*
X489929Y146090D01*
X489951Y145986D01*
X489984Y145888D01*
X490028Y145795D01*
X490033Y145784D01*
X490050Y145757D01*
X490077Y145713D01*
X490115Y145658D01*
X490159Y145604D01*
X490219Y145538D01*
X490279Y145478D01*
X490350Y145424D01*
X490361Y145418D01*
X490382Y145402D01*
X490421Y145380D01*
X490470Y145353D01*
X490530Y145320D01*
X490595Y145293D01*
X490666Y145265D01*
X490743Y145243D01*
X490754D01*
X490770Y145238D01*
X490792D01*
X490819Y145232D01*
X490858Y145227D01*
X490896Y145222D01*
X490945D01*
X490994Y145216D01*
X491054Y145211D01*
X491120Y145205D01*
X491191Y145200D01*
X491267D01*
X491349Y145194D01*
X492026D01*
Y143769D01*
X492790D01*
Y147548D01*
D02*
G37*
%LPD*%
G36*
X492026Y145833D02*
X491502D01*
X491464Y145839D01*
X491365D01*
X491267Y145844D01*
X491169Y145855D01*
X491081Y145871D01*
X491043Y145877D01*
X491010Y145888D01*
X491005Y145893D01*
X490983Y145899D01*
X490956Y145915D01*
X490923Y145931D01*
X490885Y145959D01*
X490847Y145992D01*
X490803Y146030D01*
X490770Y146073D01*
X490765Y146079D01*
X490754Y146095D01*
X490743Y146123D01*
X490727Y146161D01*
X490710Y146204D01*
X490694Y146254D01*
X490688Y146308D01*
X490683Y146368D01*
Y146379D01*
Y146401D01*
X490688Y146439D01*
X490699Y146488D01*
X490716Y146543D01*
X490737Y146603D01*
X490765Y146658D01*
X490808Y146712D01*
X490814Y146718D01*
X490830Y146734D01*
X490858Y146756D01*
X490890Y146783D01*
X490934Y146816D01*
X490989Y146843D01*
X491049Y146865D01*
X491114Y146881D01*
X491120D01*
X491142Y146887D01*
X491180Y146892D01*
X491234Y146898D01*
X491305D01*
X491354Y146903D01*
X491403D01*
X491458Y146909D01*
X492026D01*
Y145833D01*
D02*
G37*
%LPC*%
G36*
X492900Y219237D02*
X492163D01*
X490601Y216692D01*
Y219237D01*
X489897D01*
Y215458D01*
X490661D01*
X492195Y217948D01*
Y215458D01*
X492900D01*
Y219237D01*
D02*
G37*
G36*
X494783Y219258D02*
X494729D01*
X494696Y219253D01*
X494647Y219248D01*
X494598Y219242D01*
X494538Y219237D01*
X494478Y219226D01*
X494341Y219193D01*
X494199Y219144D01*
X494134Y219111D01*
X494063Y219073D01*
X494002Y219029D01*
X493942Y218980D01*
X493937Y218974D01*
X493931Y218969D01*
X493915Y218953D01*
X493893Y218931D01*
X493871Y218903D01*
X493850Y218871D01*
X493790Y218789D01*
X493735Y218685D01*
X493691Y218570D01*
X493653Y218434D01*
X493648Y218357D01*
X493642Y218281D01*
Y218276D01*
Y218270D01*
Y218237D01*
X493648Y218188D01*
X493658Y218123D01*
X493675Y218052D01*
X493702Y217975D01*
X493735Y217893D01*
X493784Y217811D01*
X493790Y217801D01*
X493811Y217779D01*
X493839Y217741D01*
X493882Y217697D01*
X493937Y217642D01*
X494002Y217593D01*
X494079Y217544D01*
X494166Y217500D01*
X494161D01*
X494150Y217495D01*
X494134Y217489D01*
X494112Y217478D01*
X494057Y217446D01*
X493986Y217402D01*
X493910Y217353D01*
X493828Y217287D01*
X493751Y217211D01*
X493686Y217124D01*
X493680Y217113D01*
X493658Y217080D01*
X493631Y217031D01*
X493604Y216965D01*
X493571Y216883D01*
X493549Y216785D01*
X493528Y216681D01*
X493522Y216567D01*
Y216517D01*
X493528Y216479D01*
X493533Y216436D01*
X493538Y216381D01*
X493549Y216326D01*
X493566Y216266D01*
X493604Y216130D01*
X493631Y216059D01*
X493664Y215988D01*
X493702Y215917D01*
X493751Y215846D01*
X493800Y215780D01*
X493860Y215715D01*
X493866Y215709D01*
X493877Y215699D01*
X493893Y215682D01*
X493921Y215666D01*
X493953Y215638D01*
X493997Y215611D01*
X494041Y215584D01*
X494095Y215551D01*
X494155Y215518D01*
X494226Y215491D01*
X494297Y215464D01*
X494374Y215436D01*
X494461Y215420D01*
X494554Y215404D01*
X494647Y215393D01*
X494750Y215387D01*
X494800D01*
X494838Y215393D01*
X494882Y215398D01*
X494931Y215404D01*
X494985Y215409D01*
X495051Y215420D01*
X495187Y215453D01*
X495329Y215502D01*
X495400Y215529D01*
X495471Y215567D01*
X495542Y215606D01*
X495608Y215655D01*
X495613Y215660D01*
X495624Y215671D01*
X495646Y215688D01*
X495673Y215715D01*
X495701Y215748D01*
X495733Y215786D01*
X495772Y215835D01*
X495810Y215884D01*
X495848Y215944D01*
X495886Y216010D01*
X495919Y216081D01*
X495946Y216163D01*
X495974Y216245D01*
X495995Y216337D01*
X496006Y216430D01*
X496012Y216534D01*
Y216588D01*
X496006Y216649D01*
X495995Y216720D01*
X495974Y216807D01*
X495952Y216905D01*
X495914Y217003D01*
X495864Y217102D01*
Y217107D01*
X495859Y217113D01*
X495837Y217145D01*
X495799Y217189D01*
X495744Y217249D01*
X495679Y217315D01*
X495597Y217380D01*
X495499Y217440D01*
X495384Y217500D01*
X495389D01*
X495395Y217506D01*
X495428Y217522D01*
X495477Y217549D01*
X495537Y217582D01*
X495608Y217631D01*
X495673Y217686D01*
X495739Y217752D01*
X495793Y217822D01*
X495799Y217833D01*
X495815Y217861D01*
X495832Y217899D01*
X495853Y217959D01*
X495881Y218024D01*
X495897Y218106D01*
X495914Y218188D01*
X495919Y218281D01*
Y218286D01*
Y218298D01*
Y218319D01*
X495914Y218352D01*
X495908Y218385D01*
X495903Y218428D01*
X495881Y218527D01*
X495848Y218636D01*
X495793Y218756D01*
X495761Y218811D01*
X495722Y218871D01*
X495673Y218925D01*
X495624Y218980D01*
X495619Y218985D01*
X495608Y218991D01*
X495591Y219007D01*
X495570Y219024D01*
X495537Y219045D01*
X495504Y219067D01*
X495460Y219095D01*
X495406Y219122D01*
X495351Y219144D01*
X495291Y219171D01*
X495220Y219193D01*
X495144Y219215D01*
X495062Y219231D01*
X494974Y219248D01*
X494882Y219253D01*
X494783Y219258D01*
D02*
G37*
%LPD*%
G36*
X494849Y218680D02*
X494898Y218669D01*
X494952Y218652D01*
X495007Y218631D01*
X495062Y218603D01*
X495111Y218560D01*
X495116Y218554D01*
X495127Y218538D01*
X495149Y218510D01*
X495171Y218472D01*
X495193Y218423D01*
X495215Y218368D01*
X495226Y218303D01*
X495231Y218227D01*
Y218216D01*
Y218188D01*
X495226Y218150D01*
X495215Y218101D01*
X495204Y218046D01*
X495182Y217992D01*
X495149Y217937D01*
X495111Y217888D01*
X495105Y217882D01*
X495089Y217872D01*
X495062Y217850D01*
X495023Y217828D01*
X494974Y217806D01*
X494920Y217784D01*
X494854Y217773D01*
X494783Y217768D01*
X494750D01*
X494712Y217773D01*
X494663Y217784D01*
X494609Y217795D01*
X494554Y217817D01*
X494499Y217850D01*
X494450Y217888D01*
X494445Y217893D01*
X494428Y217910D01*
X494412Y217937D01*
X494385Y217981D01*
X494363Y218030D01*
X494347Y218085D01*
X494330Y218156D01*
X494325Y218232D01*
Y218243D01*
Y218265D01*
X494330Y218303D01*
X494341Y218347D01*
X494357Y218401D01*
X494379Y218456D01*
X494407Y218510D01*
X494450Y218560D01*
X494456Y218565D01*
X494472Y218581D01*
X494499Y218598D01*
X494538Y218625D01*
X494587Y218647D01*
X494641Y218663D01*
X494707Y218680D01*
X494778Y218685D01*
X494811D01*
X494849Y218680D01*
D02*
G37*
G36*
X494865Y217184D02*
X494920Y217173D01*
X494985Y217151D01*
X495051Y217118D01*
X495116Y217069D01*
X495171Y217009D01*
X495176Y216998D01*
X495193Y216976D01*
X495209Y216938D01*
X495231Y216889D01*
X495258Y216829D01*
X495275Y216763D01*
X495291Y216687D01*
X495296Y216610D01*
Y216605D01*
Y216599D01*
Y216583D01*
Y216561D01*
X495286Y216507D01*
X495275Y216436D01*
X495258Y216359D01*
X495231Y216283D01*
X495193Y216206D01*
X495144Y216135D01*
X495138Y216130D01*
X495116Y216108D01*
X495084Y216086D01*
X495040Y216053D01*
X494985Y216026D01*
X494920Y215999D01*
X494843Y215977D01*
X494761Y215971D01*
X494723D01*
X494685Y215982D01*
X494630Y215993D01*
X494570Y216010D01*
X494510Y216037D01*
X494450Y216075D01*
X494390Y216130D01*
X494385Y216135D01*
X494368Y216163D01*
X494341Y216195D01*
X494314Y216250D01*
X494286Y216316D01*
X494259Y216397D01*
X494243Y216490D01*
X494237Y216599D01*
Y216605D01*
Y216610D01*
Y216643D01*
X494243Y216692D01*
X494254Y216752D01*
X494276Y216823D01*
X494303Y216894D01*
X494341Y216965D01*
X494390Y217031D01*
X494396Y217036D01*
X494417Y217058D01*
X494450Y217085D01*
X494494Y217113D01*
X494549Y217145D01*
X494614Y217167D01*
X494691Y217189D01*
X494772Y217195D01*
X494816D01*
X494865Y217184D01*
D02*
G37*
%LPC*%
G36*
X494756Y167254D02*
X494701D01*
X494663Y167249D01*
X494614Y167244D01*
X494559Y167238D01*
X494499Y167227D01*
X494434Y167216D01*
X494292Y167178D01*
X494150Y167123D01*
X494073Y167091D01*
X494008Y167052D01*
X493937Y167003D01*
X493877Y166949D01*
X493871Y166943D01*
X493860Y166938D01*
X493850Y166916D01*
X493828Y166894D01*
X493800Y166867D01*
X493773Y166829D01*
X493746Y166790D01*
X493713Y166741D01*
X493658Y166632D01*
X493604Y166506D01*
X493582Y166435D01*
X493571Y166359D01*
X493560Y166277D01*
X493555Y166195D01*
Y166151D01*
X493560Y166102D01*
X493566Y166042D01*
X493577Y165966D01*
X493593Y165884D01*
X493615Y165797D01*
X493648Y165709D01*
X493653Y165698D01*
X493664Y165671D01*
X493686Y165622D01*
X493719Y165562D01*
X493757Y165491D01*
X493806Y165409D01*
X493866Y165322D01*
X493937Y165229D01*
X493942Y165223D01*
X493964Y165196D01*
X493997Y165158D01*
X494046Y165103D01*
X494112Y165038D01*
X494194Y164950D01*
X494292Y164857D01*
X494412Y164743D01*
X494417Y164737D01*
X494428Y164732D01*
X494445Y164716D01*
X494467Y164694D01*
X494527Y164639D01*
X494598Y164574D01*
X494669Y164503D01*
X494740Y164432D01*
X494805Y164372D01*
X494827Y164344D01*
X494849Y164322D01*
X494854Y164317D01*
X494865Y164306D01*
X494882Y164284D01*
X494903Y164257D01*
X494952Y164197D01*
X494996Y164126D01*
X493555D01*
Y163454D01*
X496094D01*
Y163471D01*
X496088Y163493D01*
X496083Y163520D01*
X496077Y163552D01*
X496072Y163591D01*
X496050Y163689D01*
X496017Y163798D01*
X495974Y163918D01*
X495919Y164049D01*
X495848Y164175D01*
Y164180D01*
X495837Y164191D01*
X495826Y164213D01*
X495804Y164235D01*
X495783Y164273D01*
X495750Y164312D01*
X495712Y164361D01*
X495668Y164415D01*
X495619Y164481D01*
X495559Y164546D01*
X495493Y164623D01*
X495417Y164705D01*
X495335Y164787D01*
X495242Y164879D01*
X495144Y164978D01*
X495035Y165081D01*
X495029Y165087D01*
X495013Y165103D01*
X494991Y165125D01*
X494958Y165158D01*
X494914Y165191D01*
X494871Y165234D01*
X494772Y165332D01*
X494674Y165436D01*
X494576Y165540D01*
X494532Y165584D01*
X494488Y165633D01*
X494456Y165671D01*
X494434Y165704D01*
X494428Y165715D01*
X494412Y165742D01*
X494385Y165786D01*
X494357Y165846D01*
X494330Y165911D01*
X494303Y165988D01*
X494286Y166064D01*
X494281Y166146D01*
Y166151D01*
Y166157D01*
Y166184D01*
X494286Y166233D01*
X494297Y166288D01*
X494314Y166348D01*
X494336Y166408D01*
X494368Y166468D01*
X494412Y166523D01*
X494417Y166528D01*
X494434Y166545D01*
X494467Y166567D01*
X494505Y166588D01*
X494559Y166610D01*
X494620Y166632D01*
X494691Y166648D01*
X494772Y166654D01*
X494811D01*
X494854Y166648D01*
X494903Y166637D01*
X494964Y166621D01*
X495023Y166594D01*
X495084Y166561D01*
X495138Y166517D01*
X495144Y166512D01*
X495160Y166490D01*
X495182Y166457D01*
X495204Y166408D01*
X495231Y166348D01*
X495253Y166266D01*
X495275Y166173D01*
X495286Y166064D01*
X496006Y166135D01*
Y166141D01*
X496001Y166162D01*
Y166190D01*
X495990Y166233D01*
X495985Y166282D01*
X495968Y166337D01*
X495952Y166397D01*
X495935Y166468D01*
X495881Y166605D01*
X495815Y166747D01*
X495772Y166818D01*
X495722Y166883D01*
X495668Y166938D01*
X495608Y166992D01*
X495602Y166998D01*
X495591Y167003D01*
X495575Y167014D01*
X495548Y167036D01*
X495515Y167052D01*
X495471Y167074D01*
X495428Y167102D01*
X495373Y167123D01*
X495313Y167151D01*
X495247Y167173D01*
X495105Y167216D01*
X494936Y167244D01*
X494849Y167249D01*
X494756Y167254D01*
D02*
G37*
G36*
X497677D02*
X497087D01*
Y163454D01*
X497814D01*
Y166190D01*
X497819Y166184D01*
X497830Y166173D01*
X497852Y166157D01*
X497885Y166130D01*
X497923Y166097D01*
X497966Y166064D01*
X498021Y166026D01*
X498081Y165982D01*
X498147Y165939D01*
X498218Y165895D01*
X498294Y165846D01*
X498376Y165802D01*
X498551Y165720D01*
X498747Y165644D01*
Y166299D01*
X498742D01*
X498736Y166304D01*
X498720Y166310D01*
X498698Y166315D01*
X498643Y166343D01*
X498567Y166375D01*
X498474Y166419D01*
X498371Y166479D01*
X498256Y166556D01*
X498136Y166643D01*
X498130Y166648D01*
X498119Y166654D01*
X498103Y166670D01*
X498081Y166692D01*
X498021Y166747D01*
X497956Y166818D01*
X497879Y166905D01*
X497803Y167014D01*
X497732Y167129D01*
X497677Y167254D01*
D02*
G37*
G36*
X492900Y167233D02*
X492163D01*
X490601Y164688D01*
Y167233D01*
X489897D01*
Y163454D01*
X490661D01*
X492195Y165944D01*
Y163454D01*
X492900D01*
Y167233D01*
D02*
G37*
G36*
X193274Y220895D02*
X192246D01*
X191378Y218292D01*
X190518Y220895D01*
X189520D01*
X190810Y217366D01*
X191043Y216740D01*
X191051Y216725D01*
X191065Y216688D01*
X191094Y216630D01*
X191123Y216557D01*
X191160Y216477D01*
X191203Y216397D01*
X191247Y216324D01*
X191291Y216251D01*
X191298Y216244D01*
X191313Y216222D01*
X191335Y216193D01*
X191364Y216149D01*
X191444Y216061D01*
X191553Y215974D01*
X191561Y215967D01*
X191583Y215959D01*
X191612Y215938D01*
X191656Y215916D01*
X191707Y215894D01*
X191765Y215865D01*
X191838Y215835D01*
X191918Y215814D01*
X191925D01*
X191954Y215806D01*
X191998Y215792D01*
X192064Y215785D01*
X192137Y215770D01*
X192217Y215755D01*
X192312Y215748D01*
X192457D01*
X192516Y215755D01*
X192581D01*
X192669Y215763D01*
X192756Y215777D01*
X192953Y215814D01*
X193041Y216572D01*
X193033D01*
X193004Y216564D01*
X192960Y216557D01*
X192902Y216550D01*
X192844Y216535D01*
X192771Y216528D01*
X192632Y216521D01*
X192574D01*
X192516Y216535D01*
X192443Y216550D01*
X192363Y216572D01*
X192282Y216608D01*
X192202Y216659D01*
X192137Y216725D01*
X192129Y216732D01*
X192107Y216761D01*
X192078Y216805D01*
X192042Y216863D01*
X192005Y216936D01*
X191962Y217024D01*
X191925Y217119D01*
X191889Y217228D01*
X193274Y220895D01*
D02*
G37*
G36*
X218395Y222280D02*
X217316D01*
X215290Y217235D01*
X216390D01*
X216828Y218380D01*
X218854D01*
X219270Y217235D01*
X220349D01*
X218395Y222280D01*
D02*
G37*
G36*
X215100D02*
X211098D01*
Y221427D01*
X212585D01*
Y217235D01*
X213606D01*
Y221427D01*
X215100D01*
Y222280D01*
D02*
G37*
G36*
X208998D02*
X207920D01*
X205893Y217235D01*
X206994D01*
X207431Y218380D01*
X209458D01*
X209873Y217235D01*
X210952D01*
X208998Y222280D01*
D02*
G37*
G36*
X196999Y220975D02*
X196948D01*
X196882Y220968D01*
X196802Y220960D01*
X196715Y220946D01*
X196620Y220924D01*
X196518Y220895D01*
X196416Y220858D01*
X196401Y220851D01*
X196372Y220836D01*
X196321Y220815D01*
X196263Y220778D01*
X196197Y220734D01*
X196132Y220683D01*
X196066Y220625D01*
X196008Y220559D01*
X196000Y220552D01*
X195986Y220530D01*
X195964Y220494D01*
X195935Y220443D01*
X195898Y220385D01*
X195869Y220312D01*
X195840Y220239D01*
X195818Y220151D01*
Y220144D01*
X195811Y220108D01*
X195796Y220056D01*
X195789Y219984D01*
X195774Y219896D01*
X195767Y219779D01*
X195760Y219655D01*
Y217235D01*
X196729D01*
Y219094D01*
Y219101D01*
Y219123D01*
Y219152D01*
Y219189D01*
Y219240D01*
Y219291D01*
X196737Y219415D01*
X196744Y219539D01*
X196758Y219670D01*
X196773Y219779D01*
X196780Y219823D01*
X196795Y219860D01*
Y219867D01*
X196809Y219889D01*
X196824Y219918D01*
X196846Y219962D01*
X196912Y220049D01*
X196948Y220093D01*
X196999Y220129D01*
X197006Y220137D01*
X197021Y220144D01*
X197050Y220159D01*
X197094Y220180D01*
X197145Y220202D01*
X197196Y220217D01*
X197262Y220224D01*
X197334Y220231D01*
X197378D01*
X197422Y220224D01*
X197480Y220217D01*
X197553Y220195D01*
X197626Y220173D01*
X197706Y220137D01*
X197786Y220093D01*
X197794Y220086D01*
X197816Y220071D01*
X197852Y220035D01*
X197896Y219998D01*
X197940Y219940D01*
X197983Y219882D01*
X198027Y219801D01*
X198056Y219721D01*
Y219714D01*
X198071Y219677D01*
X198078Y219619D01*
X198093Y219531D01*
X198100Y219480D01*
X198107Y219415D01*
X198115Y219349D01*
Y219269D01*
X198122Y219189D01*
X198129Y219094D01*
Y218992D01*
Y218883D01*
Y217235D01*
X199099D01*
Y220895D01*
X198202D01*
Y220355D01*
X198195Y220363D01*
X198180Y220385D01*
X198151Y220414D01*
X198115Y220450D01*
X198071Y220501D01*
X198012Y220552D01*
X197947Y220610D01*
X197874Y220669D01*
X197794Y220720D01*
X197699Y220778D01*
X197604Y220829D01*
X197495Y220880D01*
X197378Y220917D01*
X197262Y220946D01*
X197130Y220968D01*
X196999Y220975D01*
D02*
G37*
G36*
X194783Y222280D02*
X193813D01*
Y217235D01*
X194783D01*
Y222280D01*
D02*
G37*
G36*
X201738Y220975D02*
X201657D01*
X201599Y220968D01*
X201526Y220960D01*
X201446Y220946D01*
X201351Y220931D01*
X201256Y220909D01*
X201147Y220880D01*
X201038Y220844D01*
X200928Y220800D01*
X200812Y220749D01*
X200695Y220683D01*
X200586Y220610D01*
X200476Y220530D01*
X200374Y220436D01*
X200367Y220428D01*
X200353Y220414D01*
X200323Y220377D01*
X200294Y220341D01*
X200250Y220282D01*
X200207Y220224D01*
X200156Y220144D01*
X200105Y220064D01*
X200061Y219969D01*
X200010Y219867D01*
X199966Y219750D01*
X199922Y219634D01*
X199893Y219502D01*
X199864Y219371D01*
X199849Y219225D01*
X199842Y219072D01*
Y218992D01*
X199849Y218934D01*
X199857Y218861D01*
X199871Y218781D01*
X199886Y218686D01*
X199908Y218591D01*
X199937Y218482D01*
X199973Y218372D01*
X200017Y218256D01*
X200068Y218139D01*
X200134Y218022D01*
X200207Y217913D01*
X200287Y217804D01*
X200382Y217694D01*
X200389Y217687D01*
X200403Y217673D01*
X200433Y217643D01*
X200476Y217607D01*
X200527Y217570D01*
X200593Y217527D01*
X200666Y217476D01*
X200746Y217425D01*
X200841Y217374D01*
X200943Y217323D01*
X201052Y217279D01*
X201176Y217243D01*
X201300Y217206D01*
X201439Y217177D01*
X201577Y217162D01*
X201730Y217155D01*
X201781D01*
X201818Y217162D01*
X201862D01*
X201913Y217170D01*
X202036Y217184D01*
X202190Y217213D01*
X202350Y217250D01*
X202518Y217308D01*
X202693Y217381D01*
X202700D01*
X202714Y217388D01*
X202736Y217403D01*
X202765Y217425D01*
X202846Y217476D01*
X202948Y217549D01*
X203057Y217643D01*
X203174Y217760D01*
X203283Y217891D01*
X203385Y218044D01*
Y218052D01*
X203392Y218066D01*
X203407Y218088D01*
X203422Y218125D01*
X203436Y218168D01*
X203458Y218219D01*
X203480Y218278D01*
X203502Y218343D01*
X203524Y218416D01*
X203545Y218496D01*
X203582Y218679D01*
X203611Y218890D01*
X203618Y219116D01*
Y219167D01*
X203611Y219196D01*
Y219240D01*
X203604Y219291D01*
X203589Y219415D01*
X203560Y219553D01*
X203516Y219707D01*
X203465Y219874D01*
X203385Y220042D01*
Y220049D01*
X203371Y220064D01*
X203363Y220086D01*
X203341Y220115D01*
X203283Y220195D01*
X203210Y220297D01*
X203115Y220406D01*
X202999Y220523D01*
X202868Y220632D01*
X202714Y220734D01*
X202707D01*
X202693Y220742D01*
X202671Y220756D01*
X202634Y220771D01*
X202598Y220793D01*
X202547Y220807D01*
X202488Y220829D01*
X202430Y220858D01*
X202284Y220902D01*
X202117Y220938D01*
X201934Y220968D01*
X201738Y220975D01*
D02*
G37*
G36*
X222777Y222375D02*
X222689D01*
X222623Y222367D01*
X222543Y222360D01*
X222448Y222353D01*
X222354Y222338D01*
X222244Y222324D01*
X222011Y222273D01*
X221894Y222236D01*
X221778Y222200D01*
X221661Y222149D01*
X221552Y222090D01*
X221450Y222025D01*
X221355Y221952D01*
X221348Y221944D01*
X221333Y221930D01*
X221311Y221908D01*
X221282Y221879D01*
X221246Y221835D01*
X221202Y221784D01*
X221158Y221726D01*
X221107Y221660D01*
X221063Y221580D01*
X221020Y221500D01*
X220976Y221405D01*
X220939Y221303D01*
X220903Y221201D01*
X220874Y221084D01*
X220852Y220968D01*
X220845Y220836D01*
X221865Y220800D01*
Y220807D01*
Y220815D01*
X221880Y220866D01*
X221894Y220931D01*
X221924Y221011D01*
X221960Y221106D01*
X222011Y221194D01*
X222077Y221281D01*
X222150Y221354D01*
X222157Y221361D01*
X222186Y221383D01*
X222237Y221412D01*
X222310Y221442D01*
X222397Y221471D01*
X222507Y221500D01*
X222638Y221522D01*
X222791Y221529D01*
X222864D01*
X222944Y221522D01*
X223039Y221507D01*
X223148Y221485D01*
X223265Y221449D01*
X223374Y221405D01*
X223476Y221340D01*
X223484Y221332D01*
X223498Y221318D01*
X223527Y221296D01*
X223557Y221259D01*
X223586Y221216D01*
X223615Y221157D01*
X223629Y221099D01*
X223637Y221026D01*
Y221019D01*
Y220997D01*
X223629Y220960D01*
X223615Y220924D01*
X223600Y220873D01*
X223578Y220822D01*
X223542Y220771D01*
X223491Y220720D01*
X223484Y220712D01*
X223447Y220691D01*
X223425Y220676D01*
X223389Y220661D01*
X223352Y220640D01*
X223301Y220618D01*
X223243Y220596D01*
X223178Y220567D01*
X223097Y220538D01*
X223017Y220508D01*
X222915Y220479D01*
X222806Y220450D01*
X222689Y220421D01*
X222558Y220385D01*
X222551D01*
X222521Y220377D01*
X222485Y220370D01*
X222434Y220355D01*
X222376Y220341D01*
X222303Y220319D01*
X222222Y220297D01*
X222142Y220275D01*
X221967Y220217D01*
X221785Y220159D01*
X221610Y220093D01*
X221537Y220056D01*
X221464Y220020D01*
X221457D01*
X221450Y220013D01*
X221406Y219984D01*
X221340Y219940D01*
X221260Y219882D01*
X221173Y219809D01*
X221078Y219721D01*
X220983Y219619D01*
X220903Y219502D01*
X220896Y219488D01*
X220874Y219444D01*
X220837Y219378D01*
X220801Y219284D01*
X220764Y219167D01*
X220728Y219028D01*
X220706Y218875D01*
X220699Y218701D01*
Y218628D01*
X220706Y218591D01*
X220713Y218540D01*
X220728Y218438D01*
X220757Y218307D01*
X220801Y218168D01*
X220867Y218030D01*
X220947Y217884D01*
Y217877D01*
X220961Y217869D01*
X220990Y217826D01*
X221049Y217753D01*
X221122Y217673D01*
X221217Y217578D01*
X221340Y217490D01*
X221472Y217403D01*
X221632Y217323D01*
X221639D01*
X221654Y217315D01*
X221676Y217308D01*
X221712Y217294D01*
X221756Y217279D01*
X221807Y217264D01*
X221865Y217250D01*
X221931Y217235D01*
X222011Y217213D01*
X222091Y217199D01*
X222281Y217170D01*
X222492Y217148D01*
X222726Y217140D01*
X222820D01*
X222886Y217148D01*
X222966Y217155D01*
X223054Y217162D01*
X223156Y217177D01*
X223265Y217199D01*
X223505Y217250D01*
X223629Y217286D01*
X223746Y217323D01*
X223870Y217374D01*
X223987Y217432D01*
X224096Y217498D01*
X224198Y217578D01*
X224205Y217585D01*
X224220Y217600D01*
X224249Y217622D01*
X224278Y217658D01*
X224322Y217709D01*
X224366Y217767D01*
X224417Y217833D01*
X224468Y217906D01*
X224519Y217993D01*
X224570Y218088D01*
X224621Y218197D01*
X224672Y218314D01*
X224708Y218438D01*
X224752Y218577D01*
X224781Y218722D01*
X224803Y218875D01*
X223812Y218970D01*
Y218963D01*
X223804Y218948D01*
Y218919D01*
X223797Y218890D01*
X223768Y218802D01*
X223731Y218693D01*
X223688Y218569D01*
X223622Y218445D01*
X223549Y218336D01*
X223454Y218234D01*
X223440Y218227D01*
X223404Y218197D01*
X223345Y218161D01*
X223258Y218117D01*
X223148Y218074D01*
X223024Y218037D01*
X222879Y218008D01*
X222711Y218001D01*
X222631D01*
X222543Y218015D01*
X222434Y218030D01*
X222317Y218052D01*
X222193Y218088D01*
X222077Y218139D01*
X221975Y218205D01*
X221960Y218212D01*
X221931Y218241D01*
X221894Y218285D01*
X221843Y218343D01*
X221800Y218416D01*
X221756Y218504D01*
X221727Y218591D01*
X221720Y218693D01*
Y218701D01*
Y218722D01*
X221727Y218759D01*
X221734Y218802D01*
X221749Y218846D01*
X221763Y218897D01*
X221792Y218948D01*
X221829Y218999D01*
X221836Y219007D01*
X221851Y219021D01*
X221873Y219043D01*
X221909Y219072D01*
X221960Y219109D01*
X222026Y219145D01*
X222099Y219182D01*
X222193Y219218D01*
X222201D01*
X222230Y219233D01*
X222281Y219247D01*
X222317Y219262D01*
X222361Y219269D01*
X222412Y219284D01*
X222470Y219305D01*
X222536Y219320D01*
X222609Y219342D01*
X222696Y219364D01*
X222791Y219386D01*
X222893Y219415D01*
X223010Y219444D01*
X223017D01*
X223046Y219451D01*
X223090Y219466D01*
X223141Y219480D01*
X223207Y219502D01*
X223287Y219524D01*
X223367Y219553D01*
X223462Y219583D01*
X223651Y219655D01*
X223834Y219743D01*
X223928Y219787D01*
X224008Y219838D01*
X224089Y219889D01*
X224154Y219940D01*
X224162Y219947D01*
X224176Y219962D01*
X224198Y219984D01*
X224227Y220013D01*
X224264Y220056D01*
X224300Y220108D01*
X224344Y220159D01*
X224380Y220224D01*
X224468Y220377D01*
X224541Y220552D01*
X224570Y220647D01*
X224592Y220742D01*
X224606Y220851D01*
X224614Y220960D01*
Y220968D01*
Y220975D01*
Y220997D01*
Y221026D01*
X224599Y221099D01*
X224585Y221194D01*
X224563Y221303D01*
X224526Y221427D01*
X224475Y221558D01*
X224402Y221682D01*
Y221689D01*
X224395Y221697D01*
X224359Y221740D01*
X224315Y221799D01*
X224242Y221872D01*
X224154Y221952D01*
X224045Y222039D01*
X223921Y222119D01*
X223775Y222192D01*
X223768D01*
X223753Y222200D01*
X223731Y222207D01*
X223702Y222221D01*
X223659Y222236D01*
X223615Y222251D01*
X223557Y222265D01*
X223491Y222287D01*
X223345Y222316D01*
X223178Y222345D01*
X222988Y222367D01*
X222777Y222375D01*
D02*
G37*
%LPD*%
G36*
X218548Y219233D02*
X217156D01*
X217863Y221106D01*
X218548Y219233D01*
D02*
G37*
G36*
X209152D02*
X207759D01*
X208466Y221106D01*
X209152Y219233D01*
D02*
G37*
G36*
X201796Y220180D02*
X201862Y220173D01*
X201949Y220151D01*
X202051Y220115D01*
X202160Y220064D01*
X202270Y219991D01*
X202372Y219896D01*
X202379Y219882D01*
X202408Y219845D01*
X202452Y219772D01*
X202496Y219685D01*
X202547Y219568D01*
X202583Y219422D01*
X202612Y219254D01*
X202627Y219065D01*
Y219058D01*
Y219043D01*
Y219014D01*
X202620Y218977D01*
Y218927D01*
X202612Y218875D01*
X202598Y218759D01*
X202561Y218620D01*
X202518Y218482D01*
X202459Y218343D01*
X202372Y218227D01*
X202357Y218212D01*
X202328Y218183D01*
X202270Y218139D01*
X202190Y218088D01*
X202102Y218030D01*
X201993Y217986D01*
X201869Y217957D01*
X201730Y217942D01*
X201694D01*
X201665Y217950D01*
X201599Y217957D01*
X201512Y217979D01*
X201410Y218015D01*
X201300Y218059D01*
X201198Y218132D01*
X201096Y218227D01*
X201081Y218241D01*
X201052Y218278D01*
X201016Y218351D01*
X200965Y218438D01*
X200914Y218562D01*
X200877Y218701D01*
X200848Y218875D01*
X200834Y219065D01*
Y219072D01*
Y219087D01*
Y219116D01*
X200841Y219152D01*
Y219196D01*
X200848Y219254D01*
X200863Y219371D01*
X200899Y219502D01*
X200943Y219641D01*
X201009Y219779D01*
X201096Y219896D01*
X201111Y219911D01*
X201140Y219940D01*
X201198Y219991D01*
X201271Y220042D01*
X201366Y220093D01*
X201468Y220144D01*
X201592Y220173D01*
X201730Y220188D01*
X201767D01*
X201796Y220180D01*
D02*
G37*
D13*
X332739Y369141D02*
X328740D01*
Y368141D01*
X332739Y364142D01*
Y363143D01*
X328740D01*
X326741D02*
X324741D01*
X325741D01*
Y369141D01*
X326741Y368141D01*
X371140Y-9206D02*
X367141D01*
Y-10205D01*
X371140Y-14204D01*
Y-15204D01*
X367141D01*
X365142Y-10205D02*
X364142Y-9206D01*
X362143D01*
X361143Y-10205D01*
Y-11205D01*
X362143Y-12205D01*
X363143D01*
X362143D01*
X361143Y-13204D01*
Y-14204D01*
X362143Y-15204D01*
X364142D01*
X365142Y-14204D01*
X527833Y289613D02*
X523834D01*
Y288614D01*
X527833Y284615D01*
Y283615D01*
X523834D01*
X517836D02*
X521835D01*
X517836Y287614D01*
Y288614D01*
X518836Y289613D01*
X520835D01*
X521835Y288614D01*
D14*
X124016Y344882D02*
X123228D01*
X124016D01*
X503740Y268701D02*
X502953D01*
X503740D01*
X109646Y-16339D02*
X108858D01*
X109646D01*
X322835Y347244D02*
Y369291D01*
X110236Y350787D02*
X113779Y347244D01*
X110236Y350787D02*
Y369291D01*
X314016Y347244D02*
X322835D01*
X314016Y369291D02*
X322835D01*
X110236D02*
X119055D01*
X113779Y347244D02*
X116520D01*
X504724Y19685D02*
Y28504D01*
X526772Y19685D02*
Y28504D01*
Y270709D02*
Y279528D01*
X510827D02*
X526772D01*
X504724Y273425D02*
X510827Y279528D01*
X504724Y19685D02*
X526772D01*
X504724Y270709D02*
Y273425D01*
X349449Y-14961D02*
X358268D01*
X349449Y7087D02*
X358268D01*
X98425D02*
X107244D01*
X98425Y-8858D02*
Y7087D01*
Y-8858D02*
X104527Y-14961D01*
X358268D02*
Y7087D01*
X104527Y-14961D02*
X107244D01*
M02*
