G04*
G04 #@! TF.GenerationSoftware,Altium Limited,Altium Designer,26.5.0 (11)*
G04*
G04 Layer_Color=32896*
G04 Board_Origin=11968504|11968504*
%FSLAX25Y25*%
%MOIN*%
G70*
G04*
G04 #@! TF.SameCoordinates,E0E41B1B-5716-4650-BC9E-1E0D2F5229BA*
G04*
G04*
G04 #@! TF.FilePolarity,Positive*
G04*
G01*
G75*
%ADD11C,0.00787*%
%ADD13C,0.00984*%
%ADD14C,0.01000*%
%ADD16C,0.00591*%
D11*
X124016Y344882D02*
X123228D01*
X124016D01*
X503740Y268701D02*
X502953D01*
X503740D01*
X109646Y-16339D02*
X108858D01*
X109646D01*
X147441Y274213D02*
Y274606D01*
X150197Y274213D02*
Y274606D01*
X141535Y291535D02*
X153346D01*
X141535Y288779D02*
X153346D01*
X141535D02*
Y291535D01*
X153346Y288779D02*
Y291535D01*
X322835Y347244D02*
Y369291D01*
X110236Y350787D02*
X113779Y347244D01*
X110236Y350787D02*
Y369291D01*
X314016Y347244D02*
X322835D01*
X314016Y369291D02*
X322835D01*
X110236D02*
X119055D01*
X113779Y347244D02*
X116520D01*
X504724Y19685D02*
Y28504D01*
X526772Y19685D02*
Y28504D01*
Y270709D02*
Y279528D01*
X510827D02*
X526772D01*
X504724Y273425D02*
X510827Y279528D01*
X504724Y19685D02*
X526772D01*
X504724Y270709D02*
Y273425D01*
X349449Y-14961D02*
X358268D01*
X349449Y7087D02*
X358268D01*
X98425D02*
X107244D01*
X98425Y-8858D02*
Y7087D01*
Y-8858D02*
X104527Y-14961D01*
X358268D02*
Y7087D01*
X104527Y-14961D02*
X107244D01*
D13*
X155118Y285433D02*
X154380Y285859D01*
Y285007D01*
X155118Y285433D01*
D14*
X332739Y369141D02*
X328740D01*
Y368141D01*
X332739Y364142D01*
Y363143D01*
X328740D01*
X326741D02*
X324741D01*
X325741D01*
Y369141D01*
X326741Y368141D01*
X371140Y-9206D02*
X367141D01*
Y-10205D01*
X371140Y-14204D01*
Y-15204D01*
X367141D01*
X365142Y-10205D02*
X364142Y-9206D01*
X362143D01*
X361143Y-10205D01*
Y-11205D01*
X362143Y-12205D01*
X363143D01*
X362143D01*
X361143Y-13204D01*
Y-14204D01*
X362143Y-15204D01*
X364142D01*
X365142Y-14204D01*
X527833Y289613D02*
X523834D01*
Y288614D01*
X527833Y284615D01*
Y283615D01*
X523834D01*
X517836D02*
X521835D01*
X517836Y287614D01*
Y288614D01*
X518836Y289613D01*
X520835D01*
X521835Y288614D01*
D16*
X142913Y308268D02*
X148425D01*
X142913Y313268D02*
X143669D01*
X142913Y303268D02*
Y313268D01*
Y303268D02*
X143669D01*
X147669D02*
X148425D01*
Y313268D01*
X147669D02*
X148425D01*
X135433Y277953D02*
X140945D01*
X135433Y282953D02*
X136189D01*
X135433Y272953D02*
Y282953D01*
Y272953D02*
X136189D01*
X140189D02*
X140945D01*
Y282953D01*
X140189D02*
X140945D01*
X138780Y310564D02*
Y308727D01*
X139239D01*
X141076Y310564D01*
X141535D01*
Y308727D01*
X138780Y307809D02*
Y305972D01*
X139239D01*
X141076Y307809D01*
X141535D01*
X141930Y280249D02*
Y278412D01*
X142389D01*
X144225Y280249D01*
X144685D01*
Y278412D01*
X141930Y275657D02*
X142389Y276575D01*
X143307Y277494D01*
X144225D01*
X144685Y277034D01*
Y276116D01*
X144225Y275657D01*
X143766D01*
X143307Y276116D01*
Y277494D01*
X157546Y300918D02*
X158005Y301378D01*
X158923D01*
X159382Y300918D01*
Y299082D01*
X158923Y298622D01*
X158005D01*
X157546Y299082D01*
X154791Y301378D02*
X155709Y300918D01*
X156627Y300000D01*
Y299082D01*
X156168Y298622D01*
X155250D01*
X154791Y299082D01*
Y299541D01*
X155250Y300000D01*
X156627D01*
X149278Y268241D02*
X149737Y268700D01*
X150655D01*
X151115Y268241D01*
Y266405D01*
X150655Y265945D01*
X149737D01*
X149278Y266405D01*
X146523Y268700D02*
X148360D01*
Y267323D01*
X147441Y267782D01*
X146982D01*
X146523Y267323D01*
Y266405D01*
X146982Y265945D01*
X147900D01*
X148360Y266405D01*
X154725Y292453D02*
X157480D01*
Y291076D01*
X157021Y290617D01*
X156562D01*
X156102Y291076D01*
Y292453D01*
Y291076D01*
X155643Y290617D01*
X155184D01*
X154725Y291076D01*
Y292453D01*
X157480Y287862D02*
Y289698D01*
X155643Y287862D01*
X155184D01*
X154725Y288321D01*
Y289239D01*
X155184Y289698D01*
M02*
