G04*
G04 #@! TF.GenerationSoftware,Altium Limited,Altium Designer,26.5.0 (11)*
G04*
G04 Layer_Color=128*
G04 Board_Origin=11968504|11968504*
%FSLAX25Y25*%
%MOIN*%
G70*
G04*
G04 #@! TF.SameCoordinates,E0E41B1B-5716-4650-BC9E-1E0D2F5229BA*
G04*
G04*
G04 #@! TF.FilePolarity,Positive*
G04*
G01*
G75*
%ADD21R,0.03740X0.03347*%
G04:AMPARAMS|DCode=49|XSize=43.31mil|YSize=19.68mil|CornerRadius=3.25mil|HoleSize=0mil|Usage=FLASHONLY|Rotation=180.000|XOffset=0mil|YOffset=0mil|HoleType=Round|Shape=RoundedRectangle|*
%AMROUNDEDRECTD49*
21,1,0.04331,0.01319,0,0,180.0*
21,1,0.03681,0.01968,0,0,180.0*
1,1,0.00650,-0.01841,0.00659*
1,1,0.00650,0.01841,0.00659*
1,1,0.00650,0.01841,-0.00659*
1,1,0.00650,-0.01841,-0.00659*
%
%ADD49ROUNDEDRECTD49*%
G04:AMPARAMS|DCode=50|XSize=27.95mil|YSize=34.65mil|CornerRadius=4.61mil|HoleSize=0mil|Usage=FLASHONLY|Rotation=180.000|XOffset=0mil|YOffset=0mil|HoleType=Round|Shape=RoundedRectangle|*
%AMROUNDEDRECTD50*
21,1,0.02795,0.02542,0,0,180.0*
21,1,0.01873,0.03465,0,0,180.0*
1,1,0.00922,-0.00936,0.01271*
1,1,0.00922,0.00936,0.01271*
1,1,0.00922,0.00936,-0.01271*
1,1,0.00922,-0.00936,-0.01271*
%
%ADD50ROUNDEDRECTD50*%
%ADD51R,0.03543X0.02756*%
%ADD52R,0.02559X0.03543*%
G04:AMPARAMS|DCode=53|XSize=43.31mil|YSize=19.68mil|CornerRadius=3.25mil|HoleSize=0mil|Usage=FLASHONLY|Rotation=270.000|XOffset=0mil|YOffset=0mil|HoleType=Round|Shape=RoundedRectangle|*
%AMROUNDEDRECTD53*
21,1,0.04331,0.01319,0,0,270.0*
21,1,0.03681,0.01968,0,0,270.0*
1,1,0.00650,-0.00659,-0.01841*
1,1,0.00650,-0.00659,0.01841*
1,1,0.00650,0.00659,0.01841*
1,1,0.00650,0.00659,-0.01841*
%
%ADD53ROUNDEDRECTD53*%
G04:AMPARAMS|DCode=54|XSize=19.68mil|YSize=43.31mil|CornerRadius=3.25mil|HoleSize=0mil|Usage=FLASHONLY|Rotation=0.000|XOffset=0mil|YOffset=0mil|HoleType=Round|Shape=RoundedRectangle|*
%AMROUNDEDRECTD54*
21,1,0.01968,0.03681,0,0,0.0*
21,1,0.01319,0.04331,0,0,0.0*
1,1,0.00650,0.00659,-0.01841*
1,1,0.00650,-0.00659,-0.01841*
1,1,0.00650,-0.00659,0.01841*
1,1,0.00650,0.00659,0.01841*
%
%ADD54ROUNDEDRECTD54*%
D21*
X145669Y310827D02*
D03*
Y305709D02*
D03*
X138189Y280512D02*
D03*
Y275394D02*
D03*
D49*
X508268Y155905D02*
D03*
Y77165D02*
D03*
Y61417D02*
D03*
X523228Y74016D02*
D03*
X508268Y225197D02*
D03*
X523228D02*
D03*
X508268Y215748D02*
D03*
X523228D02*
D03*
X508268Y206299D02*
D03*
X523228D02*
D03*
X508268Y196850D02*
D03*
X523228D02*
D03*
X508268Y187402D02*
D03*
X523228D02*
D03*
X508268Y177953D02*
D03*
X523228D02*
D03*
X508268Y168504D02*
D03*
X523228D02*
D03*
X508268Y159055D02*
D03*
X523228D02*
D03*
X508268Y149606D02*
D03*
X523228D02*
D03*
X508268Y130709D02*
D03*
X523228D02*
D03*
X508268Y114961D02*
D03*
X523228D02*
D03*
X508268Y99213D02*
D03*
X523228D02*
D03*
X508268Y83465D02*
D03*
X523228D02*
D03*
X508268Y67716D02*
D03*
X523228D02*
D03*
X508268Y51968D02*
D03*
X523228D02*
D03*
X508268Y33071D02*
D03*
X523228D02*
D03*
Y64567D02*
D03*
X508268Y58268D02*
D03*
Y55118D02*
D03*
X523228Y70866D02*
D03*
X508268Y80315D02*
D03*
X523228Y61417D02*
D03*
X508268Y64567D02*
D03*
X523228Y58268D02*
D03*
Y55118D02*
D03*
X508268Y42520D02*
D03*
X523228Y96063D02*
D03*
Y92913D02*
D03*
Y48819D02*
D03*
X508268Y86614D02*
D03*
X523228Y45669D02*
D03*
Y89764D02*
D03*
X508268Y96063D02*
D03*
Y39370D02*
D03*
X523228Y105512D02*
D03*
Y42520D02*
D03*
X508268Y48819D02*
D03*
Y92913D02*
D03*
Y89764D02*
D03*
Y45669D02*
D03*
X523228Y108661D02*
D03*
Y127559D02*
D03*
X508268Y102362D02*
D03*
X523228Y124409D02*
D03*
X508268Y111811D02*
D03*
Y118110D02*
D03*
X523228Y121260D02*
D03*
X508268Y127559D02*
D03*
Y108661D02*
D03*
Y105512D02*
D03*
Y124409D02*
D03*
Y121260D02*
D03*
X523228Y111811D02*
D03*
Y190551D02*
D03*
Y193701D02*
D03*
X508268Y171653D02*
D03*
Y174803D02*
D03*
Y152756D02*
D03*
Y218898D02*
D03*
X523228Y222047D02*
D03*
Y209449D02*
D03*
X508268Y190551D02*
D03*
Y193701D02*
D03*
X523228Y165354D02*
D03*
X508268Y222047D02*
D03*
X523228Y181102D02*
D03*
Y184252D02*
D03*
X508268Y165354D02*
D03*
Y209449D02*
D03*
X523228Y212598D02*
D03*
Y162205D02*
D03*
Y200000D02*
D03*
X508268Y181102D02*
D03*
Y184252D02*
D03*
Y162205D02*
D03*
X523228Y155905D02*
D03*
Y174803D02*
D03*
X508268Y212598D02*
D03*
X523228Y218898D02*
D03*
X508268Y200000D02*
D03*
Y203150D02*
D03*
X523228D02*
D03*
Y171653D02*
D03*
Y152756D02*
D03*
X508268Y266142D02*
D03*
X523228D02*
D03*
X508268Y256693D02*
D03*
X523228D02*
D03*
X508268Y247244D02*
D03*
X523228D02*
D03*
X508268Y237795D02*
D03*
X523228D02*
D03*
X508268Y228346D02*
D03*
X523228D02*
D03*
X508268Y234646D02*
D03*
X523228Y36220D02*
D03*
X508268D02*
D03*
X523228Y39370D02*
D03*
X508268Y70866D02*
D03*
Y74016D02*
D03*
X523228Y77165D02*
D03*
Y80315D02*
D03*
Y86614D02*
D03*
Y102362D02*
D03*
Y118110D02*
D03*
Y133858D02*
D03*
X508268D02*
D03*
X523228Y137008D02*
D03*
X508268D02*
D03*
X523228Y140157D02*
D03*
X508268D02*
D03*
X523228Y143307D02*
D03*
X508268D02*
D03*
X523228Y146457D02*
D03*
X508268D02*
D03*
X523228Y231496D02*
D03*
X508268D02*
D03*
X523228Y234646D02*
D03*
Y240945D02*
D03*
X508268D02*
D03*
X523228Y244094D02*
D03*
X508268D02*
D03*
X523228Y250394D02*
D03*
X508268D02*
D03*
X523228Y253543D02*
D03*
X508268D02*
D03*
X523228Y259842D02*
D03*
X508268D02*
D03*
X523228Y262992D02*
D03*
X508268D02*
D03*
D50*
X151850Y300000D02*
D03*
X145787D02*
D03*
D51*
X148819Y277165D02*
D03*
Y271654D02*
D03*
D52*
X151181Y294882D02*
D03*
X143701Y285433D02*
D03*
X151181D02*
D03*
X143701Y294882D02*
D03*
X147441Y285433D02*
D03*
D53*
X231496Y-11417D02*
D03*
X111811D02*
D03*
Y3543D02*
D03*
X130709Y-11417D02*
D03*
Y3543D02*
D03*
X140157Y-11417D02*
D03*
Y3543D02*
D03*
X149606Y-11417D02*
D03*
Y3543D02*
D03*
X159055Y-11417D02*
D03*
Y3543D02*
D03*
X168504Y-11417D02*
D03*
Y3543D02*
D03*
X177953Y-11417D02*
D03*
Y3543D02*
D03*
X187402Y-11417D02*
D03*
Y3543D02*
D03*
X196850Y-11417D02*
D03*
Y3543D02*
D03*
X206299Y-11417D02*
D03*
Y3543D02*
D03*
X215748Y-11417D02*
D03*
Y3543D02*
D03*
X225197Y-11417D02*
D03*
Y3543D02*
D03*
X234646Y-11417D02*
D03*
Y3543D02*
D03*
X244094Y-11417D02*
D03*
Y3543D02*
D03*
X253543Y-11417D02*
D03*
Y3543D02*
D03*
X262992Y-11417D02*
D03*
Y3543D02*
D03*
X272441Y-11417D02*
D03*
Y3543D02*
D03*
X281890Y-11417D02*
D03*
Y3543D02*
D03*
X291339Y-11417D02*
D03*
Y3543D02*
D03*
X300787Y-11417D02*
D03*
Y3543D02*
D03*
X310236Y-11417D02*
D03*
Y3543D02*
D03*
X316535Y-11417D02*
D03*
Y3543D02*
D03*
X325984Y-11417D02*
D03*
Y3543D02*
D03*
X335433Y-11417D02*
D03*
Y3543D02*
D03*
X341732D02*
D03*
X344882Y-11417D02*
D03*
Y3543D02*
D03*
X228346Y-11417D02*
D03*
Y3543D02*
D03*
X231496D02*
D03*
X165354D02*
D03*
X193701Y-11417D02*
D03*
X184252D02*
D03*
X181102Y3543D02*
D03*
X190551Y-11417D02*
D03*
X181102D02*
D03*
X190551Y3543D02*
D03*
X174803Y-11417D02*
D03*
X184252Y3543D02*
D03*
X193701D02*
D03*
X162205D02*
D03*
X171653Y-11417D02*
D03*
Y3543D02*
D03*
X200000Y-11417D02*
D03*
X203150Y3543D02*
D03*
X212598D02*
D03*
X222047Y-11417D02*
D03*
X218898Y3543D02*
D03*
Y-11417D02*
D03*
X212598D02*
D03*
X200000Y3543D02*
D03*
X209449Y-11417D02*
D03*
Y3543D02*
D03*
X155905D02*
D03*
X165354Y-11417D02*
D03*
X133858D02*
D03*
X162205D02*
D03*
X133858Y3543D02*
D03*
X143307D02*
D03*
X137008D02*
D03*
X146457Y-11417D02*
D03*
X152756D02*
D03*
X143307D02*
D03*
X152756Y3543D02*
D03*
X137008Y-11417D02*
D03*
X146457Y3543D02*
D03*
X341732Y-11417D02*
D03*
X338583Y3543D02*
D03*
Y-11417D02*
D03*
X332283Y3543D02*
D03*
Y-11417D02*
D03*
X329134Y3543D02*
D03*
Y-11417D02*
D03*
X322835Y3543D02*
D03*
Y-11417D02*
D03*
X319685Y3543D02*
D03*
Y-11417D02*
D03*
X313386Y3543D02*
D03*
Y-11417D02*
D03*
X307087Y3543D02*
D03*
Y-11417D02*
D03*
X303937Y3543D02*
D03*
Y-11417D02*
D03*
X297638Y3543D02*
D03*
Y-11417D02*
D03*
X294488Y3543D02*
D03*
Y-11417D02*
D03*
X288189Y3543D02*
D03*
Y-11417D02*
D03*
X285039Y3543D02*
D03*
Y-11417D02*
D03*
X278740Y3543D02*
D03*
Y-11417D02*
D03*
X275590Y3543D02*
D03*
Y-11417D02*
D03*
X269291Y3543D02*
D03*
Y-11417D02*
D03*
X266142Y3543D02*
D03*
Y-11417D02*
D03*
X259842Y3543D02*
D03*
Y-11417D02*
D03*
X256693Y3543D02*
D03*
Y-11417D02*
D03*
X250394Y3543D02*
D03*
Y-11417D02*
D03*
X247244Y3543D02*
D03*
Y-11417D02*
D03*
X240945Y3543D02*
D03*
Y-11417D02*
D03*
X237795Y3543D02*
D03*
Y-11417D02*
D03*
X222047Y3543D02*
D03*
X203150Y-11417D02*
D03*
X174803Y3543D02*
D03*
X155905Y-11417D02*
D03*
X127559Y3543D02*
D03*
Y-11417D02*
D03*
X124409Y3543D02*
D03*
Y-11417D02*
D03*
X121260Y3543D02*
D03*
Y-11417D02*
D03*
X118110Y3543D02*
D03*
Y-11417D02*
D03*
X114961Y3543D02*
D03*
Y-11417D02*
D03*
D54*
X123622Y365748D02*
D03*
Y350787D02*
D03*
X133071Y365748D02*
D03*
X139370D02*
D03*
X142520D02*
D03*
X148819D02*
D03*
X155118D02*
D03*
X161417D02*
D03*
X177165D02*
D03*
X186614D02*
D03*
X199213D02*
D03*
X214961D02*
D03*
X224410D02*
D03*
X233858D02*
D03*
X243307D02*
D03*
X252756D02*
D03*
X268504D02*
D03*
X284252D02*
D03*
X309449D02*
D03*
X133071Y350787D02*
D03*
X139370D02*
D03*
X142520D02*
D03*
X148819D02*
D03*
X155118D02*
D03*
X161417D02*
D03*
X177165D02*
D03*
X186614D02*
D03*
X199213D02*
D03*
X214961D02*
D03*
X224410D02*
D03*
X233858D02*
D03*
X243307D02*
D03*
X252756D02*
D03*
X255906D02*
D03*
X268504D02*
D03*
X284252D02*
D03*
X300000D02*
D03*
X309449D02*
D03*
X151969Y365748D02*
D03*
Y350787D02*
D03*
X306299D02*
D03*
X303150D02*
D03*
X296850D02*
D03*
X293701D02*
D03*
X290551D02*
D03*
X287402D02*
D03*
X281102D02*
D03*
X277953D02*
D03*
X274803D02*
D03*
X271654D02*
D03*
X265354D02*
D03*
X262205D02*
D03*
X259055D02*
D03*
X249606D02*
D03*
X246457D02*
D03*
X240158D02*
D03*
X237008D02*
D03*
X230709D02*
D03*
X227559D02*
D03*
X221260D02*
D03*
X218110D02*
D03*
X211811D02*
D03*
X208661D02*
D03*
X205512D02*
D03*
X202362D02*
D03*
X196063D02*
D03*
X192913D02*
D03*
X189764D02*
D03*
X183465D02*
D03*
X180315D02*
D03*
X174016D02*
D03*
X170866D02*
D03*
X167717D02*
D03*
X164567D02*
D03*
X158268D02*
D03*
X145669D02*
D03*
X136221D02*
D03*
X129921D02*
D03*
X126772D02*
D03*
X306299Y365748D02*
D03*
X303150D02*
D03*
X300000D02*
D03*
X296850D02*
D03*
X293701D02*
D03*
X290551D02*
D03*
X287402D02*
D03*
X281102D02*
D03*
X277953D02*
D03*
X274803D02*
D03*
X271654D02*
D03*
X265354D02*
D03*
X262205D02*
D03*
X259055D02*
D03*
X255906D02*
D03*
X249606D02*
D03*
X246457D02*
D03*
X240158D02*
D03*
X237008D02*
D03*
X230709D02*
D03*
X227559D02*
D03*
X221260D02*
D03*
X218110D02*
D03*
X211811D02*
D03*
X208661D02*
D03*
X205512D02*
D03*
X202362D02*
D03*
X196063D02*
D03*
X192913D02*
D03*
X189764D02*
D03*
X183465D02*
D03*
X180315D02*
D03*
X174016D02*
D03*
X170866D02*
D03*
X164567D02*
D03*
X158268D02*
D03*
X145669D02*
D03*
X136221D02*
D03*
X129921D02*
D03*
X126772D02*
D03*
X167717D02*
D03*
M02*
