G04*
G04 #@! TF.GenerationSoftware,Altium Limited,Altium Designer,26.5.0 (11)*
G04*
G04 Layer_Color=8388736*
G04 Board_Origin=11968504|11968504*
%FSLAX25Y25*%
%MOIN*%
G70*
G04*
G04 #@! TF.SameCoordinates,E0E41B1B-5716-4650-BC9E-1E0D2F5229BA*
G04*
G04*
G04 #@! TF.FilePolarity,Negative*
G04*
G01*
G75*
%ADD22R,0.05524X0.07296*%
G04:AMPARAMS|DCode=23|XSize=55.64mil|YSize=79.65mil|CornerRadius=11.86mil|HoleSize=0mil|Usage=FLASHONLY|Rotation=0.000|XOffset=0mil|YOffset=0mil|HoleType=Round|Shape=RoundedRectangle|*
%AMROUNDEDRECTD23*
21,1,0.05564,0.05593,0,0,0.0*
21,1,0.03192,0.07965,0,0,0.0*
1,1,0.02372,0.01596,-0.02797*
1,1,0.02372,-0.01596,-0.02797*
1,1,0.02372,-0.01596,0.02797*
1,1,0.02372,0.01596,0.02797*
%
%ADD23ROUNDEDRECTD23*%
%ADD24R,0.03950X0.03950*%
%ADD25R,0.04343X0.03950*%
%ADD26R,0.04540X0.04147*%
%ADD27C,0.13792*%
%ADD28C,0.06394*%
%ADD29C,0.08268*%
%ADD30C,0.06299*%
%ADD31C,0.06902*%
%ADD32C,0.06824*%
%ADD33R,0.06824X0.06824*%
%ADD34R,0.06824X0.06824*%
%ADD35C,0.06600*%
%ADD36C,0.00800*%
%ADD37C,0.13005*%
D22*
X501968Y335039D02*
D03*
X512992D02*
D03*
D23*
X501968Y325984D02*
D03*
X513386D02*
D03*
D24*
X167717Y205906D02*
D03*
X132282Y216142D02*
D03*
X124014Y216142D02*
D03*
X167717Y212205D02*
D03*
X153935Y230315D02*
D03*
Y236614D02*
D03*
X132282Y222441D02*
D03*
X124014Y222441D02*
D03*
D25*
X146849Y215945D02*
D03*
X154723Y219685D02*
D03*
X146849Y223425D02*
D03*
D26*
X153935Y248622D02*
D03*
X164565Y224212D02*
D03*
X170866Y224213D02*
D03*
Y219094D02*
D03*
X164565Y219094D02*
D03*
X153935Y243504D02*
D03*
X140156Y223819D02*
D03*
Y228937D02*
D03*
X132282Y229330D02*
D03*
Y234449D02*
D03*
X124014Y229330D02*
D03*
Y234449D02*
D03*
D27*
X352953Y323406D02*
D03*
X402953D02*
D03*
X271063Y315531D02*
D03*
X321063D02*
D03*
X189173Y315531D02*
D03*
X239173D02*
D03*
X179331Y241516D02*
D03*
X229331D02*
D03*
X261221D02*
D03*
X311221D02*
D03*
X343130D02*
D03*
X393130D02*
D03*
X425000D02*
D03*
X475000D02*
D03*
X434843Y323406D02*
D03*
X484843D02*
D03*
D28*
X392008Y336909D02*
D03*
X387992Y326909D02*
D03*
X383976Y336909D02*
D03*
X379961Y326909D02*
D03*
X375945Y336909D02*
D03*
X371929Y326909D02*
D03*
X367913Y336909D02*
D03*
X363898Y326909D02*
D03*
X310118Y329035D02*
D03*
X306102Y319035D02*
D03*
X302087Y329035D02*
D03*
X298071Y319035D02*
D03*
X294055Y329035D02*
D03*
X290039Y319035D02*
D03*
X286024Y329035D02*
D03*
X282008Y319035D02*
D03*
X228228Y329035D02*
D03*
X224213Y319035D02*
D03*
X220197Y329035D02*
D03*
X216181Y319035D02*
D03*
X212165Y329035D02*
D03*
X208150Y319035D02*
D03*
X204134Y329035D02*
D03*
X200118Y319035D02*
D03*
X218386Y255020D02*
D03*
X214370Y245020D02*
D03*
X210354Y255020D02*
D03*
X206339Y245020D02*
D03*
X202323Y255020D02*
D03*
X198307Y245020D02*
D03*
X194291Y255020D02*
D03*
X190276Y245020D02*
D03*
X300276Y255020D02*
D03*
X296260Y245020D02*
D03*
X292244Y255020D02*
D03*
X288228Y245020D02*
D03*
X284213Y255020D02*
D03*
X280197Y245020D02*
D03*
X276181Y255020D02*
D03*
X272165Y245020D02*
D03*
X382185Y255020D02*
D03*
X378169Y245020D02*
D03*
X374154Y255020D02*
D03*
X370138Y245020D02*
D03*
X366122Y255020D02*
D03*
X362106Y245020D02*
D03*
X358091Y255020D02*
D03*
X354075Y245020D02*
D03*
X464055Y255020D02*
D03*
X460039Y245020D02*
D03*
X456024Y255020D02*
D03*
X452008Y245020D02*
D03*
X447992Y255020D02*
D03*
X443976Y245020D02*
D03*
X439961Y255020D02*
D03*
X435945Y245020D02*
D03*
X473898Y336909D02*
D03*
X469882Y326909D02*
D03*
X465866Y336909D02*
D03*
X461850Y326909D02*
D03*
X457835Y336909D02*
D03*
X453819Y326909D02*
D03*
X449803Y336909D02*
D03*
X445787Y326909D02*
D03*
D29*
X345945Y340098D02*
D03*
X409961D02*
D03*
X264055Y332224D02*
D03*
X328071D02*
D03*
X182165Y332224D02*
D03*
X246181D02*
D03*
X172323Y258209D02*
D03*
X236339D02*
D03*
X254213D02*
D03*
X318228D02*
D03*
X336122D02*
D03*
X400138D02*
D03*
X417992D02*
D03*
X482008D02*
D03*
X427835Y340098D02*
D03*
X491850D02*
D03*
D30*
X404705Y346398D02*
D03*
X395689D02*
D03*
X360216D02*
D03*
X351201D02*
D03*
X322815Y338524D02*
D03*
X313799D02*
D03*
X278327D02*
D03*
X269311D02*
D03*
X240925Y338524D02*
D03*
X231909D02*
D03*
X196437D02*
D03*
X187421D02*
D03*
X231083Y264508D02*
D03*
X222067D02*
D03*
X186594D02*
D03*
X177579D02*
D03*
X312972D02*
D03*
X303957D02*
D03*
X268484D02*
D03*
X259469D02*
D03*
X394882D02*
D03*
X385866D02*
D03*
X350394D02*
D03*
X341378D02*
D03*
X476752D02*
D03*
X467736D02*
D03*
X432264D02*
D03*
X423248D02*
D03*
X486594Y346398D02*
D03*
X477579D02*
D03*
X442106D02*
D03*
X433090D02*
D03*
D31*
X93701Y306457D02*
D03*
Y326457D02*
D03*
Y336457D02*
D03*
Y346457D02*
D03*
Y356457D02*
D03*
Y266457D02*
D03*
Y216457D02*
D03*
Y246457D02*
D03*
Y226457D02*
D03*
Y256457D02*
D03*
Y286457D02*
D03*
Y316457D02*
D03*
Y296457D02*
D03*
Y276457D02*
D03*
Y236457D02*
D03*
X103701Y356457D02*
D03*
Y346457D02*
D03*
Y336457D02*
D03*
Y326457D02*
D03*
Y316457D02*
D03*
Y306457D02*
D03*
Y296457D02*
D03*
Y286457D02*
D03*
Y276457D02*
D03*
Y266457D02*
D03*
Y256457D02*
D03*
Y246457D02*
D03*
Y236457D02*
D03*
Y226457D02*
D03*
Y216457D02*
D03*
X288268Y103425D02*
D03*
X298268D02*
D03*
X308268D02*
D03*
X318268D02*
D03*
X328268D02*
D03*
X338268D02*
D03*
X348268D02*
D03*
X358268D02*
D03*
X368268D02*
D03*
X378268D02*
D03*
X388268D02*
D03*
X398268D02*
D03*
X408268D02*
D03*
X418268D02*
D03*
X428268D02*
D03*
X288268Y93425D02*
D03*
X298268D02*
D03*
X308268D02*
D03*
X318268D02*
D03*
X328268D02*
D03*
X338268D02*
D03*
X348268D02*
D03*
X358268D02*
D03*
X368268D02*
D03*
X378268D02*
D03*
X388268D02*
D03*
X398268D02*
D03*
X408268D02*
D03*
X418268D02*
D03*
X428268D02*
D03*
X326063Y172323D02*
D03*
X336063D02*
D03*
X346063D02*
D03*
X356063D02*
D03*
X366063D02*
D03*
X376063D02*
D03*
X386063D02*
D03*
X396063D02*
D03*
X406063D02*
D03*
X416063D02*
D03*
X426063D02*
D03*
X436063D02*
D03*
X446063D02*
D03*
X456063D02*
D03*
X466063D02*
D03*
X38465Y134961D02*
D03*
Y124961D02*
D03*
Y114961D02*
D03*
Y104961D02*
D03*
Y94961D02*
D03*
Y84961D02*
D03*
Y74961D02*
D03*
Y64961D02*
D03*
Y54961D02*
D03*
Y44961D02*
D03*
Y34961D02*
D03*
Y24961D02*
D03*
Y14961D02*
D03*
Y4961D02*
D03*
Y-5039D02*
D03*
X326063Y162323D02*
D03*
X336063D02*
D03*
X346063D02*
D03*
X356063D02*
D03*
X366063D02*
D03*
X376063D02*
D03*
X386063D02*
D03*
X396063D02*
D03*
X406063D02*
D03*
X416063D02*
D03*
X426063D02*
D03*
X436063D02*
D03*
X446063D02*
D03*
X456063D02*
D03*
X466063D02*
D03*
X28465Y-5039D02*
D03*
Y4961D02*
D03*
Y14961D02*
D03*
Y24961D02*
D03*
Y34961D02*
D03*
Y44961D02*
D03*
Y54961D02*
D03*
Y64961D02*
D03*
Y74961D02*
D03*
Y84961D02*
D03*
Y94961D02*
D03*
Y104961D02*
D03*
Y114961D02*
D03*
Y124961D02*
D03*
Y134961D02*
D03*
D32*
X38465Y166417D02*
D03*
Y176417D02*
D03*
Y186417D02*
D03*
Y196417D02*
D03*
Y206417D02*
D03*
Y216417D02*
D03*
Y226417D02*
D03*
Y236417D02*
D03*
Y246417D02*
D03*
Y256417D02*
D03*
Y266417D02*
D03*
Y276417D02*
D03*
Y286417D02*
D03*
Y296417D02*
D03*
Y306417D02*
D03*
Y316417D02*
D03*
Y326417D02*
D03*
Y336417D02*
D03*
Y346417D02*
D03*
Y356417D02*
D03*
X428268Y50394D02*
D03*
X418268D02*
D03*
X408268D02*
D03*
X398268D02*
D03*
X388268D02*
D03*
X378268D02*
D03*
X368268D02*
D03*
X358268D02*
D03*
X348268D02*
D03*
X338268D02*
D03*
X328268D02*
D03*
X318268D02*
D03*
X308268D02*
D03*
X298268D02*
D03*
X288268D02*
D03*
X278268D02*
D03*
X268268D02*
D03*
X258268D02*
D03*
X248268D02*
D03*
X238268D02*
D03*
X294606Y172323D02*
D03*
X284606D02*
D03*
X274606D02*
D03*
X264606D02*
D03*
X254606D02*
D03*
X244606D02*
D03*
X234606D02*
D03*
X224606D02*
D03*
X214606D02*
D03*
X204606D02*
D03*
X194606D02*
D03*
X184606D02*
D03*
X174606D02*
D03*
X164606D02*
D03*
X154606D02*
D03*
X144606D02*
D03*
X134606D02*
D03*
X124606D02*
D03*
X114606D02*
D03*
X104606D02*
D03*
X418268Y40394D02*
D03*
X408268D02*
D03*
X398268D02*
D03*
X388268D02*
D03*
X378268D02*
D03*
X368268D02*
D03*
X358268D02*
D03*
X348268D02*
D03*
X338268D02*
D03*
X328268D02*
D03*
X318268D02*
D03*
X308268D02*
D03*
X298268D02*
D03*
X288268D02*
D03*
X278268D02*
D03*
X268268D02*
D03*
X258268D02*
D03*
X248268D02*
D03*
X238268D02*
D03*
X284606Y162323D02*
D03*
X274606D02*
D03*
X264606D02*
D03*
X254606D02*
D03*
X244606D02*
D03*
X234606D02*
D03*
X224606D02*
D03*
X214606D02*
D03*
X204606D02*
D03*
X194606D02*
D03*
X184606D02*
D03*
X174606D02*
D03*
X164606D02*
D03*
X154606D02*
D03*
X144606D02*
D03*
X134606D02*
D03*
X124606D02*
D03*
X114606D02*
D03*
X104606D02*
D03*
X28465Y356417D02*
D03*
Y346417D02*
D03*
Y336417D02*
D03*
Y326417D02*
D03*
Y316417D02*
D03*
Y306417D02*
D03*
Y296417D02*
D03*
Y286417D02*
D03*
Y276417D02*
D03*
Y266417D02*
D03*
Y256417D02*
D03*
Y246417D02*
D03*
Y236417D02*
D03*
Y226417D02*
D03*
Y216417D02*
D03*
Y206417D02*
D03*
Y196417D02*
D03*
Y186417D02*
D03*
Y176417D02*
D03*
D33*
X428268Y40394D02*
D03*
X294606Y162323D02*
D03*
D34*
X28465Y166417D02*
D03*
D35*
X164173Y332953D02*
D03*
Y322953D02*
D03*
D36*
X316535Y364173D02*
D03*
X116535D02*
D03*
X521654Y25984D02*
D03*
Y273228D02*
D03*
X351969Y1969D02*
D03*
X104724D02*
D03*
D37*
X511811Y354331D02*
D03*
X0D02*
D03*
X511811Y0D02*
D03*
X0D02*
D03*
M02*
