G04*
G04 #@! TF.GenerationSoftware,Altium Limited,Altium Designer,26.5.0 (11)*
G04*
G04 Layer_Color=65535*
G04 Board_Origin=11968504|11968504*
%FSLAX25Y25*%
%MOIN*%
G70*
G04*
G04 #@! TF.SameCoordinates,24680CFA-1F03-4342-9ECF-C42B2BF0566C*
G04*
G04*
G04 #@! TF.FilePolarity,Positive*
G04*
G01*
G75*
%ADD10C,0.00984*%
%ADD11C,0.00500*%
%ADD12C,0.00787*%
%ADD13C,0.01000*%
%ADD14C,0.00591*%
G36*
X240158Y174279D02*
X241142Y175984D01*
X239173D01*
X240158Y174279D01*
D02*
G37*
G36*
X251181D02*
X252165Y175984D01*
X250197D01*
X251181Y174279D01*
D02*
G37*
G36*
X278740Y188846D02*
X279724Y190551D01*
X277756D01*
X278740Y188846D01*
D02*
G37*
G36*
X296063Y174279D02*
X297047Y175984D01*
X295079D01*
X296063Y174279D01*
D02*
G37*
D10*
X267606Y183091D02*
X266880Y183510D01*
Y182671D01*
X267606Y183091D01*
X142520Y285433D02*
X141781Y285859D01*
Y285007D01*
X142520Y285433D01*
D11*
X275628Y183987D02*
X275740Y184014D01*
X292951Y169421D02*
X293063Y169447D01*
X248069Y169421D02*
X248181Y169447D01*
X237046Y169421D02*
X237158Y169447D01*
D12*
X150197Y274213D02*
Y274606D01*
X147441Y274213D02*
Y274606D01*
X272972Y181339D02*
X276181D01*
Y178740D02*
Y181339D01*
X272972Y169843D02*
X276181D01*
Y172441D01*
X-109630Y-115650D02*
X-45063D01*
X-109630D02*
Y-103248D01*
Y-85532D02*
Y-53839D01*
X-45063Y-85532D02*
Y-53839D01*
Y-115650D02*
Y-103248D01*
X-109630Y-53839D02*
X-93685D01*
X-61008D02*
X-45063D01*
X535630Y-83071D02*
X539567D01*
X535630Y-75984D02*
X539567D01*
X528346Y-67323D02*
Y-66142D01*
X546457D01*
Y-67323D02*
Y-66142D01*
Y-74803D02*
Y-73622D01*
X528346Y-74803D02*
X546457D01*
X528346D02*
Y-73622D01*
X537402Y-74803D02*
Y-66142D01*
X143307Y291535D02*
X155118D01*
X143307Y288779D02*
X155118D01*
Y291535D01*
X143307Y288779D02*
Y291535D01*
X429811Y-53839D02*
X445756D01*
X381189D02*
X397134D01*
X445756Y-115650D02*
Y-103248D01*
Y-85532D02*
Y-53839D01*
X381189Y-85532D02*
Y-53839D01*
Y-115650D02*
Y-103248D01*
Y-115650D02*
X445756D01*
X266205Y-53839D02*
X282150D01*
X217583D02*
X233528D01*
X282150Y-115650D02*
Y-103248D01*
Y-85532D02*
Y-53839D01*
X217583Y-85532D02*
Y-53839D01*
Y-115650D02*
Y-103248D01*
Y-115650D02*
X282150D01*
X184402Y-53839D02*
X200346D01*
X135780D02*
X151724D01*
X200346Y-115650D02*
Y-103248D01*
Y-85532D02*
Y-53839D01*
X135780Y-85532D02*
Y-53839D01*
Y-115650D02*
Y-103248D01*
Y-115650D02*
X200346D01*
X20795Y-53839D02*
X36740D01*
X-27827D02*
X-11882D01*
X36740Y-115650D02*
Y-103248D01*
Y-85532D02*
Y-53839D01*
X-27827Y-85532D02*
Y-53839D01*
Y-115650D02*
Y-103248D01*
Y-115650D02*
X36740D01*
X102598Y-53839D02*
X118543D01*
X53976D02*
X69921D01*
X118543Y-115650D02*
Y-103248D01*
Y-85532D02*
Y-53839D01*
X53976Y-85532D02*
Y-53839D01*
Y-115650D02*
Y-103248D01*
Y-115650D02*
X118543D01*
X348008Y-53839D02*
X363953D01*
X299386D02*
X315331D01*
X363953Y-115650D02*
Y-103248D01*
Y-85532D02*
Y-53839D01*
X299386Y-85532D02*
Y-53839D01*
Y-115650D02*
Y-103248D01*
Y-115650D02*
X363953D01*
X511614Y-53839D02*
X527559D01*
X462992D02*
X478937D01*
X527559Y-115650D02*
Y-103248D01*
Y-85532D02*
Y-53839D01*
X462992Y-85532D02*
Y-53839D01*
Y-115650D02*
Y-103248D01*
Y-115650D02*
X527559D01*
D13*
X-113157Y364331D02*
X-81157D01*
Y358331D02*
Y364331D01*
Y358331D02*
X-63157D01*
Y210331D02*
Y358331D01*
X-81157Y210331D02*
X-63157D01*
X-81157Y204331D02*
Y210331D01*
X-113157Y204331D02*
X-81157D01*
X-113551Y200945D02*
X-81551D01*
Y194945D02*
Y200945D01*
Y194945D02*
X-63551D01*
Y-3055D02*
Y194945D01*
X-81551Y-3055D02*
X-63551D01*
X-81551Y-9055D02*
Y-3055D01*
X-113551Y-9055D02*
X-81551D01*
X315827Y437465D02*
Y469465D01*
Y437465D02*
X321827D01*
Y419465D02*
Y437465D01*
Y419465D02*
X469827D01*
Y437465D01*
X475827D01*
Y469465D01*
X87244Y437465D02*
Y469465D01*
Y437465D02*
X93244D01*
Y419465D02*
Y437465D01*
Y419465D02*
X291244D01*
Y437465D01*
X297244D01*
Y469465D01*
X-76299Y437465D02*
Y469465D01*
Y437465D02*
X-70299D01*
Y419465D02*
Y437465D01*
Y419465D02*
X77701D01*
Y437465D01*
X83701D01*
Y469465D01*
X588047Y96772D02*
X620047D01*
X588047D02*
Y102772D01*
X570047D02*
X588047D01*
X570047D02*
Y250772D01*
X588047D01*
Y256772D01*
X620047D01*
X587465Y-115512D02*
X619465D01*
X587465D02*
Y-109512D01*
X569465D02*
X587465D01*
X569465D02*
Y88488D01*
X587465D01*
Y94488D01*
X619465D01*
X225402Y374496D02*
Y388496D01*
Y374496D02*
X249402D01*
Y388496D01*
X225402D02*
X249402D01*
X275803Y155693D02*
Y153694D01*
Y154693D01*
X281801D01*
X280802Y155693D01*
X281801Y150695D02*
X277802D01*
X275803Y148695D01*
X277802Y146696D01*
X281801D01*
X280802Y144696D02*
X281801Y143697D01*
Y141698D01*
X280802Y140698D01*
X279802D01*
X278802Y141698D01*
X277802Y140698D01*
X276803D01*
X275803Y141698D01*
Y143697D01*
X276803Y144696D01*
X277802D01*
X278802Y143697D01*
X279802Y144696D01*
X280802D01*
X278802Y143697D02*
Y141698D01*
X247669Y155299D02*
X253667D01*
Y152300D01*
X252667Y151301D01*
X250668D01*
X249668Y152300D01*
Y155299D01*
Y153300D02*
X247669Y151301D01*
X252667Y145302D02*
X253667Y146302D01*
Y148301D01*
X252667Y149301D01*
X251668D01*
X250668Y148301D01*
Y146302D01*
X249668Y145302D01*
X248669D01*
X247669Y146302D01*
Y148301D01*
X248669Y149301D01*
X253667Y143303D02*
X249668D01*
X247669Y141304D01*
X249668Y139304D01*
X253667D01*
Y137305D02*
Y135306D01*
Y136305D01*
X247669D01*
Y137305D01*
Y135306D01*
Y132307D02*
X253667D01*
X247669Y128308D01*
X253667D01*
X246669Y126309D02*
Y122310D01*
X247669Y120310D02*
Y118311D01*
Y119311D01*
X253667D01*
X252667Y120310D01*
X247669Y111313D02*
Y115312D01*
X251668Y111313D01*
X252667D01*
X253667Y112313D01*
Y114313D01*
X252667Y115312D01*
X253667Y109314D02*
X249668D01*
X247669Y107315D01*
X249668Y105315D01*
X253667D01*
X298124Y156087D02*
X299124Y155087D01*
Y153088D01*
X298124Y152088D01*
X297125D01*
X296125Y153088D01*
Y154087D01*
Y153088D01*
X295125Y152088D01*
X294126D01*
X293126Y153088D01*
Y155087D01*
X294126Y156087D01*
X299124Y150089D02*
X295125D01*
X293126Y148089D01*
X295125Y146090D01*
X299124D01*
X298124Y144090D02*
X299124Y143091D01*
Y141092D01*
X298124Y140092D01*
X297125D01*
X296125Y141092D01*
Y142091D01*
Y141092D01*
X295125Y140092D01*
X294126D01*
X293126Y141092D01*
Y143091D01*
X294126Y144090D01*
X242250Y155693D02*
X238251D01*
X236252Y153693D01*
X238251Y151694D01*
X242250D01*
Y149695D02*
Y147696D01*
Y148695D01*
X236252D01*
Y149695D01*
Y147696D01*
Y144696D02*
X242250D01*
X236252Y140698D01*
X242250D01*
X235252Y138698D02*
Y134700D01*
X236252Y132700D02*
Y130701D01*
Y131701D01*
X242250D01*
X241250Y132700D01*
X236252Y123703D02*
Y127702D01*
X240250Y123703D01*
X241250D01*
X242250Y124703D01*
Y126702D01*
X241250Y127702D01*
X242250Y121704D02*
X238251D01*
X236252Y119704D01*
X238251Y117705D01*
X242250D01*
X318350Y416779D02*
X322348Y410780D01*
Y416779D02*
X318350Y410780D01*
X327347D02*
Y416779D01*
X324348Y413779D01*
X328346D01*
X330346D02*
X334345D01*
X336344Y410780D02*
X338343D01*
X337344D01*
Y416779D01*
X336344Y415779D01*
X89791Y417172D02*
X93790Y411174D01*
Y417172D02*
X89791Y411174D01*
X95789Y416173D02*
X96789Y417172D01*
X98788D01*
X99788Y416173D01*
Y415173D01*
X98788Y414173D01*
X97788D01*
X98788D01*
X99788Y413173D01*
Y412174D01*
X98788Y411174D01*
X96789D01*
X95789Y412174D01*
X101787Y414173D02*
X105786D01*
X111784Y411174D02*
X107785D01*
X111784Y415173D01*
Y416173D01*
X110784Y417172D01*
X108785D01*
X107785Y416173D01*
X-72202Y416385D02*
X-68203Y410387D01*
Y416385D02*
X-72202Y410387D01*
X-66203Y415385D02*
X-65204Y416385D01*
X-63204D01*
X-62205Y415385D01*
Y414386D01*
X-63204Y413386D01*
X-64204D01*
X-63204D01*
X-62205Y412386D01*
Y411386D01*
X-63204Y410387D01*
X-65204D01*
X-66203Y411386D01*
X-60205Y413386D02*
X-56207D01*
X-54207Y410387D02*
X-52208D01*
X-53208D01*
Y416385D01*
X-54207Y415385D01*
X-113752Y-11962D02*
X-109754Y-17960D01*
Y-11962D02*
X-113752Y-17960D01*
X-103756D02*
X-107754D01*
X-103756Y-13961D01*
Y-12961D01*
X-104755Y-11962D01*
X-106755D01*
X-107754Y-12961D01*
X-101756Y-14961D02*
X-97758D01*
X-91760Y-17960D02*
X-95758D01*
X-91760Y-13961D01*
Y-12961D01*
X-92759Y-11962D01*
X-94758D01*
X-95758Y-12961D01*
X-115501Y373078D02*
X-111502Y367080D01*
Y373078D02*
X-115501Y367080D01*
X-105504D02*
X-109503D01*
X-105504Y371078D01*
Y372078D01*
X-106504Y373078D01*
X-108503D01*
X-109503Y372078D01*
X-103505Y370079D02*
X-99506D01*
X-97506Y367080D02*
X-95507D01*
X-96507D01*
Y373078D01*
X-97506Y372078D01*
X543834Y-106843D02*
X547833Y-112842D01*
Y-106843D02*
X543834Y-112842D01*
X549832D02*
X551831D01*
X550832D01*
Y-106843D01*
X549832Y-107843D01*
X554831Y-109843D02*
X558829D01*
X564827Y-112842D02*
X560829D01*
X564827Y-108843D01*
Y-107843D01*
X563828Y-106843D01*
X561828D01*
X560829Y-107843D01*
X566094Y260873D02*
X570092Y254875D01*
Y260873D02*
X566094Y254875D01*
X572092D02*
X574091D01*
X573091D01*
Y260873D01*
X572092Y259873D01*
X577090Y257874D02*
X581089D01*
X583088Y254875D02*
X585087D01*
X584088D01*
Y260873D01*
X583088Y259873D01*
X460414Y-39187D02*
X458414D01*
X459414D01*
Y-44185D01*
X458414Y-45185D01*
X457415D01*
X456415Y-44185D01*
X462413Y-39187D02*
X466412D01*
Y-40187D01*
X462413Y-44185D01*
Y-45185D01*
X378614Y-39187D02*
X376614D01*
X377614D01*
Y-44185D01*
X376614Y-45185D01*
X375615D01*
X374615Y-44185D01*
X384612Y-39187D02*
X380613D01*
Y-42186D01*
X382612Y-41186D01*
X383612D01*
X384612Y-42186D01*
Y-44185D01*
X383612Y-45185D01*
X381613D01*
X380613Y-44185D01*
X296814Y-39187D02*
X294814D01*
X295814D01*
Y-44185D01*
X294814Y-45185D01*
X293815D01*
X292815Y-44185D01*
X298813Y-40187D02*
X299813Y-39187D01*
X301812D01*
X302812Y-40187D01*
Y-41186D01*
X301812Y-42186D01*
X300812D01*
X301812D01*
X302812Y-43186D01*
Y-44185D01*
X301812Y-45185D01*
X299813D01*
X298813Y-44185D01*
X214914Y-39187D02*
X212914D01*
X213914D01*
Y-44185D01*
X212914Y-45185D01*
X211915D01*
X210915Y-44185D01*
X216913Y-45185D02*
X218912D01*
X217913D01*
Y-39187D01*
X216913Y-40187D01*
X133114Y-39187D02*
X131114D01*
X132114D01*
Y-44185D01*
X131114Y-45185D01*
X130115D01*
X129115Y-44185D01*
X135113Y-40187D02*
X136113Y-39187D01*
X138112D01*
X139112Y-40187D01*
Y-41186D01*
X138112Y-42186D01*
X139112Y-43186D01*
Y-44185D01*
X138112Y-45185D01*
X136113D01*
X135113Y-44185D01*
Y-43186D01*
X136113Y-42186D01*
X135113Y-41186D01*
Y-40187D01*
X136113Y-42186D02*
X138112D01*
X51314Y-39187D02*
X49314D01*
X50314D01*
Y-44185D01*
X49314Y-45185D01*
X48315D01*
X47315Y-44185D01*
X57312Y-39187D02*
X55312Y-40187D01*
X53313Y-42186D01*
Y-44185D01*
X54313Y-45185D01*
X56312D01*
X57312Y-44185D01*
Y-43186D01*
X56312Y-42186D01*
X53313D01*
X-30486Y-39187D02*
X-32486D01*
X-31486D01*
Y-44185D01*
X-32486Y-45185D01*
X-33485D01*
X-34485Y-44185D01*
X-25488Y-45185D02*
Y-39187D01*
X-28487Y-42186D01*
X-24488D01*
X-105724Y-40702D02*
X-107723D01*
X-106724D01*
Y-45700D01*
X-107723Y-46700D01*
X-108723D01*
X-109723Y-45700D01*
X-99726Y-46700D02*
X-103725D01*
X-99726Y-42701D01*
Y-41701D01*
X-100726Y-40702D01*
X-102725D01*
X-103725Y-41701D01*
D14*
X280740Y197362D02*
X281496D01*
Y207362D01*
X280740D02*
X281496D01*
X275984D02*
X276740D01*
X275984Y197362D02*
Y207362D01*
Y197362D02*
X276740D01*
X275984Y202362D02*
X281496D01*
X276165Y191339D02*
Y195488D01*
X281315D01*
Y191339D02*
Y195488D01*
X276165Y185055D02*
X277181Y184039D01*
X276165Y185055D02*
Y188189D01*
X277181Y184039D02*
X280102D01*
X281315Y185252D01*
Y188189D01*
X242158Y182795D02*
X242913D01*
Y192795D01*
X242158D02*
X242913D01*
X237402D02*
X238158D01*
X237402Y182795D02*
Y192795D01*
Y182795D02*
X238158D01*
X237402Y187795D02*
X242913D01*
X253181Y182795D02*
X253937D01*
Y192795D01*
X253181D02*
X253937D01*
X248425D02*
X249181D01*
X248425Y182795D02*
Y192795D01*
Y182795D02*
X249181D01*
X248425Y187795D02*
X253937D01*
X294912Y182795D02*
X295668D01*
Y192795D01*
X294912D02*
X295668D01*
X290156D02*
X290912D01*
X290156Y182795D02*
Y192795D01*
Y182795D02*
X290912D01*
X290156Y187795D02*
X295668D01*
X301213Y182795D02*
X301969D01*
Y192795D01*
X301213D02*
X301969D01*
X296457D02*
X297213D01*
X296457Y182795D02*
Y192795D01*
Y182795D02*
X297213D01*
X296457Y187795D02*
X301969D01*
X263811Y177284D02*
X264567D01*
Y187284D01*
X263811D02*
X264567D01*
X259055D02*
X259811D01*
X259055Y177284D02*
Y187284D01*
Y177284D02*
X259811D01*
X259055Y182283D02*
X264567D01*
X293488Y176772D02*
Y180921D01*
X298638D01*
Y176772D02*
Y180921D01*
X293488Y170488D02*
X294504Y169472D01*
X293488Y170488D02*
Y173622D01*
X294504Y169472D02*
X297425D01*
X298638Y170685D01*
Y173622D01*
X248606Y176772D02*
Y180921D01*
X253756D01*
Y176772D02*
Y180921D01*
X248606Y170488D02*
X249622Y169472D01*
X248606Y170488D02*
Y173622D01*
X249622Y169472D02*
X252543D01*
X253756Y170685D01*
Y173622D01*
X237583Y176772D02*
Y180921D01*
X242732D01*
Y176772D02*
Y180921D01*
X237583Y170488D02*
X238598Y169472D01*
X237583Y170488D02*
Y173622D01*
X238598Y169472D02*
X241520D01*
X242732Y170685D01*
Y173622D01*
X142913Y308268D02*
X148425D01*
X147669Y313268D02*
X148425D01*
Y303268D02*
Y313268D01*
X147669Y303268D02*
X148425D01*
X142913D02*
X143669D01*
X142913D02*
Y313268D01*
X143669D01*
X135433Y277953D02*
X140945D01*
X140189Y282953D02*
X140945D01*
Y272953D02*
Y282953D01*
X140189Y272953D02*
X140945D01*
X135433D02*
X136189D01*
X135433D02*
Y282953D01*
X136189D01*
X152559Y310563D02*
Y308727D01*
X152099D01*
X150263Y310563D01*
X149804D01*
Y308727D01*
X152559Y307808D02*
Y305972D01*
X152099D01*
X150263Y307808D01*
X149804D01*
X134448Y280249D02*
Y278412D01*
X133989D01*
X132152Y280249D01*
X131693D01*
Y278412D01*
X134448Y275657D02*
X133989Y276575D01*
X133071Y277494D01*
X132152D01*
X131693Y277034D01*
Y276116D01*
X132152Y275657D01*
X132612D01*
X133071Y276116D01*
Y277494D01*
X140092Y300918D02*
X139633Y301378D01*
X138715D01*
X138255Y300918D01*
Y299082D01*
X138715Y298622D01*
X139633D01*
X140092Y299082D01*
X142847Y301378D02*
X141929Y300918D01*
X141010Y300000D01*
Y299082D01*
X141470Y298622D01*
X142388D01*
X142847Y299082D01*
Y299541D01*
X142388Y300000D01*
X141010D01*
X148360Y268241D02*
X147901Y268700D01*
X146982D01*
X146523Y268241D01*
Y266405D01*
X146982Y265945D01*
X147901D01*
X148360Y266405D01*
X151115Y268700D02*
X149278D01*
Y267323D01*
X150196Y267782D01*
X150656D01*
X151115Y267323D01*
Y266405D01*
X150656Y265945D01*
X149737D01*
X149278Y266405D01*
X225515Y394370D02*
X227352Y391615D01*
Y394370D02*
X225515Y391615D01*
X228270D02*
X229188D01*
X228729D01*
Y394370D01*
X228270Y393911D01*
X259515Y188386D02*
Y191141D01*
X260893D01*
X261352Y190682D01*
Y189764D01*
X260893Y189305D01*
X259515D01*
X260434D02*
X261352Y188386D01*
X264107Y191141D02*
X263189Y190682D01*
X262270Y189764D01*
Y188845D01*
X262729Y188386D01*
X263648D01*
X264107Y188845D01*
Y189305D01*
X263648Y189764D01*
X262270D01*
X276444Y208465D02*
Y211220D01*
X277822D01*
X278281Y210761D01*
Y209842D01*
X277822Y209383D01*
X276444D01*
X277363D02*
X278281Y208465D01*
X281036Y211220D02*
X279199D01*
Y209842D01*
X280118Y210302D01*
X280577D01*
X281036Y209842D01*
Y208924D01*
X280577Y208465D01*
X279659D01*
X279199Y208924D01*
X548098Y-71850D02*
Y-69095D01*
X549475D01*
X549934Y-69554D01*
Y-70472D01*
X549475Y-70932D01*
X548098D01*
X549016D02*
X549934Y-71850D01*
X550853Y-69095D02*
X552690D01*
Y-69554D01*
X550853Y-71391D01*
Y-71850D01*
X296917Y193898D02*
Y196653D01*
X298294D01*
X298753Y196194D01*
Y195276D01*
X298294Y194816D01*
X296917D01*
X297835D02*
X298753Y193898D01*
X301049D02*
Y196653D01*
X299672Y195276D01*
X301508D01*
X290617Y193898D02*
Y196653D01*
X291995D01*
X292454Y196194D01*
Y195276D01*
X291995Y194816D01*
X290617D01*
X291536D02*
X292454Y193898D01*
X293373Y196194D02*
X293832Y196653D01*
X294750D01*
X295209Y196194D01*
Y195735D01*
X294750Y195276D01*
X294291D01*
X294750D01*
X295209Y194816D01*
Y194357D01*
X294750Y193898D01*
X293832D01*
X293373Y194357D01*
X248885Y193898D02*
Y196653D01*
X250263D01*
X250722Y196194D01*
Y195276D01*
X250263Y194816D01*
X248885D01*
X249804D02*
X250722Y193898D01*
X253477D02*
X251640D01*
X253477Y195735D01*
Y196194D01*
X253018Y196653D01*
X252099D01*
X251640Y196194D01*
X238321Y193898D02*
Y196653D01*
X239698D01*
X240158Y196194D01*
Y195276D01*
X239698Y194816D01*
X238321D01*
X239239D02*
X240158Y193898D01*
X241076D02*
X241994D01*
X241535D01*
Y196653D01*
X241076Y196194D01*
X270079Y184515D02*
Y186351D01*
X269620Y186811D01*
X268701D01*
X268242Y186351D01*
Y184515D01*
X268701Y184056D01*
X269620D01*
X269160Y184974D02*
X270079Y184056D01*
X269620D02*
X270079Y184515D01*
X270997Y184056D02*
X271915D01*
X271456D01*
Y186811D01*
X270997Y186351D01*
X283531Y190748D02*
Y187993D01*
X284908D01*
X285368Y188452D01*
Y190288D01*
X284908Y190748D01*
X283531D01*
X287664Y187993D02*
Y190748D01*
X286286Y189370D01*
X288123D01*
X293767Y167519D02*
Y164764D01*
X295145D01*
X295604Y165223D01*
Y167060D01*
X295145Y167519D01*
X293767D01*
X296522Y167060D02*
X296981Y167519D01*
X297900D01*
X298359Y167060D01*
Y166601D01*
X297900Y166142D01*
X297441D01*
X297900D01*
X298359Y165683D01*
Y165223D01*
X297900Y164764D01*
X296981D01*
X296522Y165223D01*
X248885Y167125D02*
Y164371D01*
X250263D01*
X250722Y164830D01*
Y166666D01*
X250263Y167125D01*
X248885D01*
X253477Y164371D02*
X251640D01*
X253477Y166207D01*
Y166666D01*
X253018Y167125D01*
X252099D01*
X251640Y166666D01*
X238321Y167125D02*
Y164371D01*
X239698D01*
X240158Y164830D01*
Y166666D01*
X239698Y167125D01*
X238321D01*
X241076Y164371D02*
X241994D01*
X241535D01*
Y167125D01*
X241076Y166666D01*
X549606Y-78609D02*
X549147Y-78150D01*
X548229D01*
X547770Y-78609D01*
Y-80446D01*
X548229Y-80905D01*
X549147D01*
X549606Y-80446D01*
X550525Y-80905D02*
X551443D01*
X550984D01*
Y-78150D01*
X550525Y-78609D01*
X141929Y292453D02*
X139174D01*
Y291076D01*
X139633Y290617D01*
X140092D01*
X140551Y291076D01*
Y292453D01*
Y291076D01*
X141010Y290617D01*
X141470D01*
X141929Y291076D01*
Y292453D01*
X139174Y287862D02*
Y289698D01*
X141010Y287862D01*
X141470D01*
X141929Y288321D01*
Y289239D01*
X141470Y289698D01*
M02*
