M48
;Layer_Color=9474304
;FILE_FORMAT=2:4
INCH,TZ
;TYPE=PLATED
T01F00S00C0.0118
T02F00S00C0.0400
;TYPE=NON_PLATED
T03F00S00C0.0571
T04F00S00C0.1260
T05F00S00C0.1339
%
T01
X-10683Y-6614
Y-5551
X-4856Y-5591
Y-6575
X-2502Y-6614
Y-5551
X3324Y-5591
Y-6575
X5678Y-6614
Y-5551
X6299Y-2520
X10157Y-2126
X13228Y-1850
X13701
X14213
X14646
X15276
X15906Y-1811
X16535
X17165Y-1772
X17480
X18110
X18425
X19055
X19173Y1260
X18937Y1535
X18425
X17874
X17480
X16929
X16299
X15787
X15039
X14409
X13937
X13465
X12874
X8661Y-79
X12677Y-4370
X13858Y-5551
Y-6614
X11505Y-6575
Y-5591
X19685
Y-6575
X22008Y-5945
X21890Y-1772
X22205
X22835
X23156Y-1779
X21260Y-1772
X20945
X20000
X19370
X19882Y1535
X20591
X20827Y1299
X21535Y1535
X21772Y1299
X22283
X22598Y1535
X24567Y984
X29134Y-5433
X37244Y-5551
X36535Y118
X43819Y-669
X44685Y-1969
X45315Y-4094
X47598Y-4528
X48937Y-3740
X50157Y-3701
X49695Y3504
X49406Y3502
X48780Y3504
X48493
X47835
X47548
X46870
X46582Y3502
X45955Y3504
X45669
X45010
X44724
X43994Y3546
X43712Y3496
X43120Y3504
X42834
X51654Y3583
Y3898
Y4213
Y4528
X51614Y6457
X51339Y6260
X51811Y7087
Y7402
X51654Y8661
Y8976
Y9291
Y9606
Y10236
Y10551
Y10866
Y11181
Y11811
Y12126
Y12441
Y12756
X51743Y14724
X51457
X52842Y15172
X53004Y15408
X53060Y15693
X53059Y15983
X53003Y16968
X52717
X51664Y16929
X51378
X51457Y18701
X51743
X52792Y18862
X53081Y18858
X53313Y17880
X53110Y17677
X52913Y5827
Y5512
X50187Y5472
X49901
X49684Y5827
X49398
X49242Y5472
X48956
X48770Y5827
X48483
X48297Y5472
X48011
X47825Y5827
X47539
X47362Y5472
X47076
X46859Y5827
X46573
X46417Y5472
X46131
X45945Y5827
X45659
X45472Y5472
X45186
X45000Y5827
X44714
X44528Y5472
X44241
X44024Y5827
X43738
X43593Y5472
X43307
X43110Y5827
X42824
X42549Y5472
X42234
X41919
X41604
X41289
X40974
X40659
X40344
X40030
X39715
X39400
X39085
X38770
X38455
X38465Y3780
X38780
X39094
X39409
X39724
X40039
X40354
X40669
X40984
X41299
X41614
X41929
X42244
X42559
X43306
X43593
X44251
X44537
X45196Y3780
X45482
X46141Y3780
X46427
X47086
X47372
X48021Y3780
X48307
X48966Y3780
X49252
X49911
X50197
X49893Y13228
X49606
X50157Y16772
X50444Y16761
X50326Y18976
X50039
X21772Y5866
X22008Y5630
X21535
X21299Y5866
X20827
X21063Y5630
X20591
X20354Y5866
X20118Y5630
X19882Y5827
X19646Y5630
X19409Y5827
X23150Y3661
X19173Y5630
X18937Y5827
X18701Y5630
X17874Y5748
X17480
X16929Y5591
X16535
X16033Y5621
X15630Y5630
X15276
X14803
X14331
X13819
X13583Y5906
X12874
X13110Y5630
X12598
X14291Y6142
X14567Y5906
X15039
X15787
X17165Y6378
X17795Y6850
X18110Y6063
X3031Y3661
X13425Y27126
X13639Y31649
X15472Y31063
X11339Y32126
X23150Y19921
X24016
X25118
X26181
X50029Y21181
X50315
X50315Y22480
X50354Y23701
Y24567
Y25472
X51299Y25197
X51535Y24724
X51378Y24370
X51811Y24488
X51890Y24961
X51693Y25512
X51457Y25787
X51339Y26339
X51850Y26090
X52869Y26608
X52835Y24843
X52953Y23937
X51850Y23976
X51378Y23701
Y22913
X51850Y23149
X53195Y21817
X52992Y21614
X53042Y20709
X52756
X51704Y20591
X51417
X53327Y19859
X53125Y19657
X15197Y36063
X14567Y35827
X13622
X12677
T02
X-7755Y94
Y1094
Y2094
Y3094
X-6755
Y2094
Y1094
Y94
X57346Y449
Y-551
Y-1551
Y-2551
Y-3551
Y-4551
Y-5551
Y-6551
Y-7551
Y-8551
Y-9551
Y-10551
X58346
Y-9551
Y-8551
Y-7551
Y-6551
Y-5551
Y-4551
Y-3551
Y-2551
Y-1551
Y-551
Y449
Y1449
X57346
Y2449
Y3449
X58346
Y2449
Y4449
X57346
Y5449
Y6449
Y7449
Y8449
X58346
Y7449
Y6449
Y5449
X58405Y10677
X57405
Y11677
Y12677
Y13677
Y14677
Y15677
Y16677
Y17677
Y18677
X58405
Y17677
Y16677
Y15677
Y14677
Y13677
Y12677
Y11677
X-6755Y12094
X-7755
Y13094
Y14094
Y15094
Y16094
Y17094
Y18094
Y19094
X-6755
Y18094
Y17094
Y16094
Y15094
Y14094
Y13094
Y11094
X-7755
Y10094
Y9094
Y8094
Y7094
Y6094
Y5094
Y4094
X-6755
Y5094
Y6094
Y7094
Y8094
Y9094
Y10094
X-6716Y21433
X-7716
Y22433
Y23433
Y24433
Y25433
Y26433
Y27433
Y28433
Y29433
Y30433
Y31433
Y32433
Y33433
Y34433
X-6716
Y33433
Y32433
Y31433
Y30433
Y29433
Y28433
Y27433
Y26433
Y25433
Y24433
Y23433
Y22433
X57405Y22677
Y21677
Y20677
Y19677
X58405
Y20677
Y21677
Y22677
Y23677
X57405
Y24677
X58405
X46583Y42346
X45583
X44583
X43583
X42583
X41583
X40583
X39583
X38583
X37583
X36583
X35583
Y43346
X36583
X37583
X38583
X39583
X40583
X41583
X42583
X43583
X44583
X45583
X46583
X34583
Y42346
X33583
X32583
Y43346
X33583
X28724
Y42346
X27724
X26724
X25724
X24724
X23724
X22724
X21724
X20724
X19724
Y43346
X20724
X21724
X22724
X23724
X24724
X25724
X26724
X27724
X24240Y38150
X23240
X18724Y42346
X17724
X16724
X15724
X14724
X13724
X12724
X11724
X10724
X9724
Y43346
X10724
X11724
X12724
X13724
X14724
X15724
X16724
X17724
X18724
X7370
Y42346
X6370
X5370
X4370
Y43346
X5370
X6370
X3370
Y42346
X2370
X1370
X370
X-630
X-1630
X-2630
X-3630
X-4630
X-5630
X-6630
Y43346
X-5630
X-4630
X-3630
X-2630
X-1630
X-630
X370
X1370
X2370
X-6716Y35433
X-7716
T03
X10472Y197
X35197
X52165Y2598
Y27323
X31654Y36417
X11654
T04
X-10235Y-9439
X-5235
X-2054
X2946
X6126
X11126
X14306
X19306
X22487
X27487
X30667
X35667
X38847
X43847
X47028
X52028
T05
X0Y0
X51181
Y35433
X0
M30
