M48
;Layer_Color=9474304
;FILE_FORMAT=2:4
INCH,TZ
;TYPE=PLATED
T01F00S00C0.0118
T02F00S00C0.0360
T03F00S00C0.0374
T04F00S00C0.0400
T05F00S00C0.0402
T06F00S00C0.0630
;TYPE=NON_PLATED
T07F00S00C0.0571
T08F00S00C0.1299
T09F00S00C0.1339
%
T01
X4094Y-1457
X8937Y-906
X9134Y3189
X10827Y2047
X13268Y-591
X13701
X14213
X14646
X15157
X15945
X16417
X17008
X17480
X17953
X18425
X18937
X19370
X19882
X21181
Y-197
X21890Y-236
X22205Y-551
X22835
X23150
X21024Y2717
X51654Y4252
Y4567
Y4882
X51772Y5512
X51654Y5827
X51535Y6142
X51417Y6457
X51654Y7087
Y7402
Y8976
Y9291
Y9606
Y10551
Y10866
Y11181
Y12126
Y12441
Y12756
X51850Y15777
Y16063
X51822Y16850
X51535
X51850Y17667
Y17953
X51757Y18661
X51471
X49882Y13819
X50157Y8031
Y7717
X50157Y6772
Y6457
Y6142
Y5827
X47362Y5276
X44252Y5827
X44646Y9409
X31457Y7638
X29370Y7480
X26299Y7795
X21732Y10394
X17402Y11654
X15472Y12835
X12756Y14213
X9882Y13228
X13150Y10118
X16220Y7283
X18701Y5118
X6850Y5906
X6339Y7283
X8583Y18386
Y18976
Y19567
X8701Y20945
X11772Y20827
X13661Y20906
X15709Y20945
X17795Y20906
X18307Y22638
X14843Y26457
X6496Y26811
X6260Y25079
X6417Y29685
X8110Y34331
X20157Y31102
X21142
X21929
X22756
X21535Y32480
X25433Y30276
X28346Y31102
X29331
X30118
X30945
X31299Y32323
X33504Y30787
X29016Y30472
X29094Y23898
X28808
X32402Y24882
Y25168
X24134Y25141
Y24855
X19814Y23819
X19528
X36148Y23749
X36435
X40748Y24855
Y25141
X41142Y29803
X39134Y31890
X38307
X37520
X36535
X37992Y33268
X44331Y33346
X44724Y31890
X45709
X46496
X47323
X49606Y30984
X49573Y22987
X49863Y22990
X45365Y23740
X45079
X45000Y19921
X51773Y19855
X51772Y19567
X51732Y20551
X51446Y20551
X51774Y21454
X51772Y21743
X51890Y22598
X51604
X51772Y23976
X51378
Y24528
X51417Y25866
X51535Y27087
X51929Y26772
X52835Y25984
Y25354
Y24882
Y24409
Y24016
Y23504
X50945Y27638
X20551Y35984
X19961
X15197Y35827
X14567
X13622
X12677
T02
X19028Y24502
X19831
X20634
X21437
X21839Y25502
X21035
X20232
X19429
X20012Y31904
X20815
X21618
X22421
X22823Y32904
X22020
X21217
X20413
X28602Y32904
X29406
X30209
X31012
X30610Y31904
X29807
X29004
X28201
X28421Y25502
X27618
X27217Y24502
X28020
X28823
X29626
X30028Y25502
X29224
X35809
X36612
X37415
X38219
X37817Y24502
X37014
X36211
X35407
X43594
X44398
X45201
X46004
X46406Y25502
X45602
X44799
X43996
X44579Y32691
X45382
X46185
X46988
X47390Y33691
X46587
X45783
X44980
X39201
X38398
X37594
X36791
X36390Y32691
X37193
X37996
X38799
T03
X17758Y26451
X18659
X18742Y33852
X19644
X23191
X24093
X26931Y33852
X27833
X31380
X32281
X31297Y26451
X30396
X26848
X25947
X23108
X22207
X34138
X35039
X38587
X39488
X42325
X43226
X46774
X47675
X47758Y34640
X48659
X44211
X43309
X40470
X39569
X36022
X35120
T04
X16417Y32295
Y33295
T05
X2846Y-504
Y496
Y1496
Y2496
Y3496
X3846
Y2496
Y1496
Y496
Y-504
X35827Y4039
Y5039
X36827
X37827
X38827
X39827
X40827
X41827
X42827
Y4039
X41827
X40827
X39827
X38827
X37827
X36827
Y9343
Y10343
X35827
Y9343
X37827
Y10343
X38827
X39827
X40827
X41827
X42827
Y9343
X41827
X40827
X39827
X38827
X38606Y16232
Y17232
X37606
X36606
X35606
Y16232
X36606
X37606
X39606
Y17232
X40606
X41606
X42606
X43606
X44606
X45606
X46606
Y16232
X45606
X44606
X43606
X42606
X41606
X40606
X34606
Y17232
X33606
X32606
Y16232
X33606
X29461
Y17232
X28461
X27461
X26461
X25461
X24461
X23461
X22461
X21461
X20461
X19461
Y16232
X20461
X21461
X22461
X23461
X24461
X25461
X26461
X27461
X28461
X28827Y10343
X29827
X30827
X31827
X32827
X33827
X34827
Y9343
X33827
X32827
X31827
X30827
X29827
X28827
Y5039
X29827
X30827
X31827
X32827
X33827
X34827
Y4039
X33827
X32827
X31827
X30827
X29827
X28827
X27827
Y5039
X26827
X25827
X24827
X23827
Y4039
X24827
X25827
X26827
X18461Y16232
Y17232
X17461
X16461
X15461
X14461
X13461
X12461
X11461
X10461
Y16232
X11461
X12461
X13461
X14461
X15461
X16461
X17461
X3846Y16642
Y17642
Y18642
Y13496
Y12496
Y11496
Y10496
Y9496
Y8496
Y7496
Y6496
Y5496
Y4496
X2846
Y5496
Y6496
Y7496
Y8496
Y9496
Y10496
Y11496
Y12496
Y13496
Y16642
Y17642
Y18642
Y19642
Y20642
Y21642
Y22642
Y23642
Y24642
Y25642
Y26642
Y27642
Y28642
Y29642
Y30642
Y31642
Y32642
Y33642
Y34642
X3846
Y33642
Y32642
Y31642
Y30642
Y29642
Y28642
Y27642
Y26642
Y25642
Y24642
Y23642
Y22642
Y21642
Y20642
Y19642
X9370Y21646
Y22646
Y23646
Y24646
Y25646
Y26646
Y27646
Y28646
Y29646
Y30646
Y31646
Y32646
Y33646
Y34646
X10370
Y33646
Y32646
Y31646
Y30646
Y29646
Y28646
Y27646
Y26646
Y25646
Y24646
Y23646
Y22646
Y21646
Y35646
X9370
X3846Y35642
X2846
T06
X17232Y25821
X18217Y33222
X24618
X26406Y33222
X32807
X34594Y34010
X33612Y25821
X31823
X25421
X23634
X40014
X41799
X48201
X49185Y34010
X42783
X40996
T07
X10472Y197
X35197
X52165Y2598
Y27323
X31654Y36417
X11654
T08
X17933Y24152
X18917Y31553
X23917
X27106Y31553
X32106
X31122Y24152
X34313
X26122
X22933
X39313
X42500
X47500
X48484Y32341
X43484
X40295
X35295
T09
X0Y0
X51181
Y35433
X0
M30
